<svg width="996" height="585" viewBox="0 0 996 585" fill="none" xmlns="http://www.w3.org/2000/svg">
<g clip-path="url(#clip0)">
<path d="M324.863 582.595H0.830078V584.836H324.863V582.595Z" fill="#3F3D56"/>
<path d="M986.169 482.164H180.169C177.783 482.162 175.495 481.213 173.808 479.525C172.121 477.838 171.172 475.55 171.169 473.164V9.16422C171.172 6.77807 172.121 4.49039 173.808 2.80313C175.495 1.11587 177.783 0.16682 180.169 0.164215H986.169C988.555 0.16682 990.843 1.11587 992.53 2.80313C994.217 4.49039 995.166 6.77807 995.169 9.16422V473.164C995.166 475.55 994.217 477.838 992.53 479.525C990.843 481.213 988.555 482.162 986.169 482.164V482.164ZM180.169 2.16422C178.313 2.16638 176.534 2.90457 175.222 4.21686C173.909 5.52914 173.171 7.30836 173.169 9.16422V473.164C173.171 475.02 173.909 476.799 175.222 478.112C176.534 479.424 178.313 480.162 180.169 480.164H986.169C988.025 480.162 989.804 479.424 991.116 478.111C992.428 476.799 993.167 475.02 993.169 473.164V9.16422C993.167 7.30839 992.428 5.52922 991.116 4.21695C989.804 2.90468 988.025 2.16646 986.169 2.16422H180.169Z" fill="#3F3D56"/>
<path d="M499.293 350.414H244.669C242.415 350.412 240.255 349.515 238.661 347.922C237.068 346.328 236.172 344.168 236.169 341.914V184.914C236.172 182.661 237.068 180.5 238.661 178.907C240.255 177.313 242.415 176.417 244.669 176.414H499.293C501.547 176.417 503.708 177.313 505.301 178.907C506.895 180.5 507.791 182.661 507.793 184.914V341.914C507.791 344.168 506.895 346.328 505.301 347.922C503.708 349.515 501.547 350.412 499.293 350.414V350.414Z" fill="#E6E6E6"/>
<path d="M154.933 383.274C153.846 383.276 152.776 383.005 151.821 382.487C150.866 381.969 150.056 381.22 149.465 380.308L141.445 367.917C140.511 366.469 140.189 364.71 140.55 363.025C140.911 361.339 141.925 359.866 143.371 358.928L246.64 292.085C248.088 291.151 249.847 290.829 251.532 291.19C253.217 291.551 254.69 292.565 255.628 294.011L263.648 306.402C264.112 307.118 264.43 307.919 264.585 308.759C264.739 309.598 264.727 310.46 264.548 311.294C264.369 312.129 264.027 312.92 263.543 313.623C263.058 314.326 262.44 314.926 261.723 315.39L158.454 382.233C157.406 382.913 156.182 383.275 154.933 383.274Z" fill="#FBBF24"/>
<path d="M158.151 381.405L201.32 357.3C202.666 356.548 203.672 355.307 204.127 353.834C204.583 352.361 204.453 350.769 203.766 349.388L193.765 329.295C193.37 328.502 192.804 327.805 192.108 327.257C191.412 326.708 190.602 326.32 189.738 326.121C188.874 325.923 187.977 325.918 187.111 326.108C186.245 326.297 185.432 326.676 184.73 327.218L143.604 358.939C142.27 359.805 141.334 361.164 141.001 362.719C140.667 364.273 140.963 365.897 141.824 367.234L149.846 379.627C150.712 380.963 152.073 381.9 153.63 382.234C155.187 382.567 156.813 382.269 158.151 381.405V381.405Z" fill="#CCCCCC"/>
<path d="M201.034 27.4041C204.9 27.4041 208.034 24.2701 208.034 20.4041C208.034 16.5381 204.9 13.4041 201.034 13.4041C197.168 13.4041 194.034 16.5381 194.034 20.4041C194.034 24.2701 197.168 27.4041 201.034 27.4041Z" fill="#FBBF24"/>
<path d="M221.034 27.4041C224.9 27.4041 228.034 24.2701 228.034 20.4041C228.034 16.5381 224.9 13.4041 221.034 13.4041C217.168 13.4041 214.034 16.5381 214.034 20.4041C214.034 24.2701 217.168 27.4041 221.034 27.4041Z" fill="#FBBF24"/>
<path d="M241.034 27.4041C244.9 27.4041 248.034 24.2701 248.034 20.4041C248.034 16.5381 244.9 13.4041 241.034 13.4041C237.168 13.4041 234.034 16.5381 234.034 20.4041C234.034 24.2701 237.168 27.4041 241.034 27.4041Z" fill="#FBBF24"/>
<path d="M994.169 37.1642H172.169V42.1642H994.169V37.1642Z" fill="#3F3D56"/>
<path d="M263.045 165.414C261.056 165.416 259.15 166.207 257.744 167.613C256.338 169.019 255.547 170.926 255.545 172.914V329.914C255.547 331.903 256.338 333.809 257.744 335.215C259.15 336.621 261.056 337.412 263.045 337.414H517.669C519.658 337.412 521.564 336.621 522.97 335.215C524.376 333.809 525.167 331.903 525.169 329.914V172.914C525.167 170.926 524.376 169.019 522.97 167.613C521.564 166.207 519.658 165.416 517.669 165.414H263.045Z" fill="#3F3D56"/>
<path d="M627.669 166.914C626.21 166.914 624.811 167.494 623.78 168.525C622.748 169.557 622.169 170.956 622.169 172.414C622.169 173.873 622.748 175.272 623.78 176.303C624.811 177.335 626.21 177.914 627.669 177.914H924.669C926.128 177.914 927.527 177.335 928.558 176.303C929.589 175.272 930.169 173.873 930.169 172.414C930.169 170.956 929.589 169.557 928.558 168.525C927.527 167.494 926.128 166.914 924.669 166.914H627.669Z" fill="#FBBF24"/>
<path d="M627.669 201.914C626.21 201.914 624.811 202.494 623.78 203.525C622.748 204.557 622.169 205.956 622.169 207.414C622.169 208.873 622.748 210.272 623.78 211.303C624.811 212.335 626.21 212.914 627.669 212.914H924.669C926.128 212.914 927.527 212.335 928.558 211.303C929.589 210.272 930.169 208.873 930.169 207.414C930.169 205.956 929.589 204.557 928.558 203.525C927.527 202.494 926.128 201.914 924.669 201.914H627.669Z" fill="#FBBF24"/>
<path d="M627.669 236.914C626.21 236.914 624.811 237.494 623.78 238.525C622.748 239.557 622.169 240.956 622.169 242.414C622.169 243.873 622.748 245.272 623.78 246.303C624.811 247.335 626.21 247.914 627.669 247.914H924.669C926.128 247.914 927.527 247.335 928.558 246.303C929.589 245.272 930.169 243.873 930.169 242.414C930.169 240.956 929.589 239.557 928.558 238.525C927.527 237.494 926.128 236.914 924.669 236.914H627.669Z" fill="#FBBF24"/>
<path d="M627.669 271.914C626.21 271.914 624.811 272.494 623.78 273.525C622.748 274.557 622.169 275.956 622.169 277.414C622.169 278.873 622.748 280.272 623.78 281.303C624.811 282.335 626.21 282.914 627.669 282.914H924.669C926.128 282.914 927.527 282.335 928.558 281.303C929.589 280.272 930.169 278.873 930.169 277.414C930.169 275.956 929.589 274.557 928.558 273.525C927.527 272.494 926.128 271.914 924.669 271.914H627.669Z" fill="#E6E6E6"/>
<path d="M627.669 306.914C626.21 306.914 624.811 307.494 623.78 308.525C622.748 309.557 622.169 310.956 622.169 312.414C622.169 313.873 622.748 315.272 623.78 316.303C624.811 317.335 626.21 317.914 627.669 317.914H924.669C926.128 317.914 927.527 317.335 928.558 316.303C929.589 315.272 930.169 313.873 930.169 312.414C930.169 310.956 929.589 309.557 928.558 308.525C927.527 307.494 926.128 306.914 924.669 306.914H627.669Z" fill="#E6E6E6"/>
<path d="M627.669 341.914C626.21 341.914 624.811 342.494 623.78 343.525C622.748 344.557 622.169 345.956 622.169 347.414C622.169 348.873 622.748 350.272 623.78 351.303C624.811 352.335 626.21 352.914 627.669 352.914H924.669C926.128 352.914 927.527 352.335 928.558 351.303C929.589 350.272 930.169 348.873 930.169 347.414C930.169 345.956 929.589 344.557 928.558 343.525C927.527 342.494 926.128 341.914 924.669 341.914H627.669Z" fill="#E6E6E6"/>
<path d="M153.951 303.958C183.509 303.958 207.47 279.996 207.47 250.439C207.47 220.881 183.509 196.919 153.951 196.919C124.393 196.919 100.432 220.881 100.432 250.439C100.432 279.996 124.393 303.958 153.951 303.958Z" fill="#FBBF24"/>
<path d="M145.519 583.784H130.759C129.035 583.782 127.383 583.097 126.165 581.878C124.946 580.66 124.261 579.008 124.259 577.284V454.27C124.261 452.546 124.946 450.894 126.165 449.676C127.383 448.457 129.035 447.772 130.759 447.77H145.519C147.242 447.772 148.894 448.457 150.113 449.676C151.331 450.894 152.017 452.546 152.019 454.27V577.284C152.017 579.008 151.331 580.66 150.113 581.878C148.894 583.097 147.242 583.782 145.519 583.784V583.784Z" fill="#2F2E41"/>
<path d="M174.711 583.784H159.951C158.228 583.782 156.576 583.097 155.357 581.878C154.139 580.66 153.453 579.008 153.451 577.284V454.27C153.453 452.546 154.139 450.894 155.357 449.676C156.576 448.457 158.228 447.772 159.951 447.77H174.711C176.434 447.772 178.086 448.457 179.305 449.676C180.523 450.894 181.209 452.546 181.211 454.27V577.284C181.209 579.008 180.523 580.66 179.305 581.878C178.086 583.097 176.434 583.782 174.711 583.784Z" fill="#2F2E41"/>
<path d="M186.874 468.232H119.812C118.088 468.23 116.436 467.544 115.218 466.326C113.999 465.107 113.314 463.455 113.312 461.732V348.633C113.322 339.121 117.106 330.002 123.832 323.276C130.557 316.55 139.677 312.767 149.188 312.756H186.874C188.597 312.758 190.249 313.443 191.468 314.662C192.687 315.881 193.372 317.533 193.374 319.256V461.732C193.372 463.455 192.687 465.107 191.468 466.326C190.249 467.544 188.597 468.23 186.874 468.232V468.232Z" fill="#CCCCCC"/>
<path d="M200.666 265.308L200.61 263.308C204.331 263.204 207.611 262.971 210.076 261.17C210.775 260.631 211.349 259.947 211.76 259.165C212.171 258.384 212.409 257.523 212.457 256.642C212.501 256.103 212.419 255.562 212.219 255.06C212.019 254.558 211.706 254.109 211.305 253.747C209.669 252.364 207.036 252.812 205.117 253.693L203.462 254.451L206.635 231.261L208.617 231.532L205.917 251.259C208.525 250.492 210.941 250.821 212.596 252.22C213.231 252.775 213.73 253.469 214.052 254.248C214.375 255.027 214.513 255.871 214.456 256.712C214.398 257.897 214.081 259.054 213.528 260.103C212.975 261.152 212.2 262.068 211.256 262.785C208.089 265.1 203.973 265.215 200.666 265.308Z" fill="#2F2E41"/>
<path d="M195.188 233.234H184.416V235.234H195.188V233.234Z" fill="#2F2E41"/>
<path d="M215.874 459.407C214.692 459.406 213.533 459.084 212.52 458.475C211.507 457.866 210.679 456.994 210.123 455.95L152.458 347.289C151.653 345.766 151.484 343.985 151.989 342.338C152.494 340.69 153.633 339.311 155.154 338.501L168.191 331.582C169.714 330.777 171.495 330.608 173.142 331.113C174.79 331.618 176.17 332.756 176.98 334.277L234.645 442.938C235.45 444.461 235.619 446.242 235.114 447.889C234.609 449.537 233.471 450.917 231.95 451.727L218.912 458.646C217.977 459.145 216.934 459.406 215.874 459.407Z" fill="#FBBF24"/>
<path d="M148.309 347.059L173.592 392.151C174.224 393.557 175.374 394.666 176.802 395.247C178.231 395.828 179.828 395.837 181.263 395.272L202.145 387.046C202.97 386.721 203.712 386.217 204.319 385.571C204.926 384.924 205.383 384.152 205.655 383.308C205.928 382.464 206.01 381.571 205.896 380.691C205.782 379.812 205.475 378.969 204.996 378.223L176.949 332.509C176.201 331.106 174.928 330.056 173.408 329.589C171.888 329.122 170.245 329.277 168.839 330.019L150.799 338.939C149.393 339.687 148.341 340.962 147.874 342.484C147.408 344.006 147.564 345.652 148.309 347.059V347.059Z" fill="#CCCCCC"/>
<path d="M185.72 211.307C192.175 210.707 197.58 206.433 200.446 200.712C201.909 197.752 202.677 194.496 202.691 191.193C202.705 187.89 201.964 184.628 200.526 181.655C197.484 175.421 192.408 170.41 186.136 167.447C178.841 163.914 170.603 162.936 162.578 163.26C147.456 163.87 130.797 168.116 121.501 181.01C117.128 186.857 115.228 194.188 116.21 201.423C117.386 209.016 122.008 215.592 126.942 221.26C132.113 227.201 138.081 232.551 142.168 239.356C145.705 245.245 147.607 252.66 145.241 259.343C144.677 260.927 143.84 262.399 142.767 263.694C141.544 265.17 143.655 267.304 144.889 265.815C149.144 260.68 150.005 253.9 148.665 247.51C147.189 240.475 142.933 234.527 138.279 229.214C129.223 218.875 115.736 207.586 119.542 192.14C121.329 185.446 125.396 179.585 131.042 175.567C137.095 171.179 144.282 168.764 151.585 167.453C165.56 164.943 182.484 165.206 193.043 176.095C197.431 180.62 200.45 186.944 199.641 193.361C198.912 199.148 195.217 204.824 189.815 207.238C188.517 207.815 187.134 208.176 185.72 208.308C183.814 208.485 183.795 211.486 185.72 211.308L185.72 211.307Z" fill="#2F2E41"/>
</g>
<defs>
<clipPath id="clip0">
<rect width="994.339" height="584.672" fill="white" transform="translate(0.830078 0.164215)"/>
</clipPath>
</defs>
</svg>
