<svg width="329" height="205" viewBox="0 0 329 205" fill="none" xmlns="http://www.w3.org/2000/svg">
<g clip-path="url(#clip0)">
<path d="M279.755 136.671C280.845 136.725 281.932 136.516 282.93 136.063C283.928 135.609 284.81 134.923 285.507 134.058C286.204 133.193 286.697 132.173 286.946 131.079C287.195 129.984 287.194 128.845 286.943 127.751C286.693 126.657 286.199 125.638 285.501 124.774C284.802 123.91 283.919 123.225 282.92 122.773C281.922 122.321 280.835 122.114 279.745 122.169C278.656 122.224 277.594 122.539 276.642 123.089L277.887 126.603L275.327 124.07C273.954 125.364 273.136 127.166 273.051 129.081C273.019 129.752 273.079 130.426 273.23 131.08C273.58 132.616 274.406 133.994 275.584 135.003C276.761 136.012 278.226 136.597 279.755 136.671Z" fill="#57B894"/>
<path d="M300.338 175.46C298.845 172.61 300.539 169.117 302.486 166.576C304.434 164.035 306.807 161.391 306.757 158.153C306.684 153.499 301.892 150.751 298.063 148.284C295.222 146.453 292.602 144.282 290.257 141.815C289.317 140.826 288.408 139.768 287.858 138.505C287.066 136.685 287.088 134.615 287.138 132.622C287.305 125.981 287.623 119.347 288.093 112.72" stroke="#3F3D56" stroke-miterlimit="10"/>
<path d="M279.755 135.664C280.845 135.717 281.932 135.509 282.93 135.055C283.928 134.602 284.81 133.916 285.507 133.051C286.204 132.186 286.697 131.166 286.946 130.072C287.195 128.977 287.194 127.838 286.943 126.744C286.693 125.649 286.199 124.63 285.501 123.766C284.802 122.903 283.919 122.218 282.92 121.766C281.922 121.314 280.835 121.107 279.745 121.162C278.656 121.217 277.594 121.532 276.642 122.082L277.887 125.596L275.327 123.063C273.954 124.356 273.136 126.158 273.051 128.073C273.019 128.745 273.079 129.418 273.23 130.073C273.58 131.609 274.406 132.986 275.584 133.995C276.761 135.004 278.226 135.59 279.755 135.664V135.664Z" stroke="#3F3D56" stroke-miterlimit="10"/>
<path d="M280.814 113.7C280.869 112.484 281.22 111.303 281.834 110.263C282.449 109.224 283.307 108.361 284.33 107.753L285.907 110.968L285.859 107.077C287.291 106.642 288.82 106.687 290.226 107.207C291.631 107.726 292.84 108.692 293.678 109.966C294.516 111.239 294.939 112.754 294.887 114.292C294.835 115.83 294.31 117.311 293.388 118.521C292.467 119.732 291.195 120.609 289.758 121.026C288.321 121.443 286.793 121.379 285.394 120.842C283.994 120.306 282.797 119.325 281.974 118.041C281.151 116.757 280.745 115.237 280.814 113.7Z" fill="#57B894"/>
<path d="M280.814 112.357C280.869 111.141 281.22 109.959 281.834 108.92C282.449 107.881 283.307 107.018 284.33 106.41L285.907 109.625L285.859 105.734C287.291 105.299 288.82 105.344 290.226 105.863C291.631 106.383 292.84 107.349 293.678 108.622C294.516 109.896 294.939 111.411 294.887 112.949C294.835 114.487 294.31 115.968 293.388 117.178C292.467 118.389 291.195 119.266 289.758 119.683C288.321 120.1 286.793 120.036 285.394 119.499C283.994 118.963 282.797 117.982 281.974 116.698C281.151 115.414 280.745 113.894 280.814 112.357V112.357Z" stroke="#3F3D56" stroke-miterlimit="10"/>
<path d="M296.903 148.731C298.631 148.814 300.327 148.239 301.67 147.116C303.013 145.992 303.908 144.399 304.184 142.639C304.46 140.879 304.098 139.077 303.167 137.574C302.237 136.072 300.802 134.975 299.137 134.493L299.174 137.483L297.579 134.23C297.573 134.229 297.567 134.229 297.56 134.229C296.636 134.184 295.713 134.328 294.843 134.651C293.973 134.975 293.173 135.471 292.49 136.113C291.806 136.755 291.251 137.529 290.858 138.392C290.464 139.255 290.24 140.189 290.197 141.141C290.153 142.093 290.293 143.045 290.606 143.942C290.92 144.839 291.402 145.663 292.025 146.368C292.648 147.073 293.399 147.644 294.236 148.049C295.073 148.455 295.979 148.687 296.903 148.731Z" fill="#57B894"/>
<path d="M296.849 147.388C298.577 147.471 300.273 146.896 301.616 145.773C302.959 144.649 303.853 143.056 304.13 141.296C304.406 139.536 304.044 137.733 303.113 136.231C302.183 134.729 300.748 133.632 299.083 133.149L299.12 136.14L297.525 132.887C297.519 132.886 297.513 132.886 297.506 132.886C296.582 132.841 295.659 132.985 294.789 133.308C293.919 133.631 293.119 134.128 292.435 134.77C291.752 135.412 291.197 136.186 290.804 137.049C290.41 137.912 290.186 138.846 290.143 139.798C290.099 140.75 290.239 141.702 290.552 142.599C290.866 143.496 291.348 144.32 291.971 145.025C292.593 145.729 293.345 146.301 294.182 146.706C295.019 147.112 295.925 147.343 296.849 147.388V147.388Z" stroke="#3F3D56" stroke-miterlimit="10"/>
<path d="M293.372 162.486C294.111 163.966 295.322 165.14 296.8 165.809C298.279 166.479 299.936 166.604 301.493 166.164C303.051 165.723 304.414 164.745 305.354 163.391C306.295 162.038 306.755 160.393 306.658 158.731C306.561 157.069 305.913 155.493 304.822 154.265C303.731 153.038 302.264 152.234 300.667 151.99C299.069 151.745 297.439 152.074 296.049 152.921C294.659 153.768 293.593 155.082 293.032 156.643L297.43 160.332L292.591 159.176C292.591 160.328 292.859 161.463 293.372 162.486Z" fill="#57B894"/>
<path d="M293.372 161.479C294.111 162.959 295.322 164.132 296.8 164.802C298.279 165.471 299.936 165.596 301.493 165.156C303.051 164.716 304.414 163.737 305.354 162.384C306.295 161.031 306.755 159.385 306.658 157.724C306.561 156.062 305.913 154.485 304.822 153.258C303.731 152.031 302.264 151.227 300.667 150.982C299.069 150.737 297.439 151.066 296.049 151.913C294.659 152.761 293.593 154.075 293.032 155.635L297.43 159.324L292.591 158.168C292.591 159.32 292.859 160.456 293.372 161.479V161.479Z" stroke="#3F3D56" stroke-miterlimit="10"/>
<path d="M239.65 51.2796C240.499 54.7249 239.853 58.43 238.416 61.6614C236.979 64.8928 234.797 67.7094 232.487 70.3488C231.324 71.6769 230.067 73.0885 229.82 74.8589C229.492 77.2192 231.036 79.3553 232.073 81.4869C232.98 83.3537 233.53 85.3828 233.693 87.4638C233.833 89.2507 233.616 91.2201 232.401 92.5035C231.231 93.7409 229.433 94.0404 227.763 94.2003C223.164 94.6403 218.531 94.5249 213.959 93.8565C215.24 92.1 214.759 91.0102 214.638 88.8161C214.402 84.5117 211.363 80.6147 210.772 76.3466C210.303 72.9533 212.483 69.8382 214.543 67.1475L223.988 54.8093C225.553 52.7648 227.112 50.659 228.235 48.3151C229.039 46.64 229.189 43.4953 231.21 42.9368C235.017 41.8844 238.91 48.2746 239.65 51.2796Z" fill="#47465A"/>
<path d="M193.299 61.4493C193.299 61.4493 186.783 81.2608 183.526 82.604C180.268 83.9472 203.073 108.124 203.073 108.124L219.688 99.7292L220.339 83.6114L213.824 83.2756C213.824 83.2756 212.846 76.5598 216.104 73.2019C219.362 69.844 193.299 61.4493 193.299 61.4493Z" fill="#FBBEBE"/>
<path opacity="0.1" d="M193.299 61.4493C193.299 61.4493 186.783 81.2608 183.526 82.604C180.268 83.9472 203.073 108.124 203.073 108.124L219.688 99.7292L220.339 83.6114L213.824 83.2756C213.824 83.2756 212.846 76.5598 216.104 73.2019C219.362 69.844 193.299 61.4493 193.299 61.4493Z" fill="black"/>
<path d="M200.792 95.0282C200.792 95.0282 186.783 85.2903 186.132 77.2314C186.132 77.2314 175.707 84.2829 172.449 83.9471C169.191 83.6114 160.395 85.6261 160.395 86.9692C160.395 88.3124 168.54 126.256 168.54 126.256C168.54 126.256 162.675 142.374 165.607 147.411C168.54 152.448 170.168 175.953 170.168 175.953H237.932C237.932 175.953 228.81 159.5 233.697 147.747C238.583 135.994 240.538 86.6335 240.538 86.6335C240.538 86.6335 236.954 83.9471 233.371 84.6187C229.787 85.2903 225.552 82.604 222.946 82.2682C220.339 81.9324 214.433 83.307 214.433 83.307L200.792 95.0282Z" fill="#FBBF24"/>
<path d="M328.5 175.593V190.368C328.5 192.968 327.506 195.463 325.733 197.313C323.961 199.163 321.552 200.218 319.03 200.25L17.4121 204.088C16.6832 204.098 15.9598 203.958 15.2838 203.677C14.6078 203.396 13.9926 202.979 13.474 202.451C12.9554 201.923 12.5436 201.294 12.2626 200.601C11.9816 199.908 11.8369 199.164 11.8369 198.413V182.08C11.8369 180.618 12.3891 179.213 13.3766 178.164C14.3642 177.114 15.7094 176.502 17.1273 176.456L319.731 166.83C320.87 166.794 322.004 166.994 323.066 167.418C324.129 167.842 325.097 168.482 325.915 169.299C326.733 170.116 327.383 171.094 327.827 172.176C328.271 173.257 328.5 174.419 328.5 175.593Z" fill="#47465A"/>
<path opacity="0.1" d="M328.5 186.363V190.368C328.5 192.968 327.506 195.463 325.733 197.313C323.961 199.163 321.552 200.218 319.03 200.25L17.4121 204.088C16.6832 204.098 15.9598 203.958 15.2838 203.677C14.6078 203.396 13.9926 202.979 13.474 202.451C12.9554 201.923 12.5436 201.294 12.2626 200.601C11.9816 199.908 11.8369 199.164 11.8369 198.413V197.887L328.5 186.363Z" fill="black"/>
<path d="M269.207 175.953L231.045 170.849L163.185 173.401L187.761 181.326L269.207 175.953Z" fill="#F2F2F2"/>
<path d="M167.888 173.603V177.632L130.749 186.363L127.119 185.5L126.513 185.355L99.799 170.581L167.888 173.603Z" fill="#9493B6"/>
<path opacity="0.1" d="M167.888 173.603V177.632L130.749 186.363L127.119 185.5L126.513 181.326L167.888 173.603Z" fill="black"/>
<path d="M125.21 179.983C125.862 179.647 139.545 176.961 139.545 176.961L114.785 174.61L125.21 179.983Z" fill="#47465A"/>
<path d="M210.892 78.5745C222.587 78.5745 232.068 68.8026 232.068 56.7483C232.068 44.694 222.587 34.922 210.892 34.922C199.196 34.922 189.716 44.694 189.716 56.7483C189.716 68.8026 199.196 78.5745 210.892 78.5745Z" fill="#FBBEBE"/>
<path d="M149.318 155.47C149.318 155.47 130.423 163.865 125.862 161.514C121.301 159.164 107.618 153.12 103.382 165.544C99.967 175.563 119.905 176.192 127.752 176.06C128.7 176.044 129.634 175.816 130.489 175.392C131.344 174.968 132.099 174.357 132.703 173.603L159.906 164.033C159.906 164.033 153.879 153.455 149.318 155.47Z" fill="#FBBEBE"/>
<path d="M202.747 140.024L205.027 142.039L183.851 172.931C183.851 172.931 180.594 173.267 181.571 171.588L202.747 140.024Z" fill="#47465A"/>
<path d="M204.05 142.038L206.331 139.016L205.353 138.345L203.073 141.031L204.05 142.038Z" fill="#47465A"/>
<path d="M165.445 84.7866C165.445 84.7866 154.368 86.8013 154.694 95.5318C155.019 104.262 152.25 114.168 149.644 118.869C147.038 123.57 148.992 127.264 149.644 133.644C150.296 140.024 146.386 146.74 148.341 150.097C150.296 153.455 127.165 155.806 127.165 159.164C127.165 162.522 141.825 168.902 139.219 173.267C137.344 176.407 150.561 171.119 158.124 167.904C160.094 167.085 161.843 165.789 163.223 164.125C164.603 162.461 165.573 160.478 166.05 158.345C166.279 157.275 166.34 156.31 166.096 155.638C165.119 152.952 176.684 149.426 177.01 142.71C177.336 135.994 175.381 129.279 173.752 122.563C172.123 115.847 165.445 84.7866 165.445 84.7866Z" fill="#FBBF24"/>
<path d="M4.01114 119.93L99.5441 120.862C100.205 120.869 100.85 121.069 101.403 121.44C101.957 121.811 102.397 122.337 102.671 122.956L128.417 181.098C128.663 181.653 128.767 182.263 128.72 182.871C128.672 183.479 128.475 184.065 128.146 184.572C127.818 185.079 127.369 185.492 126.842 185.77C126.316 186.049 125.729 186.184 125.137 186.163L29.2688 182.745C28.6305 182.722 28.0106 182.518 27.4772 182.156C26.9439 181.793 26.5179 181.286 26.2459 180.691L0.83521 125.035C0.584886 124.487 0.473662 123.882 0.511955 123.277C0.550249 122.673 0.736807 122.088 1.05416 121.578C1.37151 121.068 1.80927 120.649 2.32644 120.361C2.84361 120.073 3.42327 119.925 4.01114 119.93Z" fill="#7A799C"/>
<path d="M229.461 155.47C229.461 155.47 210.566 163.865 206.005 161.514C201.444 159.164 187.761 153.12 183.526 165.544C180.11 175.563 200.048 176.192 207.895 176.06C208.843 176.044 209.778 175.816 210.632 175.392C211.487 174.968 212.243 174.357 212.846 173.603L240.538 170.581C240.538 170.581 234.022 153.455 229.461 155.47Z" fill="#FBBEBE"/>
<path opacity="0.1" d="M240.701 91.8382C240.701 91.8382 245.425 85.2903 247.705 91.3345C249.986 97.3787 249.66 120.884 249.66 120.884C249.66 120.884 253.569 132.636 252.266 140.36C250.963 148.083 253.569 149.09 253.569 149.09C253.569 149.09 254.221 152.448 252.266 154.127C250.312 155.806 249.008 163.193 249.66 164.201C250.312 165.208 248.683 171.588 247.38 171.588C246.076 171.588 243.307 171.084 243.307 171.084C243.307 171.084 236.629 158.492 222.62 157.485C222.62 157.485 224.9 154.127 223.597 147.411C222.294 140.695 240.701 91.8382 240.701 91.8382Z" fill="black"/>
<path d="M239.887 86.9693C239.887 86.9693 245.262 84.7866 247.542 90.8308C249.823 96.875 251.941 120.884 251.941 120.884C251.941 120.884 255.85 132.636 254.547 140.36C253.244 148.083 255.85 149.09 255.85 149.09C255.85 149.09 256.502 152.448 254.547 154.127C252.592 155.806 251.289 163.193 251.941 164.201C252.592 165.208 250.963 171.588 249.66 171.588C248.357 171.588 236.303 173.603 236.303 173.603C236.303 173.603 238.909 158.492 224.9 157.485C224.9 157.485 227.181 154.127 225.878 147.411C224.575 140.695 239.887 86.9693 239.887 86.9693Z" fill="#FBBF24"/>
<path d="M217.985 25.9471C214.737 23.8527 211.06 22.5648 207.246 22.185C203.432 21.8052 199.585 22.3438 196.007 23.7584C192.172 25.3133 188.784 27.8449 185.616 30.5616C183.074 32.7408 180.595 35.1183 179.034 38.1219C176.666 42.676 176.673 48.0971 176.737 53.2634C176.793 57.7614 176.85 62.2731 177.445 66.7294C178.26 72.8416 180.088 78.893 179.668 85.0476C179.248 91.2021 175.739 97.7685 169.873 98.9961C175.33 99.4217 180.815 99.2589 186.24 98.5102C189.659 98.038 193.247 97.2311 195.747 94.7811C197.572 92.9918 198.604 90.5249 199.502 88.0989C200.404 85.6606 201.23 83.1267 201.198 80.5173C201.133 75.0878 197.475 70.5333 195.087 65.6929C194.417 64.3343 193.829 62.8736 193.852 61.3496C193.876 59.8257 194.648 58.2259 196.022 57.6632C197.717 56.9688 199.681 58.0046 201.444 57.5193C204.276 56.7396 205.011 52.6855 207.611 51.2903C209.535 50.258 211.991 51.0321 213.609 52.5213C214.332 53.1874 214.952 53.9924 215.791 54.494C216.929 55.1741 218.311 55.2072 219.626 55.2221C222.081 55.2501 230.461 51.2834 232.23 49.5289C233.957 58.68 246.792 50.7158 239.426 37.2145C236.861 32.5135 233.459 28.1474 228.934 25.4399C224.408 22.7324 218.634 21.8926 213.883 24.1531" fill="#47465A"/>
<path d="M196.068 67.3256C197.688 67.3256 199 64.9202 199 61.953C199 58.9858 197.688 56.5804 196.068 56.5804C194.449 56.5804 193.136 58.9858 193.136 61.953C193.136 64.9202 194.449 67.3256 196.068 67.3256Z" fill="#FBBEBE"/>
<path d="M224.9 82.7781C224.9 82.7781 242.981 85.4582 243.959 86.8013C244.936 88.1445 242.981 96.2034 242.981 96.2034L229.95 98.5539L219.922 96.325L224.9 82.7781Z" fill="#FBBF24"/>
<path opacity="0.1" d="M169.478 95.9269C166.755 95.4431 164.099 97.9833 162.689 101.332C161.279 104.682 160.896 108.695 160.758 112.594C160.62 116.469 160.701 120.426 161.557 124.11C163.315 131.675 168.035 137.023 170.766 143.979C172.864 149.498 173.713 155.438 173.247 161.346" fill="black"/>
<path d="M171.433 95.9269C168.71 95.4431 166.054 97.9833 164.644 101.332C163.234 104.682 162.851 108.695 162.712 112.594C162.575 116.469 162.656 120.426 163.512 124.11C165.27 131.675 169.99 137.023 172.721 143.979C174.819 149.498 175.667 155.438 175.201 161.346" fill="#FBBF24"/>
<path d="M276.146 170.956L307.662 183.95L327.36 180.295L325.642 165.763L325.39 163.647L292.299 153.09L289.935 155.526L276.146 170.956Z" fill="#FBBF24"/>
<path opacity="0.1" d="M294.268 155.677V169.738L327.36 180.295L325.642 165.763L294.268 155.677Z" fill="black"/>
<path d="M263.806 173.993L266.036 174.844L292.635 184.997L294.702 185.786C294.767 185.811 294.837 185.82 294.906 185.812C294.975 185.803 295.041 185.778 295.099 185.738L297.535 184.055L322.874 166.533L325.267 164.878C325.337 164.831 325.391 164.764 325.425 164.685C325.458 164.607 325.47 164.52 325.458 164.435C325.445 164.35 325.41 164.271 325.356 164.206C325.301 164.141 325.23 164.093 325.151 164.068L321.334 162.863L294.502 154.391L292.159 153.65C292.096 153.63 292.03 153.625 291.965 153.635C291.9 153.645 291.838 153.67 291.783 153.708L289.938 154.99L266.032 171.583L263.715 173.192C263.648 173.238 263.594 173.303 263.56 173.379C263.527 173.454 263.514 173.538 263.523 173.621C263.532 173.704 263.564 173.782 263.614 173.848C263.664 173.913 263.73 173.964 263.806 173.993Z" fill="#7A799C"/>
<path d="M318.687 166.389L294.944 183.033C294.829 183.113 294.698 183.164 294.56 183.182C294.423 183.2 294.283 183.183 294.153 183.134L268.947 173.65C268.793 173.591 268.659 173.49 268.558 173.358C268.457 173.226 268.394 173.067 268.375 172.899C268.357 172.732 268.384 172.563 268.453 172.41C268.523 172.258 268.632 172.128 268.768 172.036L291.749 156.579C291.857 156.507 291.979 156.459 292.106 156.441C292.233 156.423 292.363 156.434 292.486 156.473L318.454 164.771C318.612 164.822 318.753 164.918 318.86 165.048C318.968 165.178 319.038 165.336 319.062 165.505C319.087 165.674 319.064 165.847 318.998 166.003C318.932 166.159 318.824 166.293 318.687 166.389Z" fill="#F2F2F2"/>
<path d="M321.333 162.863V166.533H322.873L325.267 164.878C325.336 164.831 325.391 164.764 325.425 164.685C325.458 164.607 325.47 164.52 325.457 164.435C325.445 164.35 325.41 164.271 325.356 164.206C325.301 164.141 325.23 164.093 325.151 164.068L321.333 162.863Z" fill="#FBBF24"/>
<path d="M292.635 183.848V184.997L294.702 185.786C294.767 185.811 294.837 185.82 294.906 185.812C294.975 185.803 295.041 185.778 295.099 185.738L297.535 184.055V183.848H292.635Z" fill="#FBBF24"/>
<path d="M263.806 173.993L266.036 174.844V171.583H266.032L263.715 173.192C263.648 173.238 263.594 173.303 263.56 173.379C263.526 173.454 263.514 173.538 263.523 173.621C263.532 173.704 263.564 173.782 263.614 173.848C263.663 173.913 263.73 173.964 263.806 173.993Z" fill="#FBBF24"/>
<path d="M289.938 154.99H294.502V154.391L292.159 153.65C292.096 153.63 292.03 153.625 291.965 153.635C291.9 153.645 291.838 153.67 291.783 153.708L289.938 154.99Z" fill="#FBBF24"/>
<path d="M279.958 163.193C280.138 163.193 280.284 163.043 280.284 162.857C280.284 162.672 280.138 162.522 279.958 162.522C279.778 162.522 279.632 162.672 279.632 162.857C279.632 163.043 279.778 163.193 279.958 163.193Z" fill="#F2F2F2"/>
<path d="M141.457 8.7305H11.7947V76.5598H141.457V8.7305Z" fill="#F2F2F2"/>
<path d="M34.5533 70.3477L63.9203 19.8115L94.3812 70.3477" fill="#FBBF24"/>
<path d="M79.0693 44.492L84.9334 28.7099L118.163 70.3477H78.9064L79.0693 44.492Z" fill="#FBBF24"/>
<path d="M72.8953 38.2214C73.8083 37.6457 74.6023 36.8902 75.2319 35.9981C75.8614 35.106 76.3142 34.0947 76.5644 33.0221C76.8145 31.9495 76.8571 30.8366 76.6897 29.747C76.5223 28.6574 76.1481 27.6125 75.5887 26.6721C75.0293 25.7316 74.2955 24.914 73.4293 24.266C72.5631 23.618 71.5815 23.1524 70.5406 22.8956C69.4997 22.6389 68.4199 22.5961 67.363 22.7697C66.306 22.9434 65.2926 23.33 64.3807 23.9076" fill="#FBBF24"/>
<path d="M149.113 0.167892H19.4506V67.9971H149.113V0.167892Z" stroke="#3F3D56" stroke-miterlimit="10"/>
<path d="M36.1823 67.9971L65.5492 17.461L96.0101 67.9971" stroke="#3F3D56" stroke-miterlimit="10"/>
<path d="M80.0466 41.4699L85.9108 25.6878L119.141 67.9971" stroke="#3F3D56" stroke-miterlimit="10"/>
<path d="M75.1758 33.5204C76.0888 32.9447 76.8828 32.1892 77.5123 31.2971C78.1419 30.4049 78.5947 29.3937 78.8448 28.3211C79.095 27.2485 79.1375 26.1355 78.9701 25.046C78.8027 23.9564 78.4286 22.9115 77.8692 21.971C77.3097 21.0306 76.5759 20.213 75.7098 19.565C74.8436 18.917 73.862 18.4513 72.8211 18.1946C71.7802 17.9378 70.7004 17.8951 69.6434 18.0687C68.5865 18.2423 67.5731 18.629 66.6612 19.2065" stroke="#3F3D56" stroke-miterlimit="10"/>
</g>
<defs>
<clipPath id="clip0">
<rect width="328" height="204.089" fill="white" transform="translate(0.5)"/>
</clipPath>
</defs>
</svg>
