<svg width="840" height="238" viewBox="0 0 840 238" fill="none" xmlns="http://www.w3.org/2000/svg">
<path d="M17.1507 143.486L32.8097 117.653L54.2796 138.926L43.4429 140.24C39.4942 158.132 44.4316 176.1 55.428 189.337C63.9119 199.539 80.3573 196.017 83.7875 183.215L103.905 108.137L105.767 101.187C106.835 97.1995 107.785 93.6564 107.785 93.6564L112.522 75.9755C100.144 68.9474 93.9496 53.5669 99.5163 39.3134C104.503 26.5916 117.981 18.7877 131.523 20.8418C149.346 23.5369 160.445 41.0189 155.919 57.9128C152.362 71.1866 140.216 79.9097 127.038 79.865L122.3 97.5459L118.3 112.343C110.028 117.643 121.949 98.1041 120.88 102.091C119.812 106.079 117.749 115.586 117.466 114.534L118.42 112.026L98.2891 187.157C101.551 174.985 94.859 199.959 98.2891 187.157C91.9744 209.251 88.7409 221.6 86.4917 229.713C84.966 230.148 81.046 229.21 79.4156 228.773C77.7852 228.336 76.4147 227.35 75.444 226.134C72.0555 221.74 67.8777 217.978 63.1031 215.18C37.9613 200.458 23.6146 171.534 27.9348 142.158L17.1507 143.486ZM140.409 56.6811C144.973 47.22 138.654 36.3044 128.155 35.5157C122.299 35.0712 116.567 38.3713 114.025 43.6508C109.46 53.1119 115.78 64.0274 126.279 64.8162C132.135 65.2607 137.853 62.0131 140.409 56.6811Z" fill="#FEFEFE"/>
<path d="M237.387 143.207L221.748 117.37L200.34 138.626L211.153 139.946C215.103 157.838 210.188 175.8 199.224 189.028C190.766 199.223 174.356 195.692 170.926 182.89L150.808 107.812L148.946 100.862C147.878 96.8743 146.928 93.3312 146.928 93.3312L142.191 75.6503C154.537 68.6308 160.708 53.2566 155.145 39.002C150.161 26.2793 136.71 18.4685 123.2 20.514C105.418 23.1979 94.3548 40.6703 98.8816 57.5642C102.438 70.838 114.562 79.5671 127.71 79.5303L132.448 97.2112L136.448 112.008C144.704 117.313 132.799 97.7695 133.868 101.757C134.936 105.744 137 115.251 137.282 114.199L136.328 111.692L156.459 186.823C153.198 174.65 159.889 199.624 156.459 186.823C162.773 208.917 166.007 221.265 168.256 229.379C169.778 229.814 173.689 228.879 175.315 228.443C176.942 228.007 178.308 227.022 179.276 225.807C182.654 221.416 186.82 217.656 191.582 214.862C216.658 200.158 230.955 171.248 226.627 141.873L237.387 143.207ZM114.355 56.3421C109.796 46.8797 116.094 35.9698 126.569 35.1875C132.412 34.7467 138.133 38.0497 140.672 43.3299C145.232 52.7923 138.933 63.7022 128.458 64.4845C122.616 64.9253 116.909 61.6747 114.355 56.3421Z" fill="#FEFEFE"/>
<rect x="74.7573" y="118.096" width="104.062" height="10.7651" fill="#FEFEFE"/>
<path d="M354.138 133.804L371.838 133.354C372.738 133.354 373.188 134.204 373.188 135.904C373.188 137.504 372.738 138.304 371.838 138.304H364.788C362.788 138.304 361.488 138.754 360.888 139.654C358.588 143.054 357.338 175.254 357.138 236.254C356.938 236.954 356.138 237.304 354.738 237.304C353.338 237.304 352.288 236.954 351.588 236.254C322.388 201.554 299.388 174.004 282.588 153.604H281.988C282.388 190.004 282.688 211.754 282.888 218.854C283.088 225.954 284.138 229.504 286.038 229.504H294.288C295.188 229.504 295.638 230.354 295.638 232.054C295.638 233.654 295.188 234.454 294.288 234.454L278.388 234.304L260.538 234.754C259.838 234.754 259.488 233.904 259.488 232.204C259.488 230.504 259.838 229.654 260.538 229.654H265.488C267.788 229.654 269.438 229.404 270.438 228.904C271.438 228.304 271.988 227.204 272.088 225.604C274.088 203.104 275.088 176.204 275.088 144.904L274.038 143.704C272.038 141.404 270.238 139.954 268.638 139.354C267.138 138.654 264.288 138.304 260.088 138.304C259.488 138.304 259.188 137.504 259.188 135.904C259.188 134.304 259.488 133.504 260.088 133.504L287.238 133.804C322.838 178.404 343.538 204.604 349.338 212.404H349.938C349.338 172.704 348.838 150.454 348.438 145.654C348.038 140.854 346.888 138.454 344.988 138.454H337.788C336.888 138.454 336.438 137.654 336.438 136.054C336.438 134.354 336.888 133.504 337.788 133.504L354.138 133.804ZM474.185 213.604C474.385 212.504 475.235 211.954 476.735 211.954C478.335 211.954 479.135 212.404 479.135 213.304L477.935 234.154C477.935 234.954 477.135 235.354 475.535 235.354C474.035 235.354 473.285 234.954 473.285 234.154V230.554C463.485 234.454 453.885 236.404 444.485 236.404C427.285 236.404 412.985 232.104 401.585 223.504C390.185 214.804 384.485 202.804 384.485 187.504C384.485 176.004 387.485 165.954 393.485 157.354C399.485 148.654 407.085 142.254 416.285 138.154C425.485 133.954 434.885 131.854 444.485 131.854C454.185 131.854 462.835 133.804 470.435 137.704V134.254C470.435 133.354 471.135 132.904 472.535 132.904C474.035 132.904 474.785 133.354 474.785 134.254C474.785 142.354 475.285 149.754 476.285 156.454C476.485 157.454 475.735 157.954 474.035 157.954C472.335 157.954 471.435 157.454 471.335 156.454L470.135 149.404C462.335 142.204 452.985 138.604 442.085 138.604C431.285 138.604 422.085 142.604 414.485 150.604C406.885 158.504 403.085 169.754 403.085 184.354C403.085 198.854 407.085 210.054 415.085 217.954C423.185 225.754 433.285 229.654 445.385 229.654C455.185 229.654 464.485 226.654 473.285 220.654L474.185 213.604ZM584.069 133.654L605.069 133.204C605.869 133.204 606.269 134.054 606.269 135.754C606.269 137.454 605.869 138.304 605.069 138.304H598.619C596.119 138.304 594.469 138.804 593.669 139.804C592.869 140.704 592.469 142.504 592.469 145.204V216.304C592.469 225.104 593.519 229.504 595.619 229.504H604.319C605.119 229.504 605.519 230.354 605.519 232.054C605.519 233.654 605.119 234.454 604.319 234.454L585.419 234.304L564.419 234.754C563.619 234.754 563.219 233.904 563.219 232.204C563.219 230.504 563.619 229.654 564.419 229.654H570.869C573.369 229.654 575.019 229.204 575.819 228.304C576.619 227.304 577.019 225.454 577.019 222.754V187.354H523.469V216.304C523.469 225.104 524.519 229.504 526.619 229.504H535.319C536.119 229.504 536.519 230.354 536.519 232.054C536.519 233.654 536.119 234.454 535.319 234.454L516.419 234.304L495.419 234.754C494.619 234.754 494.219 233.904 494.219 232.204C494.219 230.504 494.619 229.654 495.419 229.654H501.869C504.369 229.654 506.019 229.204 506.819 228.304C507.619 227.304 508.019 225.454 508.019 222.754V151.654C508.019 142.854 506.969 138.454 504.869 138.454H496.169C495.369 138.454 494.969 137.654 494.969 136.054C494.969 134.354 495.369 133.504 496.169 133.504L515.069 133.654L536.069 133.204C536.869 133.204 537.269 134.054 537.269 135.754C537.269 137.454 536.869 138.304 536.069 138.304H529.619C527.119 138.304 525.469 138.804 524.669 139.804C523.869 140.704 523.469 142.504 523.469 145.204V181.204H577.019V151.654C577.019 142.854 575.969 138.454 573.869 138.454H565.169C564.369 138.454 563.969 137.654 563.969 136.054C563.969 134.354 564.369 133.504 565.169 133.504L584.069 133.654ZM636.528 147.154C647.228 136.954 660.078 131.854 675.078 131.854C690.078 131.854 702.928 136.954 713.628 147.154C724.328 157.354 729.678 169.704 729.678 184.204C729.678 198.604 724.328 210.904 713.628 221.104C702.928 231.304 690.078 236.404 675.078 236.404C660.078 236.404 647.228 231.304 636.528 221.104C625.828 210.904 620.478 198.604 620.478 184.204C620.478 169.704 625.828 157.354 636.528 147.154ZM700.728 151.804C694.128 143.104 685.578 138.754 675.078 138.754C664.578 138.754 655.978 143.104 649.278 151.804C642.678 160.504 639.378 171.304 639.378 184.204C639.378 197.004 642.678 207.754 649.278 216.454C655.978 225.154 664.578 229.504 675.078 229.504C685.578 229.504 694.128 225.154 700.728 216.454C707.428 207.754 710.778 197.004 710.778 184.204C710.778 171.304 707.428 160.504 700.728 151.804ZM746.511 133.504L765.411 133.804H782.661C795.861 133.804 805.761 136.304 812.361 141.304C819.061 146.304 822.411 152.254 822.411 159.154C822.411 166.054 819.961 171.704 815.061 176.104C810.161 180.404 803.911 183.404 796.311 185.104C788.111 186.004 783.061 186.454 781.161 186.454C779.361 186.454 776.911 186.154 773.811 185.554V216.304C773.811 225.104 774.861 229.504 776.961 229.504H785.661C786.461 229.504 786.861 230.354 786.861 232.054C786.861 233.654 786.461 234.454 785.661 234.454L766.761 234.304L745.761 234.754C744.961 234.754 744.561 233.904 744.561 232.204C744.561 230.504 744.961 229.654 745.761 229.654H752.211C754.711 229.654 756.361 229.204 757.161 228.304C757.961 227.304 758.361 225.454 758.361 222.754V151.654C758.361 142.854 757.311 138.454 755.211 138.454H746.511C745.711 138.454 745.311 137.654 745.311 136.054C745.311 134.354 745.711 133.504 746.511 133.504ZM781.761 180.904C789.461 180.904 795.461 179.004 799.761 175.204C804.061 171.404 806.211 166.704 806.211 161.104C806.211 155.504 803.911 150.554 799.311 146.254C794.711 141.954 788.161 139.804 779.661 139.804C775.761 139.804 773.811 141.854 773.811 145.954V180.004C776.511 180.604 779.161 180.904 781.761 180.904ZM836.811 223.954C837.411 223.454 838.011 223.504 838.611 224.104C839.211 224.604 839.511 225.004 839.511 225.304C839.511 225.504 839.461 225.704 839.361 225.904C834.461 232.904 829.011 236.404 823.011 236.404C818.811 236.404 814.961 234.954 811.461 232.054C807.961 229.154 804.961 225.504 802.461 221.104C800.061 216.704 797.711 212.204 795.411 207.604C789.711 195.904 784.261 188.804 779.061 186.304L788.661 184.504C793.261 185.304 797.261 187.354 800.661 190.654C804.161 193.954 806.961 197.654 809.061 201.754C811.161 205.754 813.161 209.754 815.061 213.754C819.561 223.154 824.461 227.854 829.761 227.854C831.661 227.854 834.011 226.554 836.811 223.954Z" fill="white"/>
</svg>
