<svg width="147" height="38" viewBox="0 0 147 38" fill="none" xmlns="http://www.w3.org/2000/svg">
<g >
<path d="M6.66708 2.33456C6.66708 2.33456 5.63909 4.07627 6.08432 5.07626C6.52954 6.07625 8.51175 6.47774 8.51175 6.47774C8.51175 6.47774 6.53761 6.03828 5.72415 6.77073C4.91068 7.50317 5.14138 9.51243 5.14138 9.51243C5.14138 9.51243 4.94928 7.49911 4.00131 6.9518C3.05334 6.40449 1.21371 7.24479 1.21371 7.24479L3.29671 5.36925L2.15665 2.80862L4.58408 4.2101L6.66708 2.33456Z" fill="#EF4444"/>
<path d="M13.116 27.9573C13.0747 22.4487 17.5846 17.9489 23.1891 17.9069C28.7937 17.8648 32.6917 24.7172 32.733 30.2259C32.7743 35.7345 -16.3183 -23.0987 24.265 37.3809C18.6604 37.423 13.1574 33.466 13.116 27.9573Z" fill="white"/>
<path d="M50.3956 16.3711H50.4835L53.1593 26H55.9425L59.6827 11.9082H56.6261L54.3995 22.1133H54.3214L51.6847 11.9082H49.1944L46.5577 22.1133H46.4796L44.2628 11.9082H41.2061L44.9366 26H47.7198L50.3956 16.3711ZM64.6632 26.2246C67.8272 26.2246 69.8487 24.2031 69.8487 20.7559C69.8487 17.3574 67.7979 15.3066 64.6632 15.3066C61.5284 15.3066 59.4776 17.3672 59.4776 20.7559C59.4776 24.1934 61.4991 26.2246 64.6632 26.2246ZM64.6632 24.0469C63.2569 24.0469 62.3683 22.8652 62.3683 20.7656C62.3683 18.6855 63.2765 17.4844 64.6632 17.4844C66.0499 17.4844 66.9483 18.6855 66.9483 20.7656C66.9483 22.8652 66.0597 24.0469 64.6632 24.0469ZM71.3233 26H74.1749V20.1504C74.1749 18.6758 74.9952 17.8164 76.4015 17.8164C76.8116 17.8164 77.2022 17.8848 77.4366 17.9824V15.4727C77.2413 15.4141 76.9581 15.3652 76.6261 15.3652C75.3956 15.3652 74.5069 16.0879 74.1358 17.416H74.0772V15.5312H71.3233V26ZM81.5675 19.7305H81.5284V11.9082H78.6768V26H81.5284V22.543L82.2706 21.7422L85.2686 26H88.5499L84.3604 20.0234L88.3546 15.5312H85.1222L81.5675 19.7305ZM88.9796 21.9766C89.0675 24.6328 91.3038 26.2441 94.6632 26.2441C98.1886 26.2441 100.347 24.4961 100.347 21.7422C100.347 19.6035 99.0479 18.4023 96.0694 17.8066L94.5753 17.5039C92.9151 17.1719 92.2315 16.6348 92.2315 15.7656C92.2315 14.7305 93.2081 14.0469 94.6632 14.0469C96.1476 14.0469 97.1925 14.7695 97.2901 15.9707H100.073C100.025 13.3828 97.9542 11.6641 94.6632 11.6641C91.5284 11.6641 89.2823 13.373 89.2823 15.9512C89.2823 18.0508 90.6593 19.3984 93.4718 19.9551L94.9561 20.248C96.7237 20.6094 97.3878 21.1367 97.3878 22.0645C97.3878 23.0996 96.3136 23.8613 94.7413 23.8613C93.1397 23.8613 91.9483 23.1582 91.7628 21.9766H88.9796ZM108.023 15.3652C106.509 15.3652 105.347 16.127 104.78 17.3574H104.722V15.5312H101.909V29.418H104.761V24.2422H104.819C105.376 25.4238 106.548 26.166 108.071 26.166C110.689 26.166 112.31 24.1348 112.31 20.7656C112.31 17.3867 110.679 15.3652 108.023 15.3652ZM107.066 23.8711C105.669 23.8711 104.751 22.6602 104.751 20.7656C104.751 18.8906 105.669 17.6504 107.066 17.6504C108.491 17.6504 109.39 18.8711 109.39 20.7656C109.39 22.6699 108.491 23.8711 107.066 23.8711ZM117.827 24.1055C116.86 24.1055 116.216 23.6172 116.216 22.8359C116.216 22.0938 116.821 21.6152 117.886 21.5371L120.093 21.4004V22.1621C120.093 23.2949 119.067 24.1055 117.827 24.1055ZM116.89 26.166C118.198 26.166 119.497 25.5117 120.083 24.3984H120.142V26H122.896V18.8027C122.896 16.6934 121.148 15.3066 118.462 15.3066C115.689 15.3066 113.96 16.7031 113.853 18.7344H116.46C116.597 17.9629 117.271 17.4355 118.335 17.4355C119.409 17.4355 120.093 18.002 120.093 18.9785V19.6719L117.456 19.8281C114.849 19.9844 113.384 21.0879 113.384 22.9922C113.384 24.877 114.898 26.166 116.89 26.166ZM134.253 19.4277C134.126 17.0547 132.329 15.3066 129.497 15.3066C126.362 15.3066 124.36 17.3965 124.36 20.7559C124.36 24.1738 126.362 26.2246 129.517 26.2246C132.271 26.2246 134.116 24.6328 134.263 22.1621H131.607C131.431 23.3047 130.689 23.9883 129.546 23.9883C128.13 23.9883 127.251 22.8164 127.251 20.7559C127.251 18.7344 128.13 17.543 129.536 17.543C130.708 17.543 131.441 18.3242 131.607 19.4277H134.253ZM140.337 17.416C141.607 17.416 142.476 18.334 142.534 19.6719H138.091C138.189 18.3633 139.087 17.416 140.337 17.416ZM142.573 22.7969C142.31 23.5977 141.509 24.1152 140.464 24.1152C139.009 24.1152 138.062 23.0898 138.062 21.5957V21.4199H145.278V20.5508C145.278 17.3672 143.355 15.3066 140.308 15.3066C137.212 15.3066 135.259 17.4746 135.259 20.8145C135.259 24.1641 137.192 26.2246 140.415 26.2246C143.003 26.2246 144.878 24.8477 145.191 22.7969H142.573Z" fill="white"/>
</g>
<defs>
<clipPath >
<rect width="146.786" height="37" fill="white" transform="translate(0 0.5)"/>
</clipPath>
</defs>
</svg>
