<svg width="351" height="256" viewBox="0 0 351 256" fill="none" xmlns="http://www.w3.org/2000/svg">
<g clip-path="url(#clip0)">
<g clip-path="url(#clip1)">
<path d="M282.286 160.549H60.0862C58.5694 160.548 57.1152 159.909 56.0427 158.774C54.9701 157.639 54.3668 156.1 54.3651 154.495V9.50132C54.3663 8.32536 54.8083 7.19794 55.5941 6.36639C56.3798 5.53485 57.4452 5.06709 58.5564 5.06573H283.744C284.874 5.0671 285.958 5.54293 286.757 6.38886C287.557 7.23478 288.006 8.3817 288.008 9.57801V154.495C288.006 156.1 287.403 157.639 286.33 158.774C285.258 159.909 283.803 160.548 282.286 160.549V160.549Z" fill="#F2F2F2"/>
<path d="M274.181 151.975H67.0959C64.0602 151.975 61.5906 149.528 61.5906 146.52V20.2574C61.5906 18.0265 63.4206 16.2114 65.6701 16.2114H275.539C277.826 16.2114 279.686 18.0564 279.686 20.3241V146.52C279.686 149.528 277.216 151.975 274.181 151.975Z" fill="white"/>
<path d="M287.928 9.15497H54.2848V6.07262C54.287 4.46212 54.8928 2.91831 55.9692 1.77987C57.0457 0.641429 58.5049 0.00133054 60.0267 0H282.186C283.708 0.00132278 285.167 0.641419 286.243 1.77986C287.32 2.9183 287.926 4.46212 287.928 6.07262V9.15497Z" fill="#CCCCCC"/>
<path d="M64.7197 6.15832C65.54 6.15832 66.2049 5.45464 66.2049 4.58661C66.2049 3.71857 65.54 3.01489 64.7197 3.01489C63.8994 3.01489 63.2345 3.71857 63.2345 4.58661C63.2345 5.45464 63.8994 6.15832 64.7197 6.15832Z" fill="white"/>
<path d="M70.3573 6.15832C71.1775 6.15832 71.8425 5.45464 71.8425 4.58661C71.8425 3.71857 71.1775 3.01489 70.3573 3.01489C69.537 3.01489 68.8721 3.71857 68.8721 4.58661C68.8721 5.45464 69.537 6.15832 70.3573 6.15832Z" fill="white"/>
<path d="M75.9948 6.15832C76.8151 6.15832 77.48 5.45464 77.48 4.58661C77.48 3.71857 76.8151 3.01489 75.9948 3.01489C75.1746 3.01489 74.5096 3.71857 74.5096 4.58661C74.5096 5.45464 75.1746 6.15832 75.9948 6.15832Z" fill="white"/>
<path d="M251.387 130.799H90.9051C89.2964 130.797 87.7541 130.12 86.6165 128.916C85.479 127.713 84.8391 126.08 84.8373 124.378V42.4961C84.8386 41.2229 85.3172 40.0022 86.1679 39.1019C87.0187 38.2015 88.1721 37.6951 89.3753 37.6936H252.844C254.066 37.6951 255.238 38.2096 256.103 39.1243C256.967 40.039 257.453 41.2792 257.455 42.5728V124.378C257.453 126.08 256.813 127.713 255.675 128.916C254.538 130.12 252.996 130.797 251.387 130.799V130.799ZM89.3753 38.4275C88.356 38.4287 87.3788 38.8578 86.658 39.6205C85.9373 40.3833 85.5319 41.4174 85.5307 42.4961V124.378C85.5323 125.886 86.0991 127.331 87.1066 128.398C88.1142 129.464 89.4802 130.064 90.9051 130.065H251.387C252.812 130.064 254.178 129.464 255.185 128.398C256.193 127.331 256.76 125.886 256.761 124.378V42.5728C256.76 41.4738 256.347 40.4201 255.613 39.643C254.878 38.8659 253.883 38.4287 252.844 38.4275H89.3753Z" fill="#CCCCCC"/>
<path d="M96.4531 124.378H245.839C247.311 124.378 248.722 123.759 249.762 122.658C250.803 121.557 251.387 120.064 251.387 118.507V50.057C251.387 48.5 250.803 47.0067 249.762 45.9057C248.722 44.8047 247.311 44.1862 245.839 44.1862H96.4531C94.9818 44.1862 93.5707 44.8047 92.5303 45.9057C91.4899 47.0067 90.9054 48.5 90.9054 50.057V118.507C90.9054 120.064 91.4899 121.557 92.5303 122.658C93.5707 123.759 94.9818 124.378 96.4531 124.378Z" fill="#F2F2F2"/>
<path d="M113.415 64.1009C115.139 64.1009 116.536 62.6224 116.536 60.7985C116.536 58.9747 115.139 57.4962 113.415 57.4962C111.692 57.4962 110.295 58.9747 110.295 60.7985C110.295 62.6224 111.692 64.1009 113.415 64.1009Z" fill="#CCCCCC"/>
<path d="M113.415 76.5765C115.139 76.5765 116.536 75.098 116.536 73.2741C116.536 71.4503 115.139 69.9717 113.415 69.9717C111.692 69.9717 110.295 71.4503 110.295 73.2741C110.295 75.098 111.692 76.5765 113.415 76.5765Z" fill="#CCCCCC"/>
<path d="M113.415 89.0521C115.139 89.0521 116.536 87.5736 116.536 85.7498C116.536 83.9259 115.139 82.4474 113.415 82.4474C111.692 82.4474 110.295 83.9259 110.295 85.7498C110.295 87.5736 111.692 89.0521 113.415 89.0521Z" fill="#CCCCCC"/>
<path d="M113.415 101.528C115.139 101.528 116.536 100.049 116.536 98.2253C116.536 96.4015 115.139 94.923 113.415 94.923C111.692 94.923 110.295 96.4015 110.295 98.2253C110.295 100.049 111.692 101.528 113.415 101.528Z" fill="#CCCCCC"/>
<path d="M231.651 61.1654H129.018C128.926 61.1654 128.838 61.1268 128.773 61.058C128.708 60.9892 128.671 60.8958 128.671 60.7985C128.671 60.7012 128.708 60.6079 128.773 60.5391C128.838 60.4702 128.926 60.4316 129.018 60.4316H231.651C231.743 60.4316 231.831 60.4702 231.896 60.5391C231.961 60.6079 231.998 60.7012 231.998 60.7985C231.998 60.8958 231.961 60.9892 231.896 61.058C231.831 61.1268 231.743 61.1654 231.651 61.1654Z" fill="#CCCCCC"/>
<path d="M231.651 73.6411H129.018C128.926 73.6411 128.838 73.6024 128.773 73.5336C128.708 73.4648 128.671 73.3715 128.671 73.2742C128.671 73.1768 128.708 73.0835 128.773 73.0147C128.838 72.9459 128.926 72.9072 129.018 72.9072H231.651C231.743 72.9072 231.831 72.9459 231.896 73.0147C231.961 73.0835 231.998 73.1768 231.998 73.2742C231.998 73.3715 231.961 73.4648 231.896 73.5336C231.831 73.6024 231.743 73.6411 231.651 73.6411Z" fill="#CCCCCC"/>
<path d="M231.651 86.1167H129.018C128.926 86.1167 128.838 86.078 128.773 86.0092C128.708 85.9404 128.671 85.8471 128.671 85.7497C128.671 85.6524 128.708 85.5591 128.773 85.4903C128.838 85.4215 128.926 85.3828 129.018 85.3828H231.651C231.743 85.3828 231.831 85.4215 231.896 85.4903C231.961 85.5591 231.998 85.6524 231.998 85.7497C231.998 85.8471 231.961 85.9404 231.896 86.0092C231.831 86.078 231.743 86.1167 231.651 86.1167Z" fill="#CCCCCC"/>
<path d="M231.651 98.5923H129.018C128.926 98.5923 128.838 98.5536 128.773 98.4848C128.708 98.416 128.671 98.3226 128.671 98.2253C128.671 98.128 128.708 98.0347 128.773 97.9659C128.838 97.8971 128.926 97.8584 129.018 97.8584H231.651C231.743 97.8584 231.831 97.8971 231.896 97.9659C231.961 98.0347 231.998 98.128 231.998 98.2253C231.998 98.3226 231.961 98.416 231.896 98.4848C231.831 98.5536 231.743 98.5923 231.651 98.5923Z" fill="#CCCCCC"/>
<path d="M148.435 111.068H138.38C137.92 111.067 137.48 110.874 137.155 110.53C136.83 110.186 136.647 109.72 136.646 109.233V99.3261C136.647 98.8397 136.83 98.3734 137.155 98.0294C137.48 97.6855 137.92 97.492 138.38 97.4915H148.435C148.895 97.492 149.335 97.6855 149.66 98.0294C149.985 98.3734 150.168 98.8397 150.169 99.3261V109.233C150.168 109.72 149.985 110.186 149.66 110.53C149.335 110.874 148.895 111.067 148.435 111.068V111.068Z" fill="#FBBF24"/>
<path d="M170.973 111.068H160.917C160.458 111.067 160.017 110.874 159.692 110.53C159.367 110.186 159.184 109.72 159.184 109.233V86.8505C159.184 86.3641 159.367 85.8978 159.692 85.5538C160.017 85.2099 160.458 85.0164 160.917 85.0159H170.973C171.432 85.0164 171.873 85.2099 172.198 85.5538C172.523 85.8978 172.706 86.3641 172.706 86.8505V109.233C172.706 109.72 172.523 110.186 172.198 110.53C171.873 110.874 171.432 111.067 170.973 111.068V111.068Z" fill="#FBBF24"/>
<path d="M193.857 111.068H183.802C183.342 111.067 182.901 110.874 182.576 110.53C182.251 110.186 182.069 109.72 182.068 109.233V74.3749C182.069 73.8885 182.251 73.4222 182.576 73.0783C182.901 72.7343 183.342 72.5408 183.802 72.5403H193.857C194.317 72.5408 194.757 72.7343 195.082 73.0783C195.407 73.4222 195.59 73.8885 195.591 74.3749V109.233C195.59 109.72 195.407 110.186 195.082 110.53C194.757 110.874 194.317 111.067 193.857 111.068V111.068Z" fill="#FBBF24"/>
<path d="M217.435 111.068H207.38C206.92 111.067 206.48 110.874 206.155 110.53C205.83 110.186 205.647 109.72 205.646 109.233V62.2662C205.647 61.7798 205.83 61.3135 206.155 60.9696C206.48 60.6256 206.92 60.4321 207.38 60.4316H217.435C217.895 60.4321 218.335 60.6256 218.66 60.9696C218.985 61.3135 219.168 61.7798 219.169 62.2662V109.233C219.168 109.72 218.985 110.186 218.66 110.53C218.335 110.874 217.895 111.067 217.435 111.068V111.068Z" fill="#FBBF24"/>
<path d="M231.651 111.068H129.018C128.926 111.068 128.838 111.029 128.773 110.96C128.708 110.892 128.671 110.798 128.671 110.701C128.671 110.604 128.708 110.51 128.773 110.442C128.838 110.373 128.926 110.334 129.018 110.334H231.651C231.743 110.334 231.831 110.373 231.896 110.442C231.961 110.51 231.998 110.604 231.998 110.701C231.998 110.798 231.961 110.892 231.896 110.96C231.831 111.029 231.743 111.068 231.651 111.068Z" fill="#3F3D56"/>
<path d="M276.743 179.518C277.024 179.068 277.395 178.688 277.83 178.406C278.264 178.124 278.752 177.947 279.258 177.886C279.765 177.825 280.278 177.882 280.761 178.053C281.244 178.225 281.686 178.506 282.055 178.878L293.066 172.865L292.381 179.64L282.03 184.312C281.399 184.927 280.577 185.276 279.719 185.292C278.86 185.308 278.027 184.991 277.375 184.4C276.723 183.809 276.299 182.986 276.183 182.086C276.066 181.186 276.266 180.272 276.743 179.518Z" fill="#FFB8B8"/>
<path d="M286.217 182.045C285.967 181.837 285.783 181.554 285.689 181.233L284.813 178.239C284.719 177.915 284.721 177.568 284.82 177.245C284.918 176.922 285.108 176.639 285.363 176.433L294.287 169.3L303.953 150.325C304.357 149.774 304.861 149.312 305.434 148.966C306.008 148.62 306.64 148.397 307.295 148.31C307.95 148.223 308.615 148.273 309.252 148.457C309.888 148.642 310.484 148.958 311.006 149.386C311.527 149.815 311.963 150.347 312.29 150.954C312.617 151.561 312.828 152.231 312.91 152.924C312.992 153.617 312.945 154.32 312.77 154.994C312.596 155.668 312.298 156.298 311.893 156.85L306.394 169.131C304.726 172.859 301.835 175.819 298.259 177.459L287.8 182.26C287.599 182.352 287.382 182.398 287.163 182.396C286.943 182.393 286.727 182.342 286.528 182.245C286.417 182.192 286.313 182.124 286.217 182.045V182.045Z" fill="#3F3D56"/>
<path d="M312.136 142.406C316.839 142.406 320.652 138.371 320.652 133.394C320.652 128.417 316.839 124.382 312.136 124.382C307.432 124.382 303.619 128.417 303.619 133.394C303.619 138.371 307.432 142.406 312.136 142.406Z" fill="#FFB8B8"/>
<path d="M308.681 251.617L304.43 251.617L302.409 234.266L308.683 234.266L308.681 251.617Z" fill="#FFB8B8"/>
<path d="M301.394 250.332H309.592V255.794H296.232C296.232 255.077 296.366 254.366 296.625 253.704C296.884 253.041 297.265 252.439 297.744 251.931C298.223 251.424 298.792 251.022 299.419 250.747C300.045 250.473 300.716 250.332 301.394 250.332Z" fill="#2F2E41"/>
<path d="M322.55 251.618L318.3 251.618L316.278 234.266L322.552 234.267L322.55 251.618Z" fill="#FFB8B8"/>
<path d="M315.263 250.332H323.461V255.795H310.102C310.102 255.077 310.235 254.367 310.494 253.704C310.754 253.042 311.134 252.439 311.613 251.932C312.093 251.425 312.662 251.023 313.288 250.748C313.914 250.474 314.585 250.332 315.263 250.332V250.332Z" fill="#2F2E41"/>
<path d="M322.861 247.215L317.879 247.215C317.537 247.214 317.203 247.095 316.931 246.874C316.659 246.653 316.463 246.344 316.373 245.993L309.203 217.849C309.192 217.806 309.165 217.768 309.129 217.743C309.093 217.718 309.05 217.709 309.007 217.716C308.965 217.723 308.927 217.747 308.9 217.783C308.873 217.818 308.86 217.863 308.862 217.908L310.311 244.599C310.324 244.835 310.288 245.072 310.207 245.292C310.127 245.512 310.002 245.712 309.842 245.877C309.682 246.042 309.49 246.168 309.28 246.248C309.07 246.328 308.846 246.359 308.623 246.339L303.024 245.845C302.666 245.813 302.328 245.65 302.07 245.385C301.811 245.12 301.647 244.769 301.604 244.391L296.503 188.344L298.477 189.597L316.968 186.275L324.408 245.346C324.437 245.579 324.419 245.816 324.355 246.041C324.29 246.267 324.181 246.475 324.035 246.652C323.889 246.829 323.708 246.97 323.506 247.068C323.303 247.165 323.083 247.215 322.861 247.215H322.861Z" fill="#2F2E41"/>
<path d="M302.688 194.26C300.648 194.242 298.649 193.647 296.9 192.536C296.631 192.367 296.416 192.116 296.284 191.815C296.151 191.515 296.108 191.179 296.159 190.852C296.81 186.637 300.211 165.017 303.305 153.231C304.565 148.431 307.352 145.845 311.587 145.546C317.783 145.116 323.29 150.246 323.863 156.994C324.874 168.901 320.765 185.817 318.952 192.537C318.882 192.797 318.752 193.034 318.575 193.229C318.398 193.423 318.178 193.568 317.936 193.652C317.693 193.735 317.435 193.754 317.183 193.708C316.932 193.661 316.696 193.55 316.494 193.384L312.798 190.34C312.57 190.157 312.289 190.063 312.003 190.075C311.717 190.088 311.444 190.206 311.232 190.41C308.116 193.351 305.156 194.26 302.688 194.26Z" fill="#3F3D56"/>
<path opacity="0.2" d="M314.914 162.821L318.034 176.764L313.526 188.506L316.647 177.131L314.914 162.821Z" fill="black"/>
<path d="M316.995 140.805C317.752 140.82 318.505 140.676 319.21 140.381C319.52 140.255 319.842 140.151 320.151 140.024C322.884 138.907 324.684 135.827 324.749 132.728C324.814 129.628 323.297 126.62 321.045 124.637C318.792 122.654 315.875 121.636 312.954 121.4C309.807 121.147 306.264 121.991 304.505 124.764C304.037 125.502 303.71 126.398 303.987 127.289C304.07 127.558 304.219 127.799 304.417 127.989C305.203 128.728 305.986 128.172 306.786 128.123C307.886 128.056 308.874 128.998 309.23 130.102C309.585 131.206 309.428 132.422 309.142 133.548C308.923 134.225 308.785 134.929 308.731 135.643C308.708 136.001 308.772 136.359 308.916 136.684C309.06 137.008 309.281 137.289 309.556 137.498C310.244 137.938 311.146 137.683 311.834 137.244C312.522 136.805 313.117 136.195 313.86 135.871C314.603 135.548 315.601 135.62 316.034 136.337C316.171 136.597 316.264 136.882 316.309 137.176C316.696 139.046 316.607 138.936 316.995 140.805V140.805Z" fill="#2F2E41"/>
<path d="M303.795 239.03L250.469 219.377C249.554 219.038 248.803 218.329 248.381 217.406C247.959 216.482 247.901 215.419 248.219 214.45L262.076 172.342C262.31 171.633 262.801 171.051 263.44 170.723C264.08 170.396 264.816 170.351 265.487 170.597L320.616 190.915C321.298 191.167 321.857 191.695 322.172 192.384C322.486 193.072 322.529 193.864 322.293 194.586L308.45 236.648C308.131 237.617 307.461 238.411 306.588 238.858C305.715 239.304 304.711 239.366 303.795 239.03V239.03Z" fill="#E6E6E6"/>
<path d="M255.019 216.957L301.649 234.142C302.537 234.469 303.512 234.41 304.358 233.977C305.205 233.544 305.854 232.773 306.164 231.833L317.353 197.831C317.663 196.891 317.606 195.86 317.197 194.964C316.788 194.068 316.059 193.381 315.171 193.054L268.541 175.868C267.653 175.541 266.679 175.601 265.832 176.034C264.986 176.467 264.336 177.238 264.027 178.178L252.837 212.18C252.684 212.645 252.619 213.138 252.646 213.63C252.673 214.122 252.791 214.603 252.994 215.047C253.196 215.49 253.479 215.887 253.827 216.215C254.175 216.543 254.58 216.795 255.019 216.957Z" fill="white"/>
<path d="M266.729 193.067L264.42 192.216C264.294 192.17 264.192 192.073 264.134 191.947C264.076 191.82 264.068 191.675 264.112 191.542L264.916 189.098C264.96 188.966 265.051 188.857 265.171 188.796C265.29 188.735 265.428 188.727 265.553 188.773L267.862 189.624C267.987 189.67 268.09 189.767 268.148 189.893C268.206 190.02 268.214 190.165 268.17 190.298L267.366 192.741C267.322 192.874 267.23 192.983 267.111 193.044C266.992 193.105 266.854 193.113 266.729 193.067V193.067Z" fill="#FBBF24"/>
<path d="M264.645 199.399L262.336 198.548C262.211 198.502 262.108 198.405 262.05 198.278C261.993 198.152 261.985 198.007 262.028 197.874L262.832 195.43C262.876 195.298 262.968 195.189 263.087 195.128C263.207 195.067 263.344 195.058 263.469 195.104L265.779 195.955C265.904 196.002 266.006 196.099 266.064 196.225C266.122 196.351 266.13 196.497 266.086 196.629L265.282 199.073C265.238 199.206 265.147 199.314 265.027 199.376C264.908 199.437 264.771 199.445 264.645 199.399V199.399Z" fill="#3F3D56"/>
<path d="M262.562 205.731L260.252 204.88C260.127 204.833 260.024 204.736 259.967 204.61C259.909 204.484 259.901 204.338 259.944 204.206L260.749 201.762C260.792 201.629 260.884 201.521 261.003 201.46C261.123 201.399 261.26 201.39 261.385 201.436L263.695 202.287C263.82 202.334 263.923 202.431 263.98 202.557C264.038 202.683 264.046 202.829 264.003 202.961L263.198 205.405C263.155 205.538 263.063 205.646 262.944 205.707C262.824 205.768 262.687 205.777 262.562 205.731V205.731Z" fill="#CCCCCC"/>
<path d="M282.247 197.416L271.12 193.315C271.058 193.293 271 193.257 270.951 193.211C270.902 193.165 270.862 193.109 270.833 193.046C270.805 192.983 270.788 192.915 270.784 192.846C270.78 192.776 270.789 192.707 270.811 192.641C270.833 192.575 270.866 192.515 270.91 192.463C270.954 192.411 271.007 192.368 271.066 192.338C271.125 192.308 271.19 192.29 271.255 192.287C271.321 192.283 271.387 192.293 271.449 192.316L282.576 196.416C282.638 196.439 282.695 196.475 282.745 196.521C282.794 196.567 282.834 196.623 282.863 196.686C282.891 196.748 282.908 196.816 282.912 196.886C282.916 196.955 282.907 197.025 282.885 197.091C282.863 197.157 282.83 197.217 282.786 197.269C282.742 197.321 282.689 197.363 282.63 197.394C282.57 197.424 282.506 197.441 282.44 197.445C282.375 197.449 282.309 197.439 282.247 197.416V197.416Z" fill="#CCCCCC"/>
<path d="M280.163 203.748L269.036 199.647C268.911 199.601 268.808 199.504 268.75 199.378C268.693 199.251 268.685 199.106 268.728 198.973C268.772 198.841 268.864 198.732 268.983 198.671C269.102 198.61 269.24 198.601 269.365 198.647L280.492 202.748C280.554 202.771 280.611 202.806 280.661 202.853C280.71 202.899 280.75 202.955 280.779 203.018C280.807 203.08 280.824 203.148 280.828 203.218C280.832 203.287 280.822 203.357 280.801 203.422C280.779 203.488 280.745 203.549 280.702 203.601C280.658 203.653 280.605 203.695 280.546 203.725C280.486 203.755 280.422 203.773 280.356 203.777C280.291 203.781 280.225 203.771 280.163 203.748V203.748Z" fill="#CCCCCC"/>
<path d="M278.08 210.08L266.953 205.979C266.827 205.933 266.725 205.836 266.667 205.709C266.609 205.583 266.601 205.438 266.645 205.305C266.689 205.172 266.78 205.064 266.9 205.003C267.019 204.941 267.156 204.933 267.282 204.979L278.409 209.08C278.534 209.126 278.637 209.223 278.694 209.349C278.752 209.476 278.76 209.621 278.716 209.754C278.673 209.886 278.581 209.995 278.462 210.056C278.342 210.118 278.205 210.126 278.08 210.08V210.08Z" fill="#CCCCCC"/>
<path d="M307.69 213.51C307.771 213.305 307.847 213.095 307.918 212.882C308.832 210.103 308.666 207.053 307.456 204.404C306.246 201.755 304.09 199.723 301.464 198.755L297.807 209.868L307.69 213.51Z" fill="#FBBF24"/>
<path d="M296.743 210.544L300.401 199.431C298.468 198.718 296.38 198.62 294.396 199.148C292.411 199.676 290.615 200.808 289.231 202.403C287.846 203.998 286.933 205.987 286.604 208.124C286.275 210.262 286.544 212.455 287.378 214.433C288.213 216.41 289.576 218.086 291.3 219.254C293.023 220.421 295.032 221.03 297.079 221.004C299.125 220.977 301.12 220.318 302.816 219.107C304.513 217.895 305.837 216.185 306.626 214.186L296.743 210.544Z" fill="#3F3D56"/>
<path d="M309.836 194.602C309.795 194.065 309.866 193.524 310.043 193.018C310.221 192.513 310.501 192.054 310.864 191.675C311.226 191.297 311.663 191.007 312.144 190.826C312.624 190.645 313.136 190.578 313.643 190.63L318.8 178.707L322.213 184.486L316.792 194.921C316.654 195.818 316.21 196.63 315.545 197.203C314.879 197.776 314.038 198.071 313.18 198.031C312.323 197.992 311.509 197.621 310.893 196.989C310.276 196.357 309.901 195.508 309.836 194.602V194.602Z" fill="#FFB8B8"/>
<path d="M318.765 190.403C318.447 190.404 318.137 190.301 317.876 190.11L315.441 188.326C315.178 188.132 314.977 187.858 314.866 187.539C314.755 187.221 314.739 186.874 314.821 186.546L317.683 175.105L314.223 153.862C314.219 153.163 314.345 152.47 314.595 151.823C314.844 151.175 315.211 150.586 315.676 150.089C316.141 149.592 316.693 149.197 317.302 148.926C317.911 148.656 318.565 148.514 319.225 148.511C319.886 148.508 320.54 148.642 321.152 148.907C321.763 149.171 322.32 149.561 322.789 150.053C323.258 150.545 323.63 151.13 323.886 151.775C324.141 152.42 324.273 153.112 324.276 153.811L327.111 167.066C327.972 171.088 327.423 175.305 325.566 178.932L320.136 189.539C320.032 189.743 319.888 189.921 319.714 190.062C319.54 190.203 319.34 190.304 319.127 190.358C319.008 190.388 318.887 190.404 318.765 190.403V190.403Z" fill="#3F3D56"/>
<path d="M345.153 256H279.274C279.182 256 279.094 255.961 279.029 255.893C278.964 255.824 278.927 255.73 278.927 255.633C278.927 255.536 278.964 255.442 279.029 255.374C279.094 255.305 279.182 255.266 279.274 255.266H345.153C345.245 255.266 345.333 255.305 345.398 255.374C345.463 255.442 345.5 255.536 345.5 255.633C345.5 255.73 345.463 255.824 345.398 255.893C345.333 255.961 345.245 256 345.153 256Z" fill="#CCCCCC"/>
<path d="M170.587 251.435L174.838 251.434L176.86 234.083H170.586L170.587 251.435Z" fill="#A0616A"/>
<path d="M169.503 249.966L177.874 249.966H177.874C178.575 249.966 179.269 250.112 179.916 250.395C180.563 250.679 181.152 251.095 181.647 251.619C182.142 252.143 182.535 252.766 182.803 253.451C183.072 254.136 183.21 254.87 183.21 255.611V255.795L169.503 255.795L169.503 249.966Z" fill="#2F2E41"/>
<path d="M153.597 251.435L157.848 251.434L159.87 234.083H153.596L153.597 251.435Z" fill="#A0616A"/>
<path d="M152.513 249.966L160.884 249.966H160.885C161.585 249.966 162.279 250.112 162.926 250.395C163.574 250.679 164.162 251.095 164.657 251.619C165.153 252.143 165.546 252.766 165.814 253.451C166.082 254.136 166.22 254.87 166.22 255.611V255.795L152.513 255.795L152.513 249.966Z" fill="#2F2E41"/>
<path d="M171.436 131.309C176.139 131.309 179.952 127.274 179.952 122.297C179.952 117.319 176.139 113.284 171.436 113.284C166.732 113.284 162.919 117.319 162.919 122.297C162.919 127.274 166.732 131.309 171.436 131.309Z" fill="#A0616A"/>
<path d="M177.162 247.69H169.274C169.067 247.69 168.863 247.646 168.673 247.562C168.482 247.478 168.309 247.354 168.164 247.199C168.019 247.044 167.904 246.859 167.827 246.656C167.75 246.454 167.711 246.237 167.714 246.019L168.172 206.379C168.174 206.238 168.124 206.102 168.034 205.998C167.944 205.895 167.82 205.832 167.687 205.823C167.554 205.813 167.423 205.858 167.321 205.948C167.218 206.037 167.152 206.165 167.136 206.305L162.545 246.238C162.498 246.638 162.315 247.007 162.03 247.274C161.745 247.542 161.377 247.689 160.996 247.69H153.032C152.817 247.69 152.604 247.643 152.407 247.552C152.209 247.46 152.032 247.327 151.886 247.16C151.74 246.993 151.628 246.795 151.558 246.58C151.487 246.365 151.459 246.137 151.476 245.91L156.735 174.698L156.878 174.681L182.061 171.803L178.721 246.117C178.702 246.541 178.53 246.941 178.24 247.234C177.949 247.527 177.564 247.69 177.162 247.69V247.69Z" fill="#2F2E41"/>
<path d="M157.042 179.07C156.637 179.069 156.249 178.901 155.959 178.603C155.669 178.304 155.499 177.898 155.487 177.47C155.35 172.968 155.114 157.387 157.852 145.949C158.6 142.824 160.277 140.037 162.637 137.999C164.997 135.962 167.914 134.781 170.956 134.633V134.633C173.951 134.46 176.921 135.29 179.446 137.004C181.97 138.718 183.92 141.229 185.019 144.182C189.622 156.549 193.971 171.792 188.55 174.183C181.443 177.316 162.71 178.713 157.137 179.066C157.105 179.068 157.073 179.07 157.042 179.07Z" fill="#3F3D56"/>
<path d="M189.59 113.188C189.724 113.333 189.868 113.468 190.022 113.589L189.128 131.762L185.41 133.776L187.549 140.112L194.46 137.223C195.018 136.989 195.49 136.571 195.804 136.029C196.118 135.488 196.258 134.854 196.202 134.221L194.392 113.607C194.984 113.139 195.428 112.492 195.664 111.751C195.901 111.01 195.918 110.21 195.714 109.458C195.51 108.706 195.095 108.038 194.524 107.542C193.952 107.046 193.251 106.746 192.515 106.681C191.778 106.617 191.04 106.792 190.4 107.182C189.759 107.572 189.246 108.159 188.929 108.866C188.611 109.572 188.504 110.364 188.623 111.136C188.741 111.908 189.078 112.624 189.59 113.188V113.188Z" fill="#A0616A"/>
<path d="M189.199 132.438L191.815 140.305C191.889 140.529 191.917 140.767 191.897 141.003C191.876 141.239 191.808 141.468 191.696 141.674C191.585 141.88 191.433 142.058 191.25 142.196C191.068 142.334 190.86 142.429 190.639 142.474L182.926 144.055C181.842 144.451 180.653 144.377 179.621 143.847C178.588 143.318 177.797 142.376 177.419 141.23C177.041 140.083 177.109 138.825 177.606 137.731C178.104 136.637 178.991 135.797 180.073 135.394L186.999 131.526C187.197 131.415 187.416 131.351 187.64 131.338C187.864 131.324 188.088 131.362 188.296 131.449C188.505 131.536 188.694 131.669 188.849 131.839C189.005 132.01 189.124 132.214 189.199 132.438V132.438Z" fill="#3F3D56"/>
<path d="M152.702 113.188C152.568 113.333 152.424 113.468 152.27 113.589L153.164 131.762L156.882 133.776L154.743 140.112L147.833 137.223C147.274 136.989 146.803 136.571 146.488 136.029C146.174 135.488 146.034 134.854 146.09 134.221L147.9 113.607C147.308 113.139 146.864 112.492 146.628 111.751C146.392 111.01 146.374 110.21 146.578 109.458C146.782 108.706 147.197 108.038 147.769 107.542C148.34 107.046 149.041 106.746 149.777 106.681C150.514 106.617 151.252 106.792 151.892 107.182C152.533 107.572 153.046 108.159 153.364 108.866C153.681 109.572 153.788 110.364 153.67 111.136C153.551 111.908 153.214 112.624 152.702 113.188H152.702Z" fill="#A0616A"/>
<path d="M153.996 131.449C154.205 131.362 154.429 131.324 154.653 131.337C154.877 131.351 155.095 131.415 155.293 131.526L162.219 135.394C163.301 135.797 164.189 136.637 164.686 137.731C165.184 138.825 165.251 140.083 164.874 141.23C164.496 142.376 163.704 143.317 162.672 143.847C161.639 144.376 160.451 144.451 159.366 144.054L151.653 142.474C151.433 142.429 151.224 142.334 151.042 142.196C150.86 142.058 150.708 141.88 150.596 141.674C150.485 141.468 150.416 141.239 150.396 141.003C150.375 140.767 150.403 140.529 150.478 140.305L153.094 132.438C153.168 132.214 153.287 132.01 153.443 131.839C153.599 131.668 153.787 131.535 153.996 131.449V131.449Z" fill="#3F3D56"/>
<path d="M174.743 123.833C174.698 122.683 174.971 121.545 175.528 120.556C176.084 119.568 176.901 118.773 177.878 118.267C180.466 116.853 182.093 113.837 181.38 111.082C180.468 107.556 175.933 105.27 172.259 106.483C171.265 106.856 170.306 107.328 169.395 107.891L166.994 109.253C165.969 109.796 164.98 110.414 164.035 111.102C162.62 112.205 161.511 113.691 160.823 115.403C160.136 117.116 159.896 118.992 160.128 120.836C160.6 124.421 162.818 127.708 165.855 129.958C167.016 130.877 168.357 131.508 169.779 131.805C171.235 132.058 172.855 131.77 173.919 130.812C175.582 129.315 175.41 126.809 174.873 124.715C174.801 124.426 174.758 124.131 174.743 123.833Z" fill="#2F2E41"/>
<path d="M203.686 256H137.807C137.715 256 137.626 255.961 137.561 255.893C137.496 255.824 137.46 255.73 137.46 255.633C137.46 255.536 137.496 255.442 137.561 255.374C137.626 255.305 137.715 255.266 137.807 255.266H203.686C203.778 255.266 203.866 255.305 203.931 255.374C203.996 255.442 204.033 255.536 204.033 255.633C204.033 255.73 203.996 255.824 203.931 255.893C203.866 255.961 203.778 256 203.686 256Z" fill="#CCCCCC"/>
<path d="M96.1671 189.062L41.8072 212.662C40.8736 213.066 39.8267 213.061 38.8962 212.65C37.9657 212.238 37.2275 211.452 36.8436 210.465L20.2032 167.541C19.9235 166.817 19.9265 166.005 20.2116 165.284C20.4967 164.562 21.0405 163.99 21.7238 163.692L77.9214 139.295C78.6172 138.994 79.3975 138.997 80.091 139.304C80.7845 139.611 81.3346 140.196 81.6207 140.932L98.2428 183.809C98.6246 184.797 98.6204 185.905 98.2313 186.89C97.8422 187.875 97.0998 188.656 96.1671 189.062V189.062Z" fill="#E6E6E6"/>
<path d="M43.7764 207.455L91.3104 186.819C92.2156 186.426 92.9362 185.669 93.3136 184.713C93.6911 183.758 93.6946 182.683 93.3232 181.725L79.8862 147.064C79.7023 146.59 79.432 146.159 79.0906 145.795C78.7492 145.431 78.3434 145.142 77.8965 144.944C77.4495 144.746 76.9702 144.644 76.4857 144.642C76.0013 144.64 75.5213 144.74 75.0731 144.934L27.5391 165.571C27.0909 165.765 26.6833 166.051 26.3396 166.413C25.9959 166.774 25.7228 167.203 25.5359 167.676C25.349 168.149 25.2519 168.657 25.2503 169.169C25.2486 169.682 25.3424 170.19 25.5263 170.664L38.9633 205.325C39.1472 205.8 39.4175 206.231 39.7589 206.595C40.1003 206.959 40.5061 207.248 40.953 207.445C41.3999 207.643 41.8793 207.746 42.3638 207.748C42.8482 207.749 43.3282 207.65 43.7764 207.455V207.455Z" fill="white"/>
<path d="M79.6233 156.517L78.9244 156.82L78.9722 156.944L79.6711 156.64L79.6233 156.517Z" fill="#E6E6E6"/>
<path d="M77.5604 157.556L76.1486 158.169L76.1008 158.046L77.5126 157.433L77.5604 157.556ZM74.7368 158.782L73.325 159.395L73.2772 159.272L74.689 158.659L74.7368 158.782ZM71.9131 160.008L70.5013 160.621L70.4535 160.498L71.8654 159.885L71.9131 160.008ZM69.0895 161.234L67.6777 161.847L67.6299 161.724L69.0417 161.111L69.0895 161.234ZM66.2659 162.46L64.8541 163.073L64.8063 162.95L66.2181 162.337L66.2659 162.46ZM63.4422 163.686L62.0304 164.299L61.9827 164.175L63.3945 163.562L63.4422 163.686ZM60.6186 164.912L59.2068 165.524L59.159 165.401L60.5708 164.788L60.6186 164.912ZM57.795 166.137L56.3832 166.75L56.3354 166.627L57.7472 166.014L57.795 166.137ZM54.9714 167.363L53.5596 167.976L53.5118 167.853L54.9236 167.24L54.9714 167.363ZM52.1477 168.589L50.7359 169.202L50.6881 169.079L52.0999 168.466L52.1477 168.589ZM49.3241 169.815L47.9123 170.428L47.8645 170.305L49.2763 169.692L49.3241 169.815ZM46.5005 171.041L45.0887 171.654L45.0409 171.531L46.4527 170.918L46.5005 171.041ZM43.6768 172.267L42.265 172.88L42.2172 172.756L43.6291 172.143L43.6768 172.267ZM40.8532 173.493L39.4414 174.106L39.3936 173.982L40.8054 173.369L40.8532 173.493ZM38.0296 174.718L36.6178 175.331L36.57 175.208L37.9818 174.595L38.0296 174.718ZM35.206 175.944L33.7941 176.557L33.7463 176.434L35.1582 175.821L35.206 175.944Z" fill="#E6E6E6"/>
<path d="M32.3347 177.047L31.6359 177.35L31.6836 177.474L32.3825 177.17L32.3347 177.047Z" fill="#E6E6E6"/>
<path d="M61.1217 177.942L60.4229 178.245L60.4706 178.368L61.1695 178.065L61.1217 177.942Z" fill="#E6E6E6"/>
<path d="M59.0798 178.972L57.6889 179.576L57.6412 179.453L59.032 178.849L59.0798 178.972ZM56.2981 180.18L54.9072 180.784L54.8595 180.66L56.2503 180.056L56.2981 180.18ZM53.5164 181.387L52.1256 181.991L52.0778 181.868L53.4686 181.264L53.5164 181.387ZM50.7347 182.595L49.3439 183.199L49.2961 183.076L50.6869 182.472L50.7347 182.595ZM47.953 183.803L46.5622 184.407L46.5144 184.283L47.9052 183.679L47.953 183.803ZM45.1713 185.01L43.7805 185.614L43.7327 185.491L45.1235 184.887L45.1713 185.01ZM42.3896 186.218L40.9988 186.822L40.951 186.699L42.3418 186.095L42.3896 186.218ZM39.6079 187.426L38.2171 188.029L38.1693 187.906L39.5602 187.302L39.6079 187.426Z" fill="#E6E6E6"/>
<path d="M36.7787 188.51L36.0798 188.813L36.1276 188.937L36.8265 188.633L36.7787 188.51Z" fill="#E6E6E6"/>
<path d="M49.5967 189.281L48.8978 189.585L48.9456 189.708L49.6445 189.405L49.5967 189.281Z" fill="#E6E6E6"/>
<path d="M47.5147 190.329L46.0837 190.95L46.0359 190.827L47.4669 190.206L47.5147 190.329ZM44.6527 191.572L43.2217 192.193L43.174 192.07L44.6049 191.448L44.6527 191.572ZM41.7908 192.814L40.3598 193.435L40.312 193.312L41.743 192.691L41.7908 192.814Z" fill="#E6E6E6"/>
<path d="M38.8811 193.933L38.1823 194.237L38.23 194.36L38.9289 194.057L38.8811 193.933Z" fill="#E6E6E6"/>
<path d="M53.1846 198.536L52.4857 198.84L52.5335 198.963L53.2324 198.66L53.1846 198.536Z" fill="#E6E6E6"/>
<path d="M51.1028 199.584L49.6718 200.206L49.6241 200.082L51.055 199.461L51.1028 199.584ZM48.2408 200.827L46.8099 201.448L46.7621 201.325L48.1931 200.704L48.2408 200.827ZM45.3789 202.069L43.9479 202.691L43.9001 202.567L45.3311 201.946L45.3789 202.069Z" fill="#E6E6E6"/>
<path d="M42.4689 203.189L41.77 203.492L41.8178 203.615L42.5167 203.312L42.4689 203.189Z" fill="#E6E6E6"/>
<path d="M45.7948 201.999L86.0766 184.511C87.0515 184.087 87.8274 183.27 88.2342 182.241C88.6409 181.212 88.6452 180.054 88.2462 179.021L80.1074 158.027L80.0287 158.064L70.1436 183.076L62.812 179.833C62.6768 179.772 62.5301 179.746 62.3836 179.756C62.2371 179.765 62.0947 179.811 61.9676 179.888C61.7767 180.01 61.629 180.195 61.5473 180.414L56.3667 193.522L51.0062 191.15C50.8906 191.099 50.7665 191.072 50.6411 191.072C50.5157 191.071 50.3915 191.097 50.2755 191.148C50.1594 191.198 50.054 191.272 49.965 191.365C49.8761 191.459 49.8054 191.57 49.7571 191.693C49.7227 191.782 46.4175 200.363 45.7948 201.999Z" fill="#FBBF24"/>
<path d="M45.6707 202.197L45.5546 202.146L49.6996 191.656C49.8094 191.379 50.0184 191.16 50.2809 191.046C50.5434 190.932 50.8378 190.933 51.0997 191.049L56.3543 193.374L61.5054 180.339C61.6151 180.062 61.8242 179.842 62.0867 179.728C62.3492 179.615 62.6436 179.615 62.9055 179.731L70.1312 182.929L80.0671 157.785L80.1833 157.837L70.1987 183.103L62.8569 179.854C62.7425 179.803 62.6198 179.777 62.4958 179.777C62.3719 179.776 62.249 179.801 62.1343 179.851C62.0196 179.901 61.9152 179.974 61.8273 180.067C61.7393 180.159 61.6694 180.269 61.6216 180.39L56.4218 193.548L51.0511 191.171C50.8201 191.07 50.5603 191.069 50.3287 191.169C50.0971 191.27 49.9126 191.464 49.8158 191.708L45.6707 202.197Z" fill="#3F3D56"/>
<path d="M49.6208 190.275C50.1075 190.275 50.502 189.858 50.502 189.343C50.502 188.828 50.1075 188.41 49.6208 188.41C49.1341 188.41 48.7395 188.828 48.7395 189.343C48.7395 189.858 49.1341 190.275 49.6208 190.275Z" fill="#3F3D56"/>
<path d="M61.1457 178.936C61.6324 178.936 62.0269 178.518 62.0269 178.003C62.0269 177.488 61.6324 177.071 61.1457 177.071C60.659 177.071 60.2644 177.488 60.2644 178.003C60.2644 178.518 60.659 178.936 61.1457 178.936Z" fill="#3F3D56"/>
<path d="M79.0916 157.478C79.5783 157.478 79.9729 157.061 79.9729 156.546C79.9729 156.03 79.5783 155.613 79.0916 155.613C78.6049 155.613 78.2103 156.03 78.2103 156.546C78.2103 157.061 78.6049 157.478 79.0916 157.478Z" fill="#3F3D56"/>
<path d="M29.7648 188.285C30.2229 188.043 30.6255 187.699 30.9442 187.275C31.2628 186.851 31.4898 186.359 31.6091 185.832C31.7285 185.306 31.7372 184.758 31.6349 184.227C31.5325 183.697 31.3214 183.196 31.0165 182.761L33.6338 155.68H27.9775L25.8974 182.124C25.241 182.714 24.812 183.539 24.6918 184.442C24.5716 185.344 24.7685 186.263 25.2452 187.022C25.7219 187.781 26.4453 188.329 27.2783 188.562C28.1113 188.795 28.996 188.696 29.7648 188.285Z" fill="#FFB8B8"/>
<path d="M34.9581 140.735C39.3778 140.735 42.9607 136.943 42.9607 132.266C42.9607 127.589 39.3778 123.798 34.9581 123.798C30.5383 123.798 26.9554 127.589 26.9554 132.266C26.9554 136.943 30.5383 140.735 34.9581 140.735Z" fill="#FFB8B8"/>
<path d="M36.4648 171.452C36.1445 171.451 35.833 171.34 35.5782 171.135C35.3234 170.929 35.1394 170.641 35.0543 170.314C34.4131 167.849 32.745 163.681 30.0964 157.925C29.4988 156.624 29.1678 155.204 29.1253 153.758C29.0828 152.312 29.3296 150.873 29.8496 149.535C30.3696 148.198 31.151 146.991 32.1426 145.995C33.1341 144.999 34.3135 144.237 35.6032 143.757C36.8254 143.301 38.1217 143.108 39.4155 143.191C40.7093 143.274 41.9742 143.63 43.1355 144.239C44.2968 144.849 45.3308 145.698 46.1764 146.738C47.022 147.777 47.662 148.986 48.0585 150.292C50.1114 157.103 50.0123 164.399 49.8744 167.219C49.8573 167.559 49.7354 167.883 49.5274 168.143C49.3194 168.402 49.0369 168.582 48.7229 168.655L36.7793 171.416C36.676 171.44 36.5706 171.452 36.4648 171.452Z" fill="#FF6584"/>
<path d="M48.031 251.87H52.0253L53.9258 235.565L48.0303 235.565L48.031 251.87Z" fill="#FFB8B8"/>
<path d="M59.7294 255.795L47.175 255.795L47.1748 250.662L54.8786 250.662C55.5156 250.662 56.1463 250.795 56.7348 251.052C57.3234 251.31 57.8581 251.688 58.3085 252.165C58.759 252.642 59.1163 253.208 59.3601 253.83C59.6038 254.453 59.7293 255.121 59.7294 255.795Z" fill="#2F2E41"/>
<path d="M8.08716 246.392L11.5878 248.428L20.6764 235.109L15.5104 232.103L8.08716 246.392Z" fill="#FFB8B8"/>
<path d="M16.5516 255.795L5.55029 249.395L7.88712 244.897L14.638 248.824C15.7653 249.48 16.6002 250.583 16.9591 251.89C17.318 253.198 17.1714 254.602 16.5516 255.795V255.795V255.795Z" fill="#2F2E41"/>
<path d="M47.8442 242.82C47.4882 242.82 47.1446 242.682 46.8773 242.433C46.61 242.185 46.4373 241.841 46.3916 241.468L41.3959 200.73C41.3738 200.55 41.2985 200.381 41.1807 200.249C41.0629 200.117 40.9086 200.028 40.7399 199.994C40.5712 199.96 40.3968 199.983 40.2414 200.061C40.086 200.138 39.9577 200.265 39.8748 200.424L19.0549 240.398C18.8831 240.724 18.6064 240.975 18.2749 241.103C17.9435 241.232 17.5795 241.23 17.249 241.099L12.7108 239.269C12.5283 239.196 12.3615 239.084 12.2202 238.942C12.079 238.799 11.9661 238.628 11.8882 238.438C11.8103 238.249 11.769 238.045 11.7667 237.838C11.7644 237.631 11.8012 237.426 11.8748 237.235L26.2973 199.741C26.3338 199.646 26.3585 199.546 26.3709 199.444C28.3244 183.444 33.2946 175.308 34.7713 173.195C34.8792 173.04 34.9501 172.859 34.9783 172.669C35.0064 172.479 34.9908 172.284 34.9329 172.101L34.7299 171.457C34.6488 171.201 34.6321 170.927 34.6816 170.662C34.7311 170.398 34.845 170.151 35.012 169.948C40.3332 163.534 49.6078 167.034 49.7009 167.07L49.7473 167.088L49.7764 167.13C60.176 182.223 56.3309 231.244 55.4546 240.918C55.4218 241.282 55.2687 241.621 55.0222 241.877C54.7757 242.132 54.4517 242.287 54.1076 242.314L47.9581 242.816C47.9198 242.819 47.8819 242.82 47.8442 242.82Z" fill="#2F2E41"/>
<path d="M66.0695 142.104C66.0295 142.29 66.0034 142.479 65.9915 142.669L51.9949 151.214L48.5928 149.142L44.9659 154.166L50.6517 158.455C51.1111 158.801 51.6642 158.981 52.2281 158.966C52.792 158.951 53.3362 158.744 53.7791 158.374L68.212 146.325C68.8634 146.58 69.5727 146.619 70.2457 146.437C70.9186 146.255 71.5233 145.861 71.9793 145.306C72.4353 144.752 72.7209 144.064 72.7983 143.333C72.8757 142.603 72.7411 141.865 72.4124 141.217C72.0837 140.57 71.5766 140.044 70.9584 139.709C70.3402 139.374 69.6402 139.246 68.9517 139.342C68.2631 139.438 67.6185 139.754 67.1037 140.247C66.5888 140.741 66.2281 141.388 66.0695 142.104V142.104Z" fill="#FFB8B8"/>
<path d="M51.5269 151.619L47.0033 157.823C46.8745 158 46.7114 158.145 46.5249 158.249C46.3384 158.352 46.133 158.413 45.9226 158.425C45.7122 158.437 45.5018 158.401 45.3058 158.319C45.1097 158.238 44.9325 158.112 44.7864 157.952L39.6652 152.324C38.8155 151.622 38.2635 150.592 38.1302 149.46C37.997 148.328 38.2934 147.186 38.9544 146.285C39.6154 145.384 40.5872 144.797 41.6566 144.653C42.7259 144.509 43.8057 144.819 44.6591 145.516L51.0821 149.317C51.2659 149.426 51.4255 149.575 51.5498 149.755C51.6741 149.935 51.7604 150.142 51.8026 150.36C51.8448 150.579 51.842 150.804 51.7945 151.021C51.7469 151.239 51.6557 151.442 51.5269 151.619V151.619Z" fill="#FF6584"/>
<path d="M33.994 162.398L26.7067 161.006C26.4993 160.966 26.3025 160.88 26.1295 160.752C25.9566 160.625 25.8117 160.46 25.7045 160.268C25.5974 160.076 25.5307 159.861 25.5089 159.64C25.487 159.418 25.5106 159.194 25.578 158.982L27.9405 151.58C28.138 150.459 28.7477 149.466 29.636 148.819C30.5242 148.173 31.6185 147.925 32.6788 148.131C33.7392 148.337 34.6791 148.98 35.2924 149.918C35.9057 150.857 36.1424 152.014 35.9505 153.137L35.7201 160.92C35.7134 161.143 35.6614 161.362 35.5677 161.562C35.4739 161.761 35.3406 161.937 35.1768 162.078C35.013 162.218 34.8226 162.319 34.6185 162.374C34.4144 162.43 34.2014 162.438 33.994 162.398H33.994Z" fill="#FF6584"/>
<path d="M36.2249 130.318C38.2818 131.808 40.9825 133.339 43.0832 131.753C43.7403 131.223 44.2177 130.483 44.4439 129.642C44.6701 128.802 44.6329 127.906 44.3379 127.09C43.3319 124.045 40.5682 122.705 37.9254 121.678C34.4898 120.343 30.7489 119.28 27.2021 120.237C23.6554 121.193 20.5208 124.827 21.1611 128.64C21.676 131.707 24.4096 134.259 24.0215 137.347C23.631 140.454 20.3287 142.09 17.4133 142.645C14.4979 143.2 11.2355 143.379 9.14029 145.595C6.46751 148.422 7.13495 153.475 9.64993 156.46C12.1649 159.444 15.9602 160.797 19.6377 161.717C24.5103 162.936 29.7804 163.576 34.4081 161.554C39.0359 159.531 42.6371 154.087 41.2965 148.982C40.7303 146.826 39.3963 145.003 38.1072 143.229C36.818 141.455 35.5126 139.6 35.0208 137.423C34.611 135.609 34.9143 133.503 36.051 132.143C36.2578 131.904 36.3879 131.603 36.4227 131.282C36.4575 130.96 36.3951 130.636 36.2447 130.354L36.2249 130.318Z" fill="#2F2E41"/>
<path d="M66.7261 256H0.846734C0.754774 256 0.666581 255.961 0.601556 255.893C0.53653 255.824 0.5 255.73 0.5 255.633C0.5 255.536 0.53653 255.442 0.601556 255.374C0.666581 255.305 0.754774 255.266 0.846734 255.266H66.7261C66.8181 255.266 66.9063 255.305 66.9713 255.374C67.0363 255.442 67.0729 255.536 67.0729 255.633C67.0729 255.73 67.0363 255.824 66.9713 255.893C66.9063 255.961 66.8181 256 66.7261 256Z" fill="#CCCCCC"/>
</g>
</g>
<defs>
<clipPath id="clip0">
<rect width="350" height="256" fill="white" transform="translate(0.5)"/>
</clipPath>
<clipPath id="clip1">
<rect width="345" height="256" fill="white" transform="translate(0.5)"/>
</clipPath>
</defs>
</svg>
