<svg width="375" height="215" viewBox="0 0 375 215" fill="none" xmlns="http://www.w3.org/2000/svg">
<path d="M55.6078 58.7108C56.235 52.675 57.9672 46.7722 60.7353 41.238C61.5068 39.6979 62.3559 38.1917 63.2827 36.7195C63.3292 36.6425 63.3404 36.5523 63.3139 36.4681C63.2875 36.3839 63.2255 36.3122 63.1409 36.268C63.0564 36.2239 62.956 36.2108 62.8609 36.2315C62.7658 36.2522 62.6834 36.3052 62.6312 36.3791C59.2608 41.7415 56.8996 47.5625 55.642 53.6093C55.2922 55.2979 55.0293 56.9984 54.8532 58.7108C54.8085 59.1427 55.5634 59.14 55.6078 58.7108V58.7108Z" fill="#E6E6E6"/>
<path d="M65.1105 37.8009C67.7499 37.8009 69.8896 35.8889 69.8896 33.5302C69.8896 31.1716 67.7499 29.2595 65.1105 29.2595C62.471 29.2595 60.3313 31.1716 60.3313 33.5302C60.3313 35.8889 62.471 37.8009 65.1105 37.8009Z" fill="#E6E6E6"/>
<path d="M56.0967 58.8242C56.5036 54.9085 57.6274 51.0791 59.4232 47.4888C59.9237 46.4897 60.4745 45.5126 61.0758 44.5574C61.1059 44.5075 61.1132 44.449 61.096 44.3944C61.0789 44.3397 61.0386 44.2932 60.9838 44.2645C60.929 44.2359 60.8638 44.2274 60.8021 44.2409C60.7404 44.2543 60.687 44.2886 60.6531 44.3366C58.4666 47.8155 56.9347 51.5918 56.1189 55.5146C55.892 56.6101 55.7214 57.7133 55.6072 58.8242C55.5782 59.1044 56.0679 59.1027 56.0967 58.8242V58.8242Z" fill="#E6E6E6"/>
<path d="M62.2616 45.259C63.974 45.259 65.3621 44.0186 65.3621 42.4884C65.3621 40.9582 63.974 39.7178 62.2616 39.7178C60.5493 39.7178 59.1611 40.9582 59.1611 42.4884C59.1611 44.0186 60.5493 45.259 62.2616 45.259Z" fill="#E6E6E6"/>
<path d="M55.4789 58.5627C53.1046 55.2516 51.3549 51.6145 50.2997 47.7967C50.0066 46.7338 49.7684 45.6606 49.5851 44.577C49.5745 44.521 49.54 44.4709 49.4889 44.4373C49.4377 44.4036 49.3739 44.389 49.311 44.3966C49.248 44.4041 49.1908 44.4332 49.1515 44.4778C49.1121 44.5223 49.0935 44.5787 49.0998 44.6352C49.7702 48.58 51.1616 52.3995 53.2184 55.9409C53.7935 56.9294 54.4183 57.893 55.0929 58.8317C55.2629 59.0686 55.6478 58.7981 55.4789 58.5627Z" fill="#E6E6E6"/>
<path d="M49.0961 45.0645C50.8084 45.0645 52.1966 43.8241 52.1966 42.2939C52.1966 40.7638 50.8084 39.5233 49.0961 39.5233C47.3837 39.5233 45.9956 40.7638 45.9956 42.2939C45.9956 43.8241 47.3837 45.0645 49.0961 45.0645Z" fill="#E6E6E6"/>
<path d="M45.9607 61.014V55.5704C45.9614 55.0292 46.2023 54.5103 46.6305 54.1276C47.0588 53.7449 47.6394 53.5296 48.2451 53.529H62.4591C63.0648 53.5296 63.6455 53.7449 64.0737 54.1276C64.502 54.5103 64.7429 55.0292 64.7435 55.5704V61.014C64.7429 61.5552 64.502 62.0741 64.0737 62.4568C63.6455 62.8395 63.0648 63.0548 62.4591 63.0554H48.2451C47.6394 63.0548 47.0588 62.8395 46.6305 62.4568C46.2023 62.0741 45.9614 61.5552 45.9607 61.014Z" fill="#F2F2F2"/>
<path d="M61.9513 26.3109H55.8596C55.2539 26.3103 54.6733 26.095 54.245 25.7123C53.8168 25.3296 53.5759 24.8107 53.5752 24.2695V2.04136C53.5759 1.50015 53.8168 0.981271 54.245 0.598574C54.6733 0.215877 55.2539 0.00060994 55.8596 0H61.9513C62.557 0.00060994 63.1376 0.215877 63.5659 0.598574C63.9942 0.981271 64.2351 1.50015 64.2357 2.04136V24.2695C64.2351 24.8107 63.9942 25.3296 63.5659 25.7123C63.1376 26.095 62.557 26.3103 61.9513 26.3109Z" fill="#F2F2F2"/>
<path d="M63.982 4.30954H53.8291V6.12408H63.982V4.30954Z" fill="#CCCCCC"/>
<path d="M63.982 18.3723H53.8291V20.1868H63.982V18.3723Z" fill="#CCCCCC"/>
<path d="M77.1808 26.3109H71.0891C70.4834 26.3103 69.9028 26.095 69.4745 25.7123C69.0463 25.3296 68.8054 24.8107 68.8047 24.2695V2.04136C68.8054 1.50015 69.0463 0.981271 69.4745 0.598574C69.9028 0.215877 70.4834 0.00060994 71.0891 0H77.1808C77.7865 0.00060994 78.3671 0.215877 78.7954 0.598574C79.2237 0.981271 79.4646 1.50015 79.4652 2.04136V24.2695C79.4646 24.8107 79.2237 25.3296 78.7954 25.7123C78.3671 26.095 77.7865 26.3103 77.1808 26.3109V26.3109Z" fill="#F2F2F2"/>
<path d="M79.2112 4.30954H69.0583V6.12408H79.2112V4.30954Z" fill="#CCCCCC"/>
<path d="M79.2112 18.3723H69.0583V20.1868H79.2112V18.3723Z" fill="#CCCCCC"/>
<path d="M92.4101 26.3109H86.3183C85.7127 26.3103 85.132 26.095 84.7038 25.7123C84.2755 25.3296 84.0346 24.8107 84.0339 24.2695V2.04136C84.0346 1.50015 84.2755 0.981271 84.7038 0.598574C85.132 0.215877 85.7127 0.00060994 86.3183 0H92.4101C93.0157 0.00060994 93.5964 0.215877 94.0246 0.598574C94.4529 0.981271 94.6938 1.50015 94.6945 2.04136V24.2695C94.6938 24.8107 94.4529 25.3296 94.0246 25.7123C93.5964 26.095 93.0157 26.3103 92.4101 26.3109V26.3109Z" fill="#F2F2F2"/>
<path d="M94.4408 4.30954H84.2878V6.12408H94.4408V4.30954Z" fill="#CCCCCC"/>
<path d="M94.4408 18.3723H84.2878V20.1868H94.4408V18.3723Z" fill="#CCCCCC"/>
<path d="M100.532 63.0554H94.4407C93.835 63.0548 93.2544 62.8395 92.8261 62.4568C92.3978 62.0741 92.1569 61.5552 92.1562 61.014V38.7859C92.1569 38.2447 92.3978 37.7258 92.8261 37.3431C93.2544 36.9604 93.835 36.7451 94.4407 36.7445H100.532C101.138 36.7451 101.719 36.9604 102.147 37.3431C102.575 37.7258 102.816 38.2447 102.817 38.7859V61.014C102.816 61.5552 102.575 62.0741 102.147 62.4568C101.719 62.8395 101.138 63.0548 100.532 63.0554Z" fill="#F2F2F2"/>
<path d="M102.563 41.054H92.4102V42.8686H102.563V41.054Z" fill="#CCCCCC"/>
<path d="M102.563 55.1167H92.4102V56.9313H102.563V55.1167Z" fill="#CCCCCC"/>
<path d="M115.762 63.0554H109.67C109.064 63.0548 108.484 62.8395 108.056 62.4568C107.627 62.0741 107.386 61.5552 107.386 61.014V38.7859C107.386 38.2447 107.627 37.7258 108.056 37.3431C108.484 36.9604 109.064 36.7451 109.67 36.7445H115.762C116.368 36.7451 116.948 36.9604 117.376 37.3431C117.805 37.7258 118.046 38.2447 118.046 38.7859V61.014C118.046 61.5552 117.805 62.0741 117.376 62.4568C116.948 62.8395 116.368 63.0548 115.762 63.0554Z" fill="#F2F2F2"/>
<path d="M117.792 41.054H107.639V42.8686H117.792V41.054Z" fill="#CCCCCC"/>
<path d="M117.792 55.1167H107.639V56.9313H117.792V55.1167Z" fill="#CCCCCC"/>
<path d="M130.991 63.0554H124.899C124.294 63.0548 123.713 62.8395 123.285 62.4568C122.857 62.0741 122.616 61.5552 122.615 61.014V38.7859C122.616 38.2447 122.857 37.7258 123.285 37.3431C123.713 36.9604 124.294 36.7451 124.899 36.7445H130.991C131.597 36.7451 132.177 36.9604 132.606 37.3431C133.034 37.7258 133.275 38.2447 133.276 38.7859V61.014C133.275 61.5552 133.034 62.0741 132.606 62.4568C132.177 62.8395 131.597 63.0548 130.991 63.0554Z" fill="#F2F2F2"/>
<path d="M133.022 41.054H122.869V42.8686H133.022V41.054Z" fill="#CCCCCC"/>
<path d="M133.022 55.1167H122.869V56.9313H133.022V55.1167Z" fill="#CCCCCC"/>
<path d="M60.4284 99.7999H54.3366C53.731 99.7992 53.1504 99.584 52.7221 99.2013C52.2938 98.8186 52.0529 98.2997 52.0522 97.7585V75.5303C52.0529 74.9891 52.2938 74.4702 52.7221 74.0876C53.1504 73.7049 53.731 73.4896 54.3366 73.489H60.4284C61.034 73.4896 61.6147 73.7049 62.043 74.0876C62.4712 74.4702 62.7121 74.9891 62.7128 75.5303V97.7585C62.7121 98.2997 62.4712 98.8186 62.043 99.2013C61.6147 99.584 61.034 99.7992 60.4284 99.7999V99.7999Z" fill="#F2F2F2"/>
<path d="M62.459 77.7985H52.3062V79.6131H62.459V77.7985Z" fill="#CCCCCC"/>
<path d="M62.459 91.8612H52.3062V93.6758H62.459V91.8612Z" fill="#CCCCCC"/>
<path d="M75.6579 99.7999H69.5661C68.9605 99.7992 68.3798 99.584 67.9516 99.2013C67.5233 98.8186 67.2824 98.2997 67.2817 97.7585V75.5303C67.2824 74.9891 67.5233 74.4702 67.9516 74.0876C68.3798 73.7049 68.9605 73.4896 69.5661 73.489H75.6579C76.2635 73.4896 76.8442 73.7049 77.2725 74.0876C77.7007 74.4702 77.9416 74.9891 77.9423 75.5303V97.7585C77.9416 98.2997 77.7007 98.8186 77.2725 99.2013C76.8442 99.584 76.2635 99.7992 75.6579 99.7999V99.7999Z" fill="#F2F2F2"/>
<path d="M77.6885 77.7985H67.5356V79.6131H77.6885V77.7985Z" fill="#CCCCCC"/>
<path d="M77.6885 91.8612H67.5356V93.6758H77.6885V91.8612Z" fill="#CCCCCC"/>
<path d="M90.8871 99.7999H84.7954C84.1897 99.7992 83.6091 99.584 83.1808 99.2013C82.7526 98.8186 82.5117 98.2997 82.511 97.7585V75.5303C82.5117 74.9891 82.7526 74.4702 83.1808 74.0876C83.6091 73.7049 84.1897 73.4896 84.7954 73.489H90.8871C91.4928 73.4896 92.0734 73.7049 92.5017 74.0876C92.93 74.4702 93.1708 74.9891 93.1715 75.5303V97.7585C93.1708 98.2997 92.93 98.8186 92.5017 99.2013C92.0734 99.584 91.4928 99.7992 90.8871 99.7999V99.7999Z" fill="#F2F2F2"/>
<path d="M92.9178 77.7985H82.7649V79.6131H92.9178V77.7985Z" fill="#CCCCCC"/>
<path d="M92.9178 91.8612H82.7649V93.6758H92.9178V91.8612Z" fill="#CCCCCC"/>
<path d="M107.64 26.3109H101.548C100.942 26.3103 100.362 26.095 99.9333 25.7123C99.505 25.3296 99.2641 24.8107 99.2634 24.2695V2.04136C99.2641 1.50015 99.505 0.981271 99.9333 0.598574C100.362 0.215877 100.942 0.00060994 101.548 0H107.64C108.245 0.00060994 108.826 0.215877 109.254 0.598574C109.682 0.981271 109.923 1.50015 109.924 2.04136V24.2695C109.923 24.8107 109.682 25.3296 109.254 25.7123C108.826 26.095 108.245 26.3103 107.64 26.3109Z" fill="#F2F2F2"/>
<path d="M109.67 4.30954H99.5171V6.12408H109.67V4.30954Z" fill="#CCCCCC"/>
<path d="M109.67 18.3723H99.5171V20.1868H109.67V18.3723Z" fill="#CCCCCC"/>
<path d="M122.869 26.3109H116.777C116.171 26.3103 115.591 26.095 115.163 25.7123C114.734 25.3296 114.493 24.8107 114.493 24.2695V2.04136C114.493 1.50015 114.734 0.981271 115.163 0.598574C115.591 0.215877 116.171 0.00060994 116.777 0H122.869C123.474 0.00060994 124.055 0.215877 124.483 0.598574C124.912 0.981271 125.153 1.50015 125.153 2.04136V24.2695C125.153 24.8107 124.912 25.3296 124.483 25.7123C124.055 26.095 123.474 26.3103 122.869 26.3109V26.3109Z" fill="#F2F2F2"/>
<path d="M124.899 4.30954H114.747V6.12408H124.899V4.30954Z" fill="#CCCCCC"/>
<path d="M124.899 18.3723H114.747V20.1868H124.899V18.3723Z" fill="#CCCCCC"/>
<path d="M138.098 26.3109H132.007C131.401 26.3103 130.82 26.095 130.392 25.7123C129.964 25.3296 129.723 24.8107 129.722 24.2695V2.04136C129.723 1.50015 129.964 0.981271 130.392 0.598574C130.82 0.215877 131.401 0.00060994 132.007 0H138.098C138.704 0.00060994 139.285 0.215877 139.713 0.598574C140.141 0.981271 140.382 1.50015 140.383 2.04136V24.2695C140.382 24.8107 140.141 25.3296 139.713 25.7123C139.285 26.095 138.704 26.3103 138.098 26.3109Z" fill="#F2F2F2"/>
<path d="M140.129 4.30954H129.976V6.12408H140.129V4.30954Z" fill="#CCCCCC"/>
<path d="M140.129 18.3723H129.976V20.1868H140.129V18.3723Z" fill="#CCCCCC"/>
<path d="M153.328 26.3109H147.236C146.63 26.3103 146.049 26.095 145.621 25.7123C145.193 25.3296 144.952 24.8107 144.951 24.2695V2.04136C144.952 1.50015 145.193 0.981271 145.621 0.598574C146.049 0.215877 146.63 0.00060994 147.236 0H153.328C153.933 0.00060994 154.514 0.215877 154.942 0.598574C155.37 0.981271 155.611 1.50015 155.612 2.04136V24.2695C155.611 24.8107 155.37 25.3296 154.942 25.7123C154.514 26.095 153.933 26.3103 153.328 26.3109Z" fill="#F2F2F2"/>
<path d="M155.358 4.30954H145.205V6.12408H155.358V4.30954Z" fill="#CCCCCC"/>
<path d="M155.358 18.3723H145.205V20.1868H155.358V18.3723Z" fill="#CCCCCC"/>
<path d="M176.142 26.9913H31.4627C31.3281 26.9913 31.199 26.9435 31.1038 26.8585C31.0086 26.7734 30.9551 26.658 30.9551 26.5377C30.9551 26.4174 31.0086 26.302 31.1038 26.2169C31.199 26.1318 31.3281 26.0841 31.4627 26.0841H176.142C176.276 26.0841 176.405 26.1318 176.5 26.2169C176.596 26.302 176.649 26.4174 176.649 26.5377C176.649 26.658 176.596 26.7734 176.5 26.8585C176.405 26.9435 176.276 26.9913 176.142 26.9913Z" fill="#CCCCCC"/>
<path d="M176.142 63.7358H31.4627C31.3281 63.7358 31.199 63.688 31.1038 63.6029C31.0086 63.5179 30.9551 63.4025 30.9551 63.2822C30.9551 63.1619 31.0086 63.0465 31.1038 62.9614C31.199 62.8763 31.3281 62.8286 31.4627 62.8286H176.142C176.276 62.8286 176.405 62.8763 176.5 62.9614C176.596 63.0465 176.649 63.1619 176.649 63.2822C176.649 63.4025 176.596 63.5179 176.5 63.6029C176.405 63.688 176.276 63.7358 176.142 63.7358Z" fill="#CCCCCC"/>
<path d="M176.142 100.48H31.4627C31.3281 100.48 31.199 100.433 31.1038 100.347C31.0086 100.262 30.9551 100.147 30.9551 100.027C30.9551 99.9064 31.0086 99.791 31.1038 99.7059C31.199 99.6208 31.3281 99.573 31.4627 99.573H176.142C176.276 99.573 176.405 99.6208 176.5 99.7059C176.596 99.791 176.649 99.9064 176.649 100.027C176.649 100.147 176.596 100.262 176.5 100.347C176.405 100.433 176.276 100.48 176.142 100.48Z" fill="#CCCCCC"/>
<path d="M167.573 171.693C167.573 168.186 152.8 165.342 134.576 165.342C116.353 165.342 101.58 168.186 101.58 171.693C101.58 173.941 107.653 175.915 116.809 177.043V211.84C116.809 212.622 117.157 213.372 117.775 213.925C118.394 214.478 119.233 214.788 120.109 214.788C120.984 214.788 121.823 214.478 122.442 213.925C123.061 213.372 123.408 212.622 123.408 211.84V177.67C126.897 177.912 130.656 178.044 134.576 178.044C138.497 178.044 142.256 177.912 145.745 177.67V211.84C145.745 212.622 146.092 213.372 146.711 213.925C147.33 214.478 148.169 214.788 149.044 214.788C149.92 214.788 150.759 214.478 151.378 213.925C151.996 213.372 152.344 212.622 152.344 211.84V177.043C161.5 175.915 167.573 173.941 167.573 171.693Z" fill="#CCCCCC"/>
<path d="M161.224 209.083H167.448L170.409 187.632H161.223L161.224 209.083Z" fill="#A0616A"/>
<path d="M179.451 214.247L159.891 214.248L159.891 207.495L171.894 207.494C173.898 207.494 175.82 208.205 177.237 209.472C178.655 210.738 179.451 212.456 179.451 214.247V214.247L179.451 214.247Z" fill="#2F2E41"/>
<path d="M170.94 205.98L176.878 204.314L172.516 183.055L163.752 185.512L170.94 205.98Z" fill="#A0616A"/>
<path d="M190.06 206.03L171.397 211.264L169.135 204.82L180.587 201.609C182.499 201.072 184.572 201.237 186.348 202.066C188.125 202.895 189.46 204.321 190.06 206.03V206.03Z" fill="#2F2E41"/>
<path d="M166.776 196.106L155.391 169.4C152.837 169.936 131.417 174.172 124.242 167.346C121.784 165.006 121.304 161.617 122.817 157.272L127.004 152.57L127.134 152.576C128.717 152.651 165.936 154.515 168.488 164.547C170.639 173.005 174.567 188.774 175.72 193.405C175.837 193.885 175.757 194.386 175.495 194.818C175.233 195.25 174.806 195.583 174.292 195.757L169.713 197.291C169.458 197.377 169.188 197.421 168.915 197.421C168.452 197.421 167.999 197.295 167.617 197.06C167.235 196.825 166.942 196.493 166.776 196.106Z" fill="#2F2E41"/>
<path d="M160.177 199.282L148.792 172.576C146.237 173.112 124.817 177.347 117.643 170.521C115.184 168.182 114.705 164.792 116.218 160.447L120.405 155.745L120.535 155.752C122.118 155.826 159.337 157.69 161.888 167.722C164.039 176.18 167.968 191.949 169.121 196.581C169.238 197.061 169.158 197.562 168.895 197.994C168.633 198.425 168.206 198.758 167.692 198.932L163.114 200.466C162.858 200.552 162.588 200.596 162.316 200.596C161.852 200.596 161.4 200.47 161.018 200.236C160.636 200.001 160.343 199.668 160.177 199.282Z" fill="#2F2E41"/>
<path d="M175.562 135.263C175.394 135.464 175.244 135.677 175.113 135.899L150.076 138.256L146.472 133.841L138.303 137.83L145.382 148.546L176.088 141.549C176.863 142.224 177.849 142.672 178.916 142.834C179.983 142.996 181.079 142.864 182.06 142.455C183.04 142.047 183.858 141.381 184.405 140.547C184.952 139.712 185.202 138.749 185.121 137.785C185.04 136.821 184.633 135.902 183.954 135.149C183.274 134.397 182.354 133.848 181.316 133.574C180.279 133.3 179.172 133.315 178.145 133.617C177.117 133.919 176.216 134.493 175.562 135.263V135.263Z" fill="#A0616A"/>
<path d="M116.057 161.857C115.714 161.636 115.446 161.335 115.283 160.987C115.12 160.639 115.069 160.257 115.133 159.884C116.546 151.563 114.921 139.644 113.309 131.109C112.979 129.377 113.107 127.601 113.683 125.922C114.26 124.242 115.269 122.707 116.629 121.439C117.989 120.17 119.662 119.204 121.515 118.618C123.368 118.031 125.349 117.841 127.299 118.062C128.996 118.262 130.676 118.558 132.331 118.948C135.08 119.567 137.511 121.003 139.226 123.02C140.94 125.037 141.835 127.515 141.764 130.048C141.523 138.283 143.394 148.559 144.21 152.594C144.266 152.871 144.257 153.156 144.184 153.43C144.111 153.704 143.976 153.961 143.787 154.187C143.601 154.409 143.366 154.595 143.095 154.732C142.825 154.869 142.525 154.953 142.216 154.98C133.175 155.805 123.426 159.744 118.42 162.019C118.098 162.168 117.742 162.246 117.379 162.247C116.904 162.245 116.44 162.109 116.057 161.857V161.857Z" fill="#FBBF24"/>
<path d="M140.46 140.395C140.18 140.297 139.925 140.15 139.71 139.964C139.494 139.777 139.322 139.554 139.204 139.307L134.162 128.9C133.857 128.271 133.693 127.595 133.681 126.909C133.668 126.224 133.807 125.543 134.089 124.906C134.371 124.268 134.791 123.687 135.324 123.194C135.858 122.702 136.495 122.308 137.199 122.036C137.903 121.764 138.66 121.618 139.427 121.608C140.194 121.597 140.956 121.721 141.669 121.974C142.382 122.227 143.032 122.602 143.583 123.079C144.133 123.557 144.573 124.126 144.877 124.756L149.919 135.163C150.159 135.66 150.168 136.222 149.945 136.725C149.722 137.228 149.285 137.632 148.73 137.847L142.208 140.37C141.933 140.477 141.637 140.535 141.336 140.539C141.036 140.543 140.738 140.494 140.46 140.395H140.46Z" fill="#FBBF24"/>
<path d="M151.703 134.356C151.535 134.557 151.384 134.77 151.254 134.992L126.217 137.349L122.612 132.933L114.444 136.923L121.523 147.638L152.229 140.642C153.004 141.317 153.99 141.765 155.057 141.927C156.123 142.089 157.22 141.957 158.2 141.548C159.181 141.139 159.999 140.474 160.546 139.639C161.093 138.805 161.342 137.842 161.262 136.878C161.181 135.914 160.774 134.994 160.094 134.242C159.415 133.49 158.495 132.94 157.457 132.667C156.419 132.393 155.313 132.408 154.285 132.71C153.257 133.011 152.357 133.586 151.703 134.356V134.356Z" fill="#A0616A"/>
<path d="M116.6 140.849C116.321 140.75 116.066 140.604 115.851 140.417C115.635 140.23 115.463 140.007 115.345 139.761L110.303 129.353C109.998 128.725 109.834 128.048 109.822 127.363C109.809 126.678 109.948 125.997 110.23 125.359C110.512 124.722 110.932 124.14 111.465 123.648C111.999 123.156 112.636 122.762 113.34 122.49C114.044 122.218 114.801 122.072 115.568 122.061C116.335 122.051 117.096 122.175 117.809 122.428C118.523 122.68 119.173 123.056 119.723 123.533C120.274 124.01 120.714 124.58 121.018 125.209L126.06 135.617C126.3 136.114 126.309 136.675 126.086 137.178C125.863 137.682 125.426 138.085 124.871 138.301L118.349 140.824C118.074 140.931 117.777 140.988 117.477 140.993C117.177 140.997 116.879 140.948 116.6 140.849H116.6Z" fill="#FBBF24"/>
<path d="M126.371 114.521C133.257 114.521 138.839 109.533 138.839 103.379C138.839 97.226 133.257 92.2377 126.371 92.2377C119.485 92.2377 113.903 97.226 113.903 103.379C113.903 109.533 119.485 114.521 126.371 114.521Z" fill="#A0616A"/>
<path d="M117.457 111.026C117.403 110.886 117.386 110.737 117.407 110.591C117.428 110.444 117.486 110.304 117.577 110.18C117.668 110.057 117.79 109.954 117.932 109.879C118.074 109.804 118.234 109.759 118.399 109.747C118.737 109.764 119.067 109.841 119.371 109.975C119.674 110.109 119.944 110.296 120.164 110.525C120.615 110.99 121.14 111.393 121.723 111.722C122.326 111.993 123.144 111.955 123.488 111.437C123.811 110.95 123.59 110.299 123.394 109.734C122.897 108.297 122.618 106.806 122.567 105.302C122.51 103.623 122.775 101.872 123.815 100.562C125.157 98.8727 127.557 98.2312 129.829 98.2777C132.1 98.3242 134.334 98.9508 136.584 99.3468C137.361 99.4835 138.273 99.5534 138.793 99.0155C139.345 98.4436 139.142 97.5179 138.907 96.7456C138.298 94.7417 137.651 92.6699 136.235 91.0515C134.703 89.3698 132.515 88.2692 130.112 87.9712C127.805 87.7158 125.462 87.9535 123.278 88.6646C119.719 89.667 116.587 91.6167 114.301 94.2527C111.945 97.0561 110.927 100.579 111.47 104.051C112 107.076 113.793 109.808 116.488 111.697L117.457 111.026Z" fill="#2F2E41"/>
<path d="M69.85 137.849C70.4772 131.813 72.2094 125.911 74.9775 120.376C75.749 118.836 76.5981 117.33 77.5249 115.858C77.5714 115.781 77.5826 115.691 77.5561 115.606C77.5297 115.522 77.4677 115.45 77.3831 115.406C77.2986 115.362 77.1982 115.349 77.1031 115.37C77.008 115.391 76.9256 115.444 76.8734 115.517C73.503 120.88 71.1418 126.701 69.8842 132.748C69.5344 134.436 69.2714 136.137 69.0954 137.849C69.0507 138.281 69.8056 138.278 69.85 137.849V137.849Z" fill="#3F3D56"/>
<path d="M79.3524 116.939C81.9919 116.939 84.1316 115.027 84.1316 112.669C84.1316 110.31 81.9919 108.398 79.3524 108.398C76.7129 108.398 74.5732 110.31 74.5732 112.669C74.5732 115.027 76.7129 116.939 79.3524 116.939Z" fill="#FBBF24"/>
<path d="M70.3389 137.963C70.7458 134.047 71.8696 130.217 73.6654 126.627C74.1659 125.628 74.7167 124.651 75.318 123.696C75.3481 123.646 75.3554 123.587 75.3382 123.533C75.3211 123.478 75.2808 123.432 75.226 123.403C75.1712 123.374 75.1061 123.366 75.0444 123.379C74.9826 123.393 74.9292 123.427 74.8953 123.475C72.7088 126.954 71.1769 130.73 70.3611 134.653C70.1341 135.748 69.9636 136.852 69.8494 137.963C69.8204 138.243 70.3101 138.241 70.3389 137.963V137.963Z" fill="#3F3D56"/>
<path d="M76.5035 124.397C78.2159 124.397 79.604 123.157 79.604 121.627C79.604 120.097 78.2159 118.856 76.5035 118.856C74.7912 118.856 73.4031 120.097 73.4031 121.627C73.4031 123.157 74.7912 124.397 76.5035 124.397Z" fill="#FBBF24"/>
<path d="M69.7208 137.701C67.3465 134.39 65.5968 130.753 64.5416 126.935C64.2486 125.872 64.0104 124.799 63.827 123.715C63.8164 123.659 63.7819 123.609 63.7308 123.576C63.6796 123.542 63.6159 123.527 63.5529 123.535C63.49 123.543 63.4328 123.572 63.3934 123.616C63.354 123.661 63.3355 123.717 63.3418 123.774C64.0122 127.718 65.4036 131.538 67.4603 135.079C68.0354 136.068 68.6602 137.031 69.3348 137.97C69.5048 138.207 69.8897 137.936 69.7208 137.701Z" fill="#3F3D56"/>
<path d="M63.338 124.203C65.0504 124.203 66.4385 122.962 66.4385 121.432C66.4385 119.902 65.0504 118.662 63.338 118.662C61.6257 118.662 60.2375 119.902 60.2375 121.432C60.2375 122.962 61.6257 124.203 63.338 124.203Z" fill="#FBBF24"/>
<path d="M60.2029 140.152V134.709C60.2036 134.168 60.4445 133.649 60.8727 133.266C61.301 132.883 61.8816 132.668 62.4873 132.667H76.7013C77.307 132.668 77.8876 132.883 78.3159 133.266C78.7442 133.649 78.985 134.168 78.9857 134.709V140.152C78.985 140.694 78.7442 141.212 78.3159 141.595C77.8876 141.978 77.307 142.193 76.7013 142.194H62.4873C61.8816 142.193 61.301 141.978 60.8727 141.595C60.4445 141.212 60.2036 140.694 60.2029 140.152Z" fill="#CCCCCC"/>
<path d="M187.626 138.578H147.522C146.54 138.578 145.745 139.289 145.745 140.165C145.745 141.042 146.54 141.753 147.522 141.753H187.626C188.607 141.753 189.402 141.042 189.402 140.165C189.402 139.289 188.607 138.578 187.626 138.578Z" fill="#CCCCCC"/>
<path d="M214.531 141.753H169.35C168.475 141.752 167.637 141.441 167.018 140.889C166.399 140.336 166.052 139.586 166.051 138.804V116.576C166.052 115.795 166.399 115.045 167.018 114.492C167.637 113.94 168.475 113.629 169.35 113.628H214.531C215.405 113.629 216.244 113.94 216.863 114.492C217.481 115.045 217.829 115.795 217.83 116.576V138.804C217.829 139.586 217.481 140.336 216.863 140.889C216.244 141.441 215.405 141.752 214.531 141.753V141.753Z" fill="#CCCCCC"/>
<path d="M191.94 130.412C193.623 130.412 194.986 129.194 194.986 127.69C194.986 126.187 193.623 124.969 191.94 124.969C190.258 124.969 188.895 126.187 188.895 127.69C188.895 129.194 190.258 130.412 191.94 130.412Z" fill="white"/>
<path d="M329.512 171.693C329.512 168.186 314.739 165.342 296.515 165.342C278.292 165.342 263.519 168.186 263.519 171.693C263.519 173.941 269.592 175.915 278.748 177.043V211.84C278.748 212.622 279.096 213.372 279.714 213.925C280.333 214.478 281.172 214.788 282.048 214.788C282.923 214.788 283.762 214.478 284.381 213.925C285 213.372 285.347 212.622 285.347 211.84V177.67C288.836 177.912 292.595 178.044 296.515 178.044C300.436 178.044 304.195 177.912 307.684 177.67V211.84C307.684 212.622 308.031 213.372 308.65 213.925C309.269 214.478 310.108 214.788 310.983 214.788C311.858 214.788 312.698 214.478 313.317 213.925C313.935 213.372 314.283 212.622 314.283 211.84V177.043C323.439 175.915 329.512 173.941 329.512 171.693Z" fill="#CCCCCC"/>
<path d="M300.164 113.563C308.014 113.563 314.378 107.876 314.378 100.861C314.378 93.8462 308.014 88.1595 300.164 88.1595C292.314 88.1595 285.95 93.8462 285.95 100.861C285.95 107.876 292.314 113.563 300.164 113.563Z" fill="#2F2E41"/>
<path d="M264.791 209.537H258.568L255.607 188.086H264.792L264.791 209.537Z" fill="#FFB8B8"/>
<path d="M254.122 207.948H266.125V214.701H246.565C246.565 213.814 246.76 212.936 247.14 212.117C247.52 211.297 248.076 210.553 248.778 209.926C249.48 209.299 250.313 208.801 251.23 208.462C252.147 208.122 253.13 207.948 254.122 207.948V207.948Z" fill="#2F2E41"/>
<path d="M255.076 206.433L249.138 204.768L253.5 183.508L262.264 185.966L255.076 206.433Z" fill="#FFB8B8"/>
<path d="M245.429 202.062L256.881 205.274L254.618 211.717L235.955 206.484C236.253 205.638 236.733 204.852 237.37 204.172C238.007 203.492 238.788 202.93 239.667 202.52C240.547 202.109 241.509 201.858 242.497 201.779C243.486 201.701 244.482 201.797 245.429 202.062V202.062Z" fill="#2F2E41"/>
<path d="M257.101 197.874C256.828 197.874 256.558 197.83 256.303 197.744L251.724 196.21C251.21 196.036 250.783 195.703 250.521 195.272C250.259 194.84 250.179 194.339 250.296 193.859C251.448 189.227 255.377 173.458 257.528 165.001C260.08 154.968 297.298 153.104 298.882 153.03L299.012 153.024L303.199 157.725C304.711 162.071 304.232 165.46 301.773 167.8C294.599 174.625 273.179 170.39 270.625 169.854L259.24 196.56C259.074 196.946 258.78 197.279 258.399 197.514C258.017 197.748 257.564 197.874 257.101 197.874V197.874Z" fill="#2F2E41"/>
<path d="M263.7 201.05C263.428 201.05 263.157 201.006 262.902 200.92L258.323 199.386C257.809 199.212 257.382 198.879 257.12 198.447C256.858 198.016 256.778 197.514 256.895 197.034C258.048 192.403 261.976 176.634 264.128 168.176C266.679 158.144 303.898 156.28 305.481 156.205L305.611 156.199L309.798 160.901C311.311 165.246 310.831 168.635 308.373 170.975C301.198 177.8 279.778 173.565 277.224 173.029L265.839 199.735C265.673 200.122 265.38 200.455 264.998 200.689C264.616 200.924 264.164 201.05 263.7 201.05V201.05Z" fill="#2F2E41"/>
<path d="M250.453 135.717C250.621 135.918 250.772 136.131 250.902 136.353L275.94 138.71L279.544 134.294L287.712 138.284L280.633 148.999L249.927 142.003C249.152 142.678 248.166 143.126 247.099 143.288C246.033 143.45 244.936 143.318 243.956 142.909C242.975 142.5 242.157 141.835 241.61 141C241.063 140.166 240.814 139.203 240.894 138.239C240.975 137.275 241.382 136.355 242.062 135.603C242.741 134.851 243.661 134.301 244.699 134.027C245.737 133.754 246.843 133.769 247.871 134.071C248.899 134.372 249.799 134.947 250.453 135.717V135.717Z" fill="#FFB8B8"/>
<path d="M308.636 162.7C308.274 162.699 307.917 162.621 307.596 162.473C302.589 160.198 292.84 156.258 283.8 155.434C283.491 155.407 283.191 155.322 282.92 155.185C282.65 155.049 282.414 154.863 282.229 154.64C282.039 154.415 281.904 154.157 281.831 153.883C281.759 153.609 281.75 153.325 281.805 153.047C282.621 149.012 284.492 138.737 284.251 130.501C284.18 127.969 285.076 125.491 286.79 123.473C288.504 121.456 290.936 120.02 293.684 119.402V119.402C295.339 119.012 297.02 118.716 298.717 118.515C300.667 118.295 302.648 118.485 304.5 119.072C306.353 119.658 308.027 120.624 309.387 121.892C310.747 123.161 311.755 124.696 312.332 126.375C312.909 128.054 313.037 129.831 312.707 131.563C311.095 140.097 309.47 152.017 310.882 160.338C310.947 160.711 310.895 161.093 310.732 161.441C310.569 161.789 310.302 162.09 309.959 162.311C309.575 162.562 309.112 162.699 308.636 162.7V162.7Z" fill="#FBBF24"/>
<path d="M284.715 140.993C284.403 140.993 284.094 140.935 283.808 140.824L277.286 138.301C276.73 138.085 276.293 137.682 276.07 137.178C275.847 136.675 275.857 136.114 276.097 135.617L281.138 125.209C281.443 124.58 281.882 124.01 282.433 123.533C282.983 123.056 283.634 122.68 284.347 122.428C285.06 122.175 285.822 122.051 286.589 122.061C287.356 122.072 288.113 122.218 288.817 122.49C289.521 122.762 290.158 123.156 290.691 123.648C291.225 124.14 291.645 124.722 291.927 125.359C292.209 125.997 292.347 126.678 292.335 127.363C292.322 128.048 292.159 128.725 291.853 129.353L286.812 139.761C286.634 140.126 286.341 140.438 285.969 140.657C285.596 140.875 285.161 140.992 284.715 140.993V140.993Z" fill="#FBBF24"/>
<path d="M299.644 114.975C306.53 114.975 312.113 109.987 312.113 103.833C312.113 97.6797 306.53 92.6913 299.644 92.6913C292.758 92.6913 287.176 97.6797 287.176 103.833C287.176 109.987 292.758 114.975 299.644 114.975Z" fill="#FFB8B8"/>
<path d="M286.952 98.359C292.858 101.581 299.516 103.541 306.408 104.088L304.357 101.892C305.85 102.385 307.421 102.664 309.012 102.718C310.601 102.696 312.266 102.149 313.168 100.98C313.57 100.398 313.809 99.7389 313.865 99.0572C313.92 98.3755 313.79 97.692 313.486 97.065C312.861 95.8143 311.888 94.7274 310.66 93.9076C308.483 92.369 305.915 91.3355 303.182 90.8992C300.45 90.4629 297.64 90.6373 295.002 91.407C293.192 91.8903 291.571 92.8193 290.325 94.0877C289.143 95.3907 286.868 96.5517 287.473 98.1394L286.952 98.359Z" fill="#2F2E41"/>
<path d="M301.741 89.3676C297.808 85.804 293.049 83.0541 287.799 81.3114C284.429 80.1957 280.761 79.5064 277.238 80.14C273.714 80.7736 270.382 82.9517 269.399 86.0408C268.596 88.5668 269.426 91.2865 270.673 93.6644C271.92 96.0422 273.586 98.2472 274.594 100.714C275.624 103.231 275.933 105.937 275.495 108.588C275.057 111.239 273.884 113.75 272.085 115.893C270.285 118.036 267.915 119.744 265.189 120.861C262.464 121.978 259.469 122.469 256.477 122.29C259.939 122.705 263.13 124.158 266.514 124.932C269.897 125.706 273.891 125.653 276.406 123.487C279.066 121.195 279.119 117.469 278.991 114.168L278.417 99.4502C278.32 96.9482 278.236 94.366 279.246 92.0307C280.256 89.6955 282.656 87.6506 285.457 87.6718C287.58 87.6879 289.459 88.8373 291.162 89.9708C292.865 91.1044 294.667 92.3137 296.782 92.4823C298.897 92.6509 301.312 91.2523 301.154 89.3602" fill="#2F2E41"/>
<path d="M243.785 127.511L272.494 128.117L276.653 155.542L250.14 156.073L243.785 127.511Z" fill="#E6E6E6"/>
<path d="M274.312 134.81C274.481 135.011 274.631 135.223 274.762 135.446L299.799 137.803L303.403 133.387L311.571 137.377L304.492 148.092L273.786 141.096C273.012 141.771 272.025 142.219 270.959 142.381C269.892 142.543 268.795 142.41 267.815 142.002C266.834 141.593 266.016 140.927 265.469 140.093C264.923 139.259 264.673 138.296 264.754 137.331C264.834 136.367 265.242 135.448 265.921 134.696C266.601 133.943 267.521 133.394 268.558 133.12C269.596 132.846 270.702 132.861 271.73 133.163C272.758 133.465 273.659 134.039 274.312 134.81V134.81Z" fill="#FFB8B8"/>
<path d="M308.574 141.447C308.262 141.446 307.953 141.389 307.667 141.277L301.145 138.754C300.59 138.539 300.152 138.135 299.93 137.632C299.707 137.129 299.716 136.567 299.956 136.07L304.998 125.663C305.302 125.034 305.742 124.464 306.292 123.987C306.843 123.509 307.493 123.134 308.206 122.881C308.919 122.629 309.681 122.504 310.448 122.515C311.215 122.526 311.972 122.671 312.676 122.943C313.38 123.216 314.017 123.609 314.551 124.102C315.084 124.594 315.504 125.176 315.786 125.813C316.068 126.45 316.207 127.131 316.194 127.817C316.182 128.502 316.018 129.178 315.713 129.807L310.671 140.215C310.494 140.58 310.201 140.891 309.828 141.11C309.456 141.329 309.02 141.446 308.574 141.447V141.447Z" fill="#FBBF24"/>
<path d="M249.558 141.299H47.5155C46.6404 141.299 45.8011 141.61 45.1823 142.163C44.5635 142.716 44.2158 143.466 44.2158 144.248C44.2158 145.03 44.5635 145.78 45.1823 146.333C45.8011 146.886 46.6404 147.197 47.5155 147.197H53.3534V211.386C53.3534 212.168 53.7011 212.918 54.3199 213.471C54.9387 214.024 55.778 214.335 56.6531 214.335C57.5283 214.335 58.3675 214.024 58.9864 213.471C59.6052 212.918 59.9528 212.168 59.9528 211.386V152.863L96.9455 212.778C97.384 213.454 98.1045 213.946 98.9489 214.147C99.7934 214.349 100.693 214.243 101.45 213.852C102.206 213.462 102.759 212.819 102.986 212.065C103.213 211.31 103.096 210.506 102.661 209.829L63.9904 147.197H240.674V147.235L202.028 209.829C201.59 210.507 201.472 211.311 201.698 212.067C201.925 212.822 202.478 213.466 203.236 213.857C203.993 214.248 204.894 214.354 205.739 214.152C206.585 213.949 207.305 213.455 207.743 212.778L240.674 159.44V211.386C240.674 212.168 241.022 212.918 241.641 213.471C242.26 214.024 243.099 214.335 243.974 214.335C244.849 214.335 245.689 214.024 246.307 213.471C246.926 212.918 247.274 212.168 247.274 211.386V148.752L248.234 147.197H249.558C250.433 147.197 251.273 146.886 251.891 146.333C252.51 145.78 252.858 145.03 252.858 144.248C252.858 143.466 252.51 142.716 251.891 142.163C251.273 141.61 250.433 141.299 249.558 141.299V141.299Z" fill="#3F3D56"/>
<path d="M374.395 215H-0.395839C-0.555844 215 -0.709134 214.942 -0.822111 214.841C-0.935088 214.74 -0.998535 214.603 -0.998535 214.46C-0.998535 214.317 -0.935088 214.18 -0.822111 214.078C-0.709134 213.977 -0.555844 213.92 -0.395839 213.92H374.395C374.556 213.92 374.709 213.977 374.823 214.078C374.936 214.179 375 214.317 375 214.46C375 214.603 374.936 214.741 374.823 214.842C374.709 214.943 374.556 215 374.395 215V215Z" fill="#3F3D56"/>
</svg>
