<svg width="656" height="498" viewBox="0 0 656 498" fill="none" xmlns="http://www.w3.org/2000/svg">
<g >
<path d="M262.598 103.274H260.208V37.8598C260.208 32.888 259.228 27.9649 257.324 23.3715C255.421 18.7782 252.63 14.6045 249.112 11.0889C245.594 7.57329 241.417 4.78456 236.821 2.88192C232.224 0.979283 227.298 4.21252e-06 222.323 0H83.6388C73.5909 -1.91417e-05 63.9545 3.98875 56.8495 11.0888C49.7445 18.1889 45.753 27.8187 45.7529 37.8597V396.726C45.7529 401.697 46.7329 406.621 48.6368 411.214C50.5407 415.807 53.3314 419.981 56.8494 423.497C60.3674 427.012 64.5439 429.801 69.1405 431.704C73.737 433.606 78.6635 434.585 83.6387 434.585H222.322C232.37 434.586 242.007 430.597 249.112 423.497C256.217 416.397 260.208 406.767 260.208 396.726V149.836H262.598V103.274Z" fill="#3F3D56"/>
<path d="M223.851 9.84981H205.749C206.581 11.8894 206.899 14.1023 206.674 16.2936C206.449 18.4849 205.688 20.5872 204.459 22.4155C203.229 24.2437 201.569 25.7418 199.623 26.7776C197.678 27.8135 195.508 28.3554 193.303 28.3555H113.853C111.649 28.3554 109.478 27.8135 107.533 26.7776C105.588 25.7418 103.927 24.2438 102.698 22.4155C101.468 20.5872 100.707 18.4849 100.482 16.2936C100.258 14.1024 100.575 11.8894 101.408 9.84981H84.4998C80.7843 9.8498 77.1053 10.5811 73.6726 12.002C70.24 13.4228 67.121 15.5054 64.4938 18.1308C61.8666 20.7563 59.7825 23.8731 58.3607 27.3034C56.9389 30.7336 56.207 34.4102 56.207 38.1231V396.462C56.207 400.175 56.9389 403.852 58.3607 407.282C59.7825 410.712 61.8665 413.829 64.4938 416.455C67.121 419.08 70.24 421.163 73.6726 422.583C77.1052 424.004 80.7843 424.736 84.4997 424.736H223.851C227.567 424.736 231.246 424.004 234.678 422.583C238.111 421.163 241.23 419.08 243.857 416.455C246.485 413.829 248.569 410.712 249.99 407.282C251.412 403.852 252.144 400.175 252.144 396.462V38.1231C252.144 34.4102 251.412 30.7336 249.99 27.3034C248.569 23.8731 246.485 20.7563 243.857 18.1308C241.23 15.5054 238.111 13.4228 234.678 12.002C231.246 10.5811 227.567 9.8498 223.851 9.84981Z" fill="white"/>
<path d="M307.049 434.647H1.30248C1.08965 434.647 0.885537 434.563 0.735042 434.412C0.584547 434.262 0.5 434.058 0.5 433.845C0.5 433.633 0.584547 433.429 0.735042 433.278C0.885537 433.128 1.08965 433.043 1.30248 433.043H307.049C307.262 433.043 307.466 433.128 307.616 433.278C307.767 433.429 307.851 433.633 307.851 433.845C307.851 434.058 307.767 434.262 307.616 434.412C307.466 434.563 307.262 434.647 307.049 434.647Z" fill="#CBCBCB"/>
<path d="M154.176 277.212C191.602 277.212 221.943 246.893 221.943 209.492C221.943 172.091 191.602 141.772 154.176 141.772C116.749 141.772 86.4092 172.091 86.4092 209.492C86.4092 246.893 116.749 277.212 154.176 277.212Z" fill="#FBBF24"/>
<path d="M147.46 235.325C145.936 235.327 144.452 234.835 143.232 233.921L143.156 233.864L127.23 221.689C126.493 221.124 125.874 220.42 125.409 219.615C124.944 218.811 124.642 217.923 124.52 217.003C124.398 216.082 124.459 215.146 124.699 214.249C124.94 213.352 125.354 212.51 125.92 211.773C126.485 211.036 127.19 210.418 127.995 209.953C128.8 209.488 129.688 209.186 130.61 209.065C131.531 208.943 132.467 209.004 133.365 209.244C134.263 209.484 135.105 209.898 135.842 210.464L146.158 218.369L170.535 186.589C171.1 185.852 171.805 185.234 172.609 184.769C173.413 184.305 174.302 184.003 175.223 183.881C176.144 183.76 177.08 183.821 177.977 184.061C178.875 184.301 179.716 184.715 180.453 185.28L180.455 185.281L180.304 185.491L180.459 185.281C181.947 186.424 182.92 188.109 183.165 189.968C183.411 191.826 182.908 193.706 181.768 195.195L153.096 232.558C152.433 233.419 151.58 234.116 150.604 234.594C149.627 235.073 148.554 235.32 147.467 235.317L147.46 235.325Z" fill="white"/>
<path d="M557.621 441.303C558.446 439.971 559.416 438.735 560.515 437.618C560.968 437.149 561.446 436.706 561.938 436.276C564.935 433.611 568.587 431.791 572.521 431.005C576.454 430.218 580.526 430.492 584.318 431.799C588.11 433.107 591.485 435.399 594.096 438.442C596.707 441.485 598.461 445.168 599.175 449.113C602.485 436.881 593.869 424.834 585.207 415.579C576.541 406.328 566.635 396.18 566.685 383.503C566.709 376.45 570.162 370.157 575.375 365.492C575.536 365.351 575.697 365.209 575.861 365.073C582.162 359.676 590.269 356.853 598.562 357.167C613.969 357.992 627.421 368.34 636.764 380.614C651.801 400.363 658.391 428.086 647.863 450.567C638.603 470.34 618.854 482.082 598.699 491.521C595.885 492.84 593.076 494.118 590.272 495.357C590.254 495.362 590.234 495.375 590.215 495.38C590.08 495.439 589.945 495.499 589.819 495.56C589.24 495.815 588.661 496.07 588.088 496.322L588.354 496.495L589.182 497.032C588.895 496.858 588.611 496.689 588.323 496.515C588.238 496.462 588.147 496.413 588.062 496.36C578.163 490.424 568.126 484.145 561.287 474.878C554.194 465.257 551.343 451.475 557.621 441.303Z" fill="#F1F1F1"/>
<path d="M623.668 418.959C625.86 423.942 627.313 429.218 627.981 434.62C628.507 439.438 628.31 444.306 627.395 449.065C625.429 458.844 621.142 468.009 614.894 475.787C610.181 481.693 604.739 486.979 598.699 491.521C595.884 492.84 593.076 494.118 590.272 495.357C590.254 495.362 590.233 495.375 590.215 495.38C590.08 495.439 589.945 495.499 589.818 495.56C589.24 495.815 588.661 496.07 588.088 496.322L588.353 496.495L589.182 497.032C588.895 496.858 588.61 496.689 588.323 496.515C588.238 496.462 588.147 496.413 588.062 496.36C590.241 488.745 590.561 480.719 588.996 472.955C587.431 465.191 584.027 457.914 579.068 451.735C574.083 445.635 567.726 440.797 560.515 437.619C560.968 437.149 561.445 436.707 561.938 436.276C564.716 437.551 567.375 439.068 569.885 440.811C578.863 447.012 585.605 455.937 589.112 466.264C592.243 475.633 592.634 485.701 590.239 495.285C590.736 494.96 591.235 494.627 591.72 494.295C600.942 488.081 609.441 480.617 615.843 471.464C621.365 463.728 624.898 454.755 626.132 445.333C627.359 435.041 624.782 424.921 620.184 415.738C615.107 405.913 608.709 396.829 601.169 388.737C593.595 380.421 585.031 373.063 575.669 366.826C575.458 366.684 575.31 366.466 575.255 366.218C575.2 365.969 575.243 365.71 575.375 365.492C575.475 365.294 575.65 365.143 575.861 365.073C575.968 365.046 576.08 365.043 576.188 365.065C576.296 365.087 576.398 365.133 576.486 365.2C577.642 365.97 578.788 366.748 579.92 367.549C589.349 374.22 597.911 382.036 605.411 390.817C612.658 399.282 619.254 408.686 623.668 418.959Z" fill="white"/>
<path d="M421.838 31.4442C429.786 31.4442 436.23 25.0052 436.23 17.0623C436.23 9.11937 429.786 2.68037 421.838 2.68037C413.89 2.68037 407.446 9.11937 407.446 17.0623C407.446 25.0052 413.89 31.4442 421.838 31.4442Z" fill="#F1F1F1"/>
<path d="M600.792 223.908C605.638 223.908 609.566 219.982 609.566 215.14C609.566 210.297 605.638 206.371 600.792 206.371C595.946 206.371 592.018 210.297 592.018 215.14C592.018 219.982 595.946 223.908 600.792 223.908Z" fill="#F1F1F1"/>
<path d="M343.997 247.966C348.843 247.966 352.771 244.04 352.771 239.198C352.771 234.355 348.843 230.429 343.997 230.429C339.151 230.429 335.223 234.355 335.223 239.198C335.223 244.04 339.151 247.966 343.997 247.966Z" fill="#F1F1F1"/>
<path d="M348.951 498H654.697C654.91 498 655.114 497.915 655.265 497.765C655.415 497.615 655.5 497.411 655.5 497.198C655.5 496.985 655.415 496.781 655.265 496.631C655.114 496.481 654.91 496.396 654.697 496.396H348.951C348.738 496.396 348.534 496.481 348.383 496.631C348.233 496.781 348.148 496.985 348.148 497.198C348.148 497.411 348.233 497.615 348.383 497.765C348.534 497.915 348.738 498 348.951 498Z" fill="#CBCBCB"/>
<path d="M620.956 77.4947C621.358 74.6463 620.699 71.7498 619.107 69.3538C617.514 66.9579 615.097 65.2291 612.314 64.495C609.53 63.761 606.574 64.0726 604.006 65.3709C601.437 66.6693 599.434 68.8641 598.377 71.5394L573.566 99.9634L580.846 120.282L605.798 87.0695C607.426 87.5907 609.149 87.7488 610.845 87.5327C612.541 87.3166 614.169 86.7315 615.614 85.8186C617.059 84.9057 618.286 83.6873 619.209 82.2491C620.132 80.811 620.729 79.1881 620.956 77.4947Z" fill="#FFB7B7"/>
<path d="M518.113 188.092L600.471 100.258L589.363 82.6087L486.064 169.91L518.113 188.092Z" fill="#3F3D56"/>
<path d="M499.731 134.725C515.686 134.725 528.621 121.799 528.621 105.855C528.621 89.9108 515.686 76.9855 499.731 76.9855C483.776 76.9855 470.842 89.9108 470.842 105.855C470.842 121.799 483.776 134.725 499.731 134.725Z" fill="#2F2E41"/>
<path d="M502.054 89.5463C508.27 83.2467 515.793 78.3854 524.092 75.3047C529.42 73.3324 535.219 72.1138 540.788 73.2339C546.358 74.3539 551.625 78.2043 553.179 83.6652C554.449 88.1307 553.137 92.9386 551.166 97.1421C549.194 101.346 546.561 105.244 544.967 109.604C543.34 114.053 542.85 118.838 543.543 123.524C544.236 128.21 546.089 132.649 548.934 136.438C551.779 140.227 555.526 143.246 559.835 145.22C564.143 147.195 568.877 148.063 573.607 147.746C568.134 148.479 563.09 151.049 557.741 152.417C552.392 153.785 546.078 153.692 542.103 149.863C537.898 145.811 537.813 139.223 538.017 133.389C538.319 124.716 538.621 116.043 538.924 107.37C539.078 102.947 539.21 98.3825 537.613 94.2542C536.017 90.126 532.224 86.511 527.795 86.5486C524.439 86.577 521.468 88.609 518.776 90.6128C516.084 92.6166 513.236 94.7546 509.892 95.0526C506.549 95.3507 502.732 92.8782 502.982 89.5333L502.054 89.5463Z" fill="#2F2E41"/>
<path d="M390.008 299.7C387.234 300.47 384.275 300.197 381.69 298.932C379.104 297.667 377.073 295.498 375.981 292.837C374.889 290.175 374.812 287.206 375.765 284.491C376.717 281.777 378.633 279.506 381.149 278.108L406.107 249.813L427.216 254.371L397.526 283.431C398.256 284.976 398.638 286.663 398.645 288.371C398.653 290.08 398.285 291.769 397.568 293.32C396.851 294.871 395.803 296.246 394.497 297.349C393.19 298.451 391.658 299.254 390.008 299.7H390.008Z" fill="#FFB7B7"/>
<path d="M472.119 198.402L409.914 276.43L390.953 267.731L464.067 153.981L472.119 198.402Z" fill="#3F3D56"/>
<path d="M422.485 434.015L407.66 433.782L409.443 484.277H422.483L422.485 434.015Z" fill="#FFB7B7"/>
<path d="M425.809 480.022L400.128 480.021H400.127C395.787 480.021 391.624 481.745 388.555 484.811C385.486 487.878 383.762 492.038 383.762 496.375V496.907L425.808 496.908L425.809 480.022Z" fill="#2F2E41"/>
<path d="M520.642 420.622L504.447 431.012L536.842 469.958L547.815 462.918L520.642 420.622Z" fill="#FFB7B7"/>
<path d="M548.314 457.542L526.704 471.406L526.703 471.407C523.051 473.75 520.48 477.448 519.555 481.685C518.631 485.923 519.429 490.354 521.774 494.004L522.061 494.452L557.443 471.752L548.314 457.542Z" fill="#2F2E41"/>
<path d="M526.412 266.434C526.412 266.434 490.429 147.004 478.865 145.39C467.301 143.777 448.669 176.035 448.669 176.035C424.511 206.836 399.602 306.606 399.602 306.606C399.602 306.606 441.127 309.203 471.483 325.342C501.838 341.481 537.662 324.525 537.662 324.525L526.412 266.434Z" fill="#3F3D56"/>
<path opacity="0.1" d="M526.412 266.434C526.412 266.434 490.429 147.004 478.865 145.39C467.301 143.777 453.401 176.362 453.401 176.362C441.364 226.082 399.602 306.606 399.602 306.606C399.602 306.606 441.127 309.203 471.483 325.342C501.838 341.481 537.662 324.525 537.662 324.525L526.412 266.434Z" fill="black"/>
<path d="M496.89 230.702V290.714L503.958 377.647L539.267 443.405L522.415 455.434L474.266 392.883L455.222 330.775L425.314 468.265L402.845 466.661L418.45 276.033L448.062 222.376L496.89 230.702Z" fill="#2F2E41"/>
<path d="M460.61 172.656C449.375 183.883 459.808 195.912 459.808 195.912L446.968 224.781L497.524 238.414L515.192 159.522L503.155 146.691C479.08 145.889 479.067 145.39 479.067 145.39C474.849 149.515 460.61 172.656 460.61 172.656Z" fill="#FBBF24"/>
<path d="M517.229 151.348C514.932 149.655 512.323 148.433 509.551 147.754C506.779 147.075 503.9 146.953 501.08 147.394C498.26 147.835 495.556 148.831 493.124 150.323C490.693 151.816 488.581 153.776 486.913 156.09C474.203 173.775 462.451 202.331 478.644 237.945C504.643 295.13 527.269 324.405 536.467 324.402C536.868 324.405 537.268 324.342 537.649 324.216C543.31 322.297 551.496 312.723 552.978 304.286C553.509 301.266 553.383 297.06 549.769 294.172C539.388 285.875 520.753 260.04 514.939 226.036C511.727 207.247 517.957 190.132 523.749 179.083C526.196 174.512 526.911 169.212 525.765 164.156C524.619 159.1 521.687 154.626 517.508 151.554V151.554L517.229 151.348Z" fill="#3F3D56"/>
<path d="M501.218 131.888C511.524 126.259 515.311 113.347 509.677 103.048C504.044 92.7496 491.123 88.9647 480.817 94.5944C470.512 100.224 466.724 113.136 472.358 123.435C477.991 133.733 490.912 137.518 501.218 131.888Z" fill="#FFB7B7"/>
<path d="M461.109 111.635H491.817L492.132 107.229L493.706 111.635H498.435L499.059 102.903L502.179 111.635H511.328V111.202C511.321 105.123 508.902 99.2949 504.6 94.9964C500.299 90.6979 494.467 88.2799 488.384 88.2731H484.054C477.971 88.2799 472.139 90.6979 467.837 94.9964C463.536 99.2949 461.116 105.123 461.109 111.202V111.635Z" fill="#2F2E41"/>
<path d="M506.69 127.471L519.794 123.221V91.4203H495.042L495.655 92.0317C504.181 100.541 513.663 130.731 506.69 127.471Z" fill="#2F2E41"/>
</g>
<defs>
<clipPath >
<rect width="655" height="498" fill="white" transform="translate(0.5)"/>
</clipPath>
</defs>
</svg>
