<svg width="370" height="256" viewBox="0 0 370 256" fill="none" xmlns="http://www.w3.org/2000/svg">
<path d="M180.199 256C279.72 256 360.398 248.933 360.398 240.216C360.398 231.499 279.72 224.433 180.199 224.433C80.6779 224.433 0 231.499 0 240.216C0 248.933 80.6779 256 180.199 256Z" fill="#3F3D56"/>
<path opacity="0.1" d="M180.199 248.347C268.55 248.347 340.172 243.391 340.172 237.276C340.172 231.161 268.55 226.205 180.199 226.205C91.8487 226.205 20.2264 231.161 20.2264 237.276C20.2264 243.391 91.8487 248.347 180.199 248.347Z" fill="black"/>
<path d="M101.217 143.63H91.8254V242.646H101.217V143.63Z" fill="#3F3D56"/>
<path d="M175.409 141.024V143.63L22.3286 144.932V142.327L22.5447 142.229L49.564 129.95H163.2L175.409 141.024Z" fill="#3F3D56"/>
<path d="M148.174 125.39C148.174 125.39 114.365 127.344 125.635 133.207C136.904 139.07 148.174 129.298 148.174 129.298V125.39Z" fill="#FFB9B9"/>
<path opacity="0.1" d="M175.409 141.102V143.63L22.3286 144.932V142.327L22.5447 142.229L175.409 141.102Z" fill="black"/>
<path d="M198.888 93.4697L199.71 91.3312C199.71 91.3312 188.557 105.195 187.618 106.498C186.679 107.801 170.714 118.875 168.835 120.83C167.555 122.096 165.966 123.199 164.14 124.087H146.296C146.296 124.087 142.539 132.555 148.174 133.207C153.809 133.858 171.653 136.464 175.409 136.464C179.166 136.464 202.644 121.481 202.644 121.481L198.888 93.4697Z" fill="#FBBF24"/>
<path d="M202.644 187.927L197.01 242.646H202.644L209.218 186.624L202.644 187.927Z" fill="#3F3D56"/>
<path d="M271.202 181.412L265.567 236.132H271.202L277.776 180.109L271.202 181.412Z" fill="#3F3D56"/>
<path d="M281.533 187.927L275.898 242.646H281.533L288.107 186.624L281.533 187.927Z" fill="#3F3D56"/>
<path d="M194.192 182.715L188.557 237.435H194.192L200.766 181.412L194.192 182.715Z" fill="#3F3D56"/>
<path d="M303.133 113.012L287.168 192.487L192.314 189.881L192.952 182.546L194.192 168.384L267.445 170.989L279.654 113.012H303.133Z" fill="#3F3D56"/>
<path opacity="0.1" d="M303.133 113.013L287.168 192.487L192.314 189.881L192.952 182.546C212.75 183.073 279.654 180.11 279.654 180.11C279.654 169.713 292.821 129.012 298.137 113.013L303.133 113.013Z" fill="black"/>
<path d="M136.904 209.424C136.904 209.424 134.087 224.407 128.452 227.012C122.817 229.618 151.931 232.875 151.931 232.875L153.809 213.332L136.904 209.424Z" fill="#FFB9B9"/>
<path d="M231.758 215.938C231.758 215.938 236.454 219.847 237.393 222.452C238.332 225.058 252.419 226.361 252.419 226.361L262.75 218.544C262.75 218.544 249.602 210.727 245.845 210.727C242.089 210.727 231.758 215.938 231.758 215.938Z" fill="#FFB9B9"/>
<path d="M206.871 81.4183C219.319 81.4183 229.41 74.4186 229.41 65.7841C229.41 57.1495 219.319 50.1498 206.871 50.1498C194.422 50.1498 184.331 57.1495 184.331 65.7841C184.331 74.4186 194.422 81.4183 206.871 81.4183Z" fill="#FFB9B9"/>
<path d="M200.766 76.5326C200.766 76.5326 212.036 91.5154 210.158 94.1211C208.279 96.7268 234.575 81.744 234.575 81.744C234.575 81.744 225.184 71.3212 225.184 68.0641C225.184 64.8069 200.766 76.5326 200.766 76.5326Z" fill="#FFB9B9"/>
<path d="M211.097 153.401C211.097 153.401 138.783 145.584 135.965 163.824C133.148 182.064 122.817 205.515 121.878 207.469C120.939 209.424 152.87 220.498 156.626 216.589C160.383 212.681 166.957 181.412 165.079 178.807C163.2 176.201 162.261 172.944 166.018 173.595C169.775 174.247 211.097 180.11 219.549 178.155C228.002 176.201 249.602 150.144 249.602 150.144L211.097 153.401Z" fill="#2F2E41"/>
<path opacity="0.1" d="M211.097 153.401C211.097 153.401 138.783 145.584 135.965 163.824C133.148 182.064 122.817 205.515 121.878 207.469C120.939 209.424 152.87 220.498 156.626 216.589C160.383 212.681 166.957 181.412 165.079 178.807C163.2 176.201 162.261 172.944 166.018 173.595C169.775 174.247 211.097 180.11 219.549 178.155C228.002 176.201 249.602 150.144 249.602 150.144L211.097 153.401Z" fill="black"/>
<path d="M209.219 149.492L212.036 165.778C212.036 165.778 166.957 177.504 183.862 196.395C200.766 215.287 219.549 225.709 219.549 225.709C219.549 225.709 249.602 213.984 249.602 210.727C249.602 207.469 212.975 189.229 217.671 189.229C222.367 189.229 289.985 186.624 275.898 160.567C261.811 134.51 209.219 149.492 209.219 149.492Z" fill="#2F2E41"/>
<path d="M135.965 227.664C135.965 227.664 128.452 221.801 128.452 223.104C128.452 224.407 106.852 232.224 103.095 232.875C99.3386 233.527 93.7037 234.829 101.217 236.784C108.73 238.738 156.627 239.389 156.627 238.087C156.627 236.784 158.505 224.407 154.748 225.709C150.992 227.012 136.904 230.269 135.965 227.664Z" fill="#2F2E41"/>
<path d="M246.784 223.104C246.784 223.104 236.454 221.149 235.515 223.104C234.576 225.058 233.636 232.875 225.184 235.481C216.732 238.086 213.914 241.995 225.184 242.646C236.454 243.298 267.446 228.315 267.446 225.709C267.446 223.104 263.689 215.287 261.811 215.938C259.932 216.589 255.237 222.452 246.784 223.104Z" fill="#2F2E41"/>
<path d="M118.121 231.572H74.9207V243.298H118.121V231.572Z" fill="#3F3D56"/>
<path d="M234.576 77.8355C234.576 77.8355 231.06 71.3149 224.835 75.2266C218.61 79.1383 206.401 88.9097 206.401 88.9097C206.401 88.9097 198.888 90.864 196.071 94.1211C193.253 97.3783 193.253 118.875 198.888 126.041C204.523 133.207 204.523 145.584 206.401 148.841C208.28 152.098 206.401 155.355 212.975 155.355C219.549 155.355 209.219 150.144 230.819 155.355C252.419 160.567 276.837 167.081 278.715 162.521C280.594 157.961 275.898 155.355 278.715 153.401C281.533 151.447 278.715 150.795 276.837 146.235C274.959 141.675 273.08 141.024 272.141 135.161C271.202 129.298 272.141 123.435 270.263 120.83C268.385 118.224 268.385 114.315 268.385 107.801C268.385 101.287 262.75 88.2583 252.419 84.3497C242.089 80.4411 234.576 77.8355 234.576 77.8355Z" fill="#FBBF24"/>
<path d="M184.863 48.3993C190.098 44.8546 195.6 41.1958 202.569 39.6519C211.871 37.5913 222.241 39.7536 230.249 43.6293C231.976 44.4654 233.668 45.412 234.706 46.6834C235.658 47.8497 235.991 49.2032 236.293 50.527C237.356 55.189 238.228 59.9133 237.708 64.6194C237.188 69.3256 235.187 74.0558 231.009 77.7812C227.305 75.0358 224.462 71.7872 222.66 68.2407C222.185 67.3022 221.758 66.3133 220.797 65.5747C219.836 64.8362 218.145 64.4388 216.939 64.9772C215.263 65.7253 215.474 67.7231 213.705 68.3592C213.099 68.5498 212.421 68.5991 211.771 68.4998C207.159 67.9486 205.553 64.029 202.551 61.5383C198.127 57.8672 191.933 58.0995 185.886 57.0445C178.87 55.8202 180.607 51.2807 184.863 48.3993Z" fill="#2F2E41"/>
<path d="M146.721 136.676C157.383 136.676 166.026 135.373 166.026 133.765C166.026 132.157 157.383 130.854 146.721 130.854C136.059 130.854 127.416 132.157 127.416 133.765C127.416 135.373 136.059 136.676 146.721 136.676Z" fill="#D1D9EC"/>
<path d="M180.622 131.036C180.622 131.036 149.495 125.309 146.956 130.235C144.417 135.161 173.531 139.721 173.531 139.721H185.74L180.622 131.036Z" fill="#FFB9B9"/>
<path d="M245.845 88.2583C245.845 88.2583 231.758 95.424 228.001 105.847C224.245 116.27 221.427 127.344 221.427 127.344L178.227 131.252C178.227 131.252 174.47 141.675 180.105 142.327C185.74 142.978 228.001 144.932 234.575 142.327C241.149 139.721 263.689 107.15 262.75 103.893C261.811 100.635 259.932 88.9097 245.845 88.2583Z" fill="#FBBF24"/>
<path d="M77.4838 134.577L92.7437 135.427L114.503 134.447L114.125 134.422L93.9683 133.074C89.3526 131.898 92.5553 124.972 92.5553 124.972L77.1108 125.517L75.8825 125.561C70.419 134.447 77.4838 134.577 77.4838 134.577Z" fill="#D1D9EC"/>
<path opacity="0.1" d="M77.4838 134.577L92.7437 135.427L114.503 134.447L114.125 134.422L92.1315 134.969L77.3896 133.859C73.2073 133.095 75.6018 128.058 77.1108 125.517L75.8825 125.56C70.4191 134.447 77.4838 134.577 77.4838 134.577Z" fill="black"/>
<path d="M52.1914 71.3283L56.7617 117.295V122.843C56.9011 124.237 57.8569 126.665 59.8727 126.656L63.6171 124.428H131.029C132.19 124.423 128.288 123.248 128.173 122.447L132.9 120.735L127.953 87.029C127.875 86.4966 127.579 85.9908 127.1 85.5711C126.621 85.1514 125.98 84.8352 125.251 84.6599L58.2789 68.5735C55.9993 68.0259 53.6802 68.2207 52.2296 69.057C51.2348 69.6307 52.0765 70.1835 52.1914 71.3283Z" fill="#4C4C56"/>
<path d="M55.4285 118.098L56.0407 124.192C56.1077 124.864 56.5414 125.493 57.2533 125.95C57.9653 126.408 58.902 126.66 59.8727 126.656L61.2894 126.649L131.557 126.354C131.831 126.352 132.102 126.311 132.352 126.233C132.602 126.155 132.826 126.042 133.009 125.901C133.192 125.759 133.331 125.593 133.416 125.412C133.502 125.231 133.532 125.04 133.505 124.851L132.9 120.735L55.4285 118.098Z" fill="#DFE6F5"/>
<path d="M102.54 124.45C103.06 124.45 103.482 123.865 103.482 123.143C103.482 122.421 103.06 121.836 102.54 121.836C102.02 121.836 101.598 122.421 101.598 123.143C101.598 123.865 102.02 124.45 102.54 124.45Z" fill="white"/>
<path d="M68.1398 136.106C68.1398 136.106 48.9236 131.075 43.7428 134.734C43.7428 134.734 42.895 135.845 46.3803 136.106L60.4633 136.89C60.4633 136.89 66.2559 137.282 68.1398 136.106Z" fill="#D1D9EC"/>
<path d="M67.627 134.797C63.8521 133.728 52.4886 130.96 45.2185 134.022C45.2185 134.022 53.2633 133.404 57.684 135.177C62.1047 136.949 68.1399 136.106 68.1399 136.106L68.2302 135.995C68.3149 135.89 68.3666 135.774 68.3818 135.655C68.3969 135.535 68.3753 135.415 68.3182 135.302C68.2612 135.188 68.1701 135.085 68.0509 134.998C67.9317 134.911 67.7872 134.843 67.627 134.797V134.797Z" fill="#DFE6F5"/>
<path d="M50.7639 71.6509L56.0409 124.192C56.1078 124.864 56.5415 125.493 57.2534 125.95C57.9654 126.408 58.9021 126.66 59.8728 126.656L61.2895 126.649C60.318 126.004 59.4901 125.263 58.8329 124.45C58.8329 124.45 53.652 71.6562 53.2752 70.3494C53.1102 69.8586 52.7476 69.4104 52.2296 69.057C51.6971 69.3727 51.2848 69.7744 51.0292 70.2268C50.7736 70.6792 50.6825 71.1683 50.7639 71.6509V71.6509Z" fill="#DFE6F5"/>
<path opacity="0.1" d="M50.7639 71.6509L56.0409 124.192C56.1078 124.864 56.5415 125.493 57.2534 125.95C57.9654 126.408 58.9021 126.66 59.8728 126.656L61.2895 126.649C60.318 126.004 59.4901 125.263 58.8329 124.45C58.8329 124.45 53.652 71.6562 53.2752 70.3494C53.1102 69.8586 52.7476 69.4104 52.2296 69.057C51.6971 69.3727 51.2848 69.7744 51.0292 70.2268C50.7736 70.6792 50.6825 71.1683 50.7639 71.6509V71.6509Z" fill="black"/>
</svg>
