
<svg width="346" height="256" viewBox="0 0 346 256" fill="none" xmlns="http://www.w3.org/2000/svg">
<g >
<rect width="345" height="256" transform="translate(0.5)" fill="white"/>
<path opacity="0.1" d="M323.762 144.918C311.05 163.352 314.267 188.976 320.668 209.271C322.823 216.065 325.258 223.245 323.811 230.754C322.041 239.937 314.824 247.01 307.426 250.969C293.945 258.19 278.296 257.597 266.686 249.429C256.652 242.368 249.833 230.32 239.594 223.607C222.479 212.411 199.626 218.401 179.892 228.023C165.93 234.823 150.601 243.496 137.369 238.055C128.059 234.226 122.025 223.915 119.026 212.782C117.579 207.407 116.631 201.551 113.546 197.405C111.699 194.941 109.236 193.25 106.684 191.875C83.3751 179.19 52.6221 188.566 30.0708 174.302C14.8529 164.685 5.79848 145.351 2.41809 124.827C-0.9623 104.303 0.703266 82.4731 2.96302 60.9904C4.56701 45.7257 6.86678 29.3955 15.6995 17.1583C25.0433 4.21463 40.1997 -1.29703 53.5673 0.255256C66.9349 1.80754 78.6893 9.49479 88.9198 18.7759C101.706 30.3512 113.355 45.0312 129.589 49.0499C140.645 51.7954 152.559 49.2191 164.178 47.8627C183.605 45.6219 202.856 46.8684 221.977 48.3495C240.286 49.7682 258.712 51.4333 275.907 57.4822C288.074 61.7621 297.562 70.2863 308.969 75.9553C316.404 79.6505 324.685 80.2975 331.652 85.1562C340.236 91.1368 347.821 101.982 344.838 115.383C342.003 128.142 330.507 135.123 323.762 144.918Z" fill="#FBBF24"/>
<path opacity="0.1" d="M284.259 76.1067H271.67V94.4789H284.259V76.1067Z" fill="#FBBF24"/>
<path opacity="0.1" d="M283.034 77.8934H272.892V92.6921H283.034V77.8934Z" fill="#FBBF24"/>
<path opacity="0.1" d="M265.451 63.3441H246.117V81.7163H265.451V63.3441Z" fill="#FBBF24"/>
<path opacity="0.1" d="M263.57 65.1308H247.995V79.9295H263.57V65.1308Z" fill="#FBBF24"/>
<path opacity="0.1" d="M79.4897 36.0084H20.3944V37.525H79.4897V36.0084Z" fill="#FBBF24"/>
<path opacity="0.1" d="M79.4897 43.4255H20.3944V44.9422H79.4897V43.4255Z" fill="#FBBF24"/>
<path d="M126.122 134.343H120.085V199.385H126.122V134.343Z" fill="#D6D6E3"/>
<path d="M302.469 141.172V81.1761C302.47 79.5038 303.16 77.9004 304.387 76.7182C305.613 75.536 307.277 74.8719 309.012 74.8719V74.8719C310.744 74.8751 312.404 75.5406 313.629 76.7224C314.853 77.9042 315.541 79.5059 315.541 81.1761V153.786C315.541 155.459 314.852 157.063 313.625 158.246C312.398 159.429 310.734 160.093 308.999 160.093H268.481C266.746 160.093 265.082 159.429 263.855 158.246C262.628 157.063 261.938 155.459 261.938 153.786V153.786C261.938 152.114 262.628 150.509 263.855 149.327C265.082 148.144 266.746 147.479 268.481 147.479H295.927C297.662 147.479 299.326 146.815 300.553 145.632C301.78 144.449 302.469 142.845 302.469 141.172V141.172Z" fill="#AEBEE1"/>
<path d="M302.469 141.172V81.1761C302.47 79.5038 303.16 77.9004 304.387 76.7182C305.613 75.536 307.277 74.8719 309.012 74.8719V74.8719C310.744 74.8751 312.404 75.5406 313.629 76.7224C314.853 77.9042 315.541 79.5059 315.541 81.1761V153.786C315.541 155.459 314.852 157.063 313.625 158.246C312.398 159.429 310.734 160.093 308.999 160.093H268.481C266.746 160.093 265.082 159.429 263.855 158.246C262.628 157.063 261.938 155.459 261.938 153.786V153.786C261.938 152.114 262.628 150.509 263.855 149.327C265.082 148.144 266.746 147.479 268.481 147.479H295.927C297.662 147.479 299.326 146.815 300.553 145.632C301.78 144.449 302.469 142.845 302.469 141.172V141.172Z" fill="#535461"/>
<path d="M261.948 153.448C262.037 151.836 262.765 150.319 263.98 149.208C265.196 148.098 266.806 147.479 268.481 147.479H295.927C297.662 147.479 299.326 146.815 300.553 145.632C301.78 144.449 302.469 142.845 302.469 141.172V81.1761C302.468 79.555 303.114 77.9957 304.274 76.8219C305.434 75.648 307.018 74.9498 308.697 74.8719V153.448H261.948Z" fill="#D6D6E3"/>
<path d="M59.7646 143.196V83.2003C59.7646 81.5301 59.0774 79.9281 57.8539 78.7457C56.6303 77.5634 54.9702 76.8971 53.2378 76.8932V76.8932C51.5027 76.8932 49.8386 77.5577 48.6117 78.7405C47.3848 79.9233 46.6956 81.5275 46.6956 83.2003V155.811C46.6936 156.64 46.8613 157.462 47.1891 158.229C47.517 158.996 47.9986 159.693 48.6063 160.28C49.214 160.867 49.9359 161.333 50.7306 161.651C51.5254 161.969 52.3773 162.133 53.2378 162.133H93.7532C95.4883 162.133 97.1523 161.468 98.3792 160.285C99.6061 159.102 100.295 157.498 100.295 155.825V155.825C100.295 154.153 99.6061 152.548 98.3792 151.366C97.1523 150.183 95.4883 149.518 93.7532 149.518H66.3098C65.4492 149.519 64.5968 149.355 63.8017 149.038C63.0067 148.72 62.2844 148.254 61.6764 147.667C61.0683 147.08 60.5865 146.382 60.2584 145.615C59.9304 144.848 59.7625 144.026 59.7646 143.196V143.196Z" fill="#AEBEE1"/>
<path d="M59.7646 143.196V83.2003C59.7646 81.5301 59.0774 79.9281 57.8539 78.7457C56.6303 77.5634 54.9702 76.8971 53.2378 76.8932V76.8932C51.5027 76.8932 49.8386 77.5577 48.6117 78.7405C47.3848 79.9233 46.6956 81.5275 46.6956 83.2003V155.811C46.6936 156.64 46.8613 157.462 47.1891 158.229C47.517 158.996 47.9986 159.693 48.6063 160.28C49.214 160.867 49.9359 161.333 50.7306 161.651C51.5254 161.969 52.3773 162.133 53.2378 162.133H93.7532C95.4883 162.133 97.1523 161.468 98.3792 160.285C99.6061 159.102 100.295 157.498 100.295 155.825V155.825C100.295 154.153 99.6061 152.548 98.3792 151.366C97.1523 150.183 95.4883 149.518 93.7532 149.518H66.3098C65.4492 149.519 64.5968 149.355 63.8017 149.038C63.0067 148.72 62.2844 148.254 61.6764 147.667C61.0683 147.08 60.5865 146.382 60.2584 145.615C59.9304 144.848 59.7625 144.026 59.7646 143.196V143.196Z" fill="#535461"/>
<path d="M100.286 155.472C100.196 153.86 99.4689 152.343 98.2536 151.233C97.0383 150.122 95.4276 149.503 93.7532 149.504H66.3099C65.4505 149.504 64.5994 149.341 63.8053 149.024C63.0112 148.707 62.2897 148.243 61.6818 147.657C61.074 147.072 60.5918 146.376 60.2629 145.611C59.9339 144.845 59.7646 144.025 59.7646 143.196V83.2003C59.7643 81.5817 59.1185 80.0252 57.9609 78.8529C56.8033 77.6805 55.2225 76.9821 53.5457 76.9021V155.472H100.286Z" fill="#D6D6E3"/>
<path d="M245.566 134.343H239.529V200.901H245.566V134.343Z" fill="#D6D6E3"/>
<path opacity="0.1" d="M126.122 134.343H120.085V139.151H126.122V134.343Z" fill="black"/>
<path opacity="0.1" d="M245.566 134.343H239.529V139.151H245.566V134.343Z" fill="black"/>
<path opacity="0.1" d="M141.648 94.7341C141.552 95.7591 141.43 96.7979 141.282 97.8506H140.429V94.7341H141.648Z" fill="black"/>
<path d="M166.385 127.11C166.404 128.163 165.616 129.027 164.64 129.027H146.214V127.175H161.546C162.208 127.175 162.62 126.403 162.288 125.786L148.384 98.5244C148.286 98.3279 148.133 98.1614 147.943 98.043C147.753 97.9247 147.533 97.8592 147.307 97.8536H140.429V94.7371H149.114C149.272 94.741 149.426 94.7868 149.559 94.8695C149.693 94.9522 149.799 95.0687 149.868 95.2061L165.807 124.887C166.174 125.575 166.372 126.336 166.385 127.11Z" fill="#535461"/>
<path d="M132.545 122.165L132.292 122.574L129.931 121.055L137.237 66.8968H139.118C139.118 66.8968 139.195 67.1461 139.321 67.621C140.58 72.3016 146.765 98.8092 132.545 122.165Z" fill="#535461"/>
<path opacity="0.1" d="M139.318 67.621L132.545 122.165L132.292 122.574L129.931 121.055L137.237 66.8968H139.118C139.118 66.8968 139.191 67.155 139.318 67.621Z" fill="black"/>
<path d="M134.725 66.3364L127.794 122.12L132.227 122.632L139.157 66.8482L134.725 66.3364Z" fill="#D6D6E3"/>
<path d="M112.604 127.13C112.603 127.265 112.547 127.393 112.449 127.488C112.35 127.583 112.217 127.637 112.078 127.638H111.289C111.15 127.638 111.016 127.584 110.917 127.489C110.818 127.394 110.763 127.265 110.763 127.13C110.76 127.111 110.76 127.091 110.763 127.071C110.779 126.948 110.84 126.836 110.936 126.754C111.032 126.672 111.155 126.626 111.283 126.626H112.071C112.188 126.627 112.302 126.665 112.394 126.735C112.485 126.805 112.551 126.902 112.579 127.012C112.593 127.05 112.601 127.09 112.604 127.13V127.13Z" fill="#E3EDF9"/>
<path d="M114.965 127.13C114.965 127.265 114.909 127.393 114.81 127.488C114.712 127.583 114.578 127.637 114.439 127.638H113.651C113.511 127.638 113.377 127.584 113.278 127.489C113.18 127.394 113.124 127.265 113.124 127.13C113.125 127.083 113.132 127.036 113.146 126.991C113.169 126.909 113.215 126.834 113.278 126.774C113.326 126.727 113.384 126.689 113.447 126.664C113.511 126.638 113.579 126.625 113.648 126.626H114.436C114.537 126.625 114.637 126.653 114.723 126.706C114.808 126.758 114.877 126.834 114.919 126.923C114.949 126.988 114.965 127.059 114.965 127.13Z" fill="#E3EDF9"/>
<path d="M117.065 127.13C117.064 127.265 117.008 127.393 116.91 127.488C116.811 127.583 116.678 127.637 116.539 127.638H115.75C115.611 127.638 115.477 127.584 115.378 127.489C115.279 127.394 115.224 127.265 115.224 127.13C115.223 127.058 115.238 126.986 115.27 126.92C115.313 126.832 115.38 126.758 115.465 126.705C115.549 126.653 115.647 126.624 115.747 126.623H116.535C116.605 126.622 116.673 126.635 116.737 126.661C116.801 126.686 116.86 126.723 116.909 126.771C116.958 126.818 116.996 126.874 117.023 126.936C117.049 126.997 117.062 127.064 117.062 127.13H117.065Z" fill="#E3EDF9"/>
<path d="M119.429 127.13C119.429 127.265 119.373 127.393 119.274 127.488C119.176 127.583 119.042 127.637 118.903 127.638H118.115C118.019 127.638 117.924 127.612 117.842 127.564C117.76 127.516 117.693 127.447 117.648 127.365C117.604 127.282 117.584 127.19 117.59 127.097C117.596 127.005 117.629 126.916 117.684 126.84L117.745 126.774C117.794 126.727 117.851 126.689 117.914 126.664C117.978 126.638 118.046 126.625 118.115 126.626H118.903C118.975 126.627 119.046 126.642 119.111 126.67C119.177 126.698 119.236 126.738 119.285 126.789C119.377 126.88 119.429 127.003 119.429 127.13V127.13Z" fill="#E3EDF9"/>
<path opacity="0.1" d="M112.589 127.009C112.599 127.048 112.604 127.089 112.604 127.13C112.603 127.265 112.547 127.393 112.449 127.488C112.35 127.583 112.217 127.637 112.078 127.638H111.289C111.15 127.638 111.016 127.584 110.917 127.489C110.818 127.394 110.763 127.265 110.763 127.13C110.76 127.111 110.76 127.091 110.763 127.071L112.589 127.009Z" fill="black"/>
<path opacity="0.1" d="M114.922 126.929C114.95 126.991 114.965 127.059 114.965 127.127C114.965 127.262 114.909 127.39 114.81 127.485C114.712 127.58 114.578 127.634 114.439 127.635H113.651C113.511 127.635 113.377 127.581 113.278 127.486C113.18 127.391 113.124 127.262 113.124 127.127C113.125 127.08 113.132 127.033 113.146 126.988L114.922 126.929Z" fill="black"/>
<path opacity="0.1" d="M116.988 126.86C117.04 126.94 117.068 127.033 117.068 127.127C117.067 127.262 117.012 127.39 116.913 127.485C116.814 127.58 116.681 127.634 116.542 127.635H115.753C115.614 127.635 115.48 127.581 115.381 127.486C115.282 127.391 115.227 127.262 115.227 127.127C115.226 127.055 115.241 126.983 115.273 126.917L116.988 126.86Z" fill="black"/>
<path opacity="0.1" d="M119.429 127.13C119.429 127.265 119.373 127.393 119.274 127.488C119.176 127.583 119.042 127.637 118.903 127.638H118.115C118.019 127.638 117.924 127.612 117.842 127.564C117.76 127.516 117.693 127.447 117.648 127.365C117.604 127.282 117.584 127.19 117.59 127.097C117.596 127.005 117.629 126.916 117.684 126.839L119.285 126.786C119.378 126.878 119.43 127.002 119.429 127.13Z" fill="black"/>
<path d="M124.152 129.155H108.928V128.487C108.928 128.19 109.047 127.905 109.261 127.692C109.475 127.479 109.766 127.354 110.073 127.344L122.283 126.937C122.526 126.929 122.768 126.969 122.994 127.053C123.221 127.137 123.428 127.264 123.602 127.426C123.777 127.589 123.916 127.783 124.011 127.999C124.106 128.214 124.155 128.446 124.155 128.68L124.152 129.155Z" fill="#D6D6E3"/>
<path d="M199.263 127.11C199.244 128.163 200.032 129.027 201.008 129.027H219.443V127.175H204.093C203.431 127.175 203.019 126.403 203.351 125.786L217.254 98.5244C217.353 98.3279 217.505 98.1614 217.695 98.043C217.886 97.9247 218.106 97.8592 218.332 97.8536H225.213V94.7371H216.534C216.378 94.7428 216.227 94.7892 216.096 94.8712C215.966 94.9533 215.86 95.068 215.792 95.2031L199.854 124.884C199.482 125.572 199.279 126.334 199.263 127.11V127.11Z" fill="#535461"/>
<path d="M233.107 122.165L233.359 122.574L235.72 121.055L228.415 66.8968H226.534C226.534 66.8968 226.457 67.1461 226.33 67.621C225.068 72.3016 218.871 98.8092 233.107 122.165Z" fill="#535461"/>
<path opacity="0.1" d="M226.33 67.621L233.104 122.165L233.356 122.574L235.717 121.055L228.415 66.8968H226.534C226.534 66.8968 226.457 67.155 226.33 67.621Z" fill="black"/>
<path d="M230.929 66.331L226.497 66.8428L233.427 122.626L237.86 122.114L230.929 66.331Z" fill="#D6D6E3"/>
<path d="M253.044 127.13C253.045 127.265 253.101 127.393 253.199 127.488C253.298 127.583 253.431 127.637 253.571 127.638H254.359C254.498 127.638 254.632 127.584 254.731 127.489C254.83 127.394 254.885 127.265 254.885 127.13C254.888 127.111 254.888 127.091 254.885 127.071C254.869 126.948 254.808 126.836 254.712 126.754C254.616 126.672 254.493 126.626 254.365 126.626H253.577C253.46 126.627 253.347 126.665 253.255 126.735C253.163 126.805 253.097 126.902 253.069 127.012C253.055 127.05 253.047 127.09 253.044 127.13V127.13Z" fill="#E3EDF9"/>
<path d="M250.683 127.13C250.684 127.265 250.739 127.393 250.838 127.488C250.936 127.583 251.07 127.637 251.209 127.638H251.997C252.066 127.638 252.135 127.625 252.199 127.599C252.263 127.574 252.321 127.536 252.37 127.489C252.418 127.442 252.457 127.386 252.484 127.325C252.51 127.263 252.524 127.197 252.524 127.13C252.523 127.083 252.516 127.036 252.502 126.991C252.479 126.909 252.433 126.834 252.37 126.774C252.322 126.727 252.264 126.689 252.201 126.664C252.137 126.638 252.069 126.625 252 126.626H251.197C251.095 126.625 250.996 126.653 250.91 126.706C250.824 126.758 250.756 126.834 250.714 126.923C250.689 126.989 250.678 127.06 250.683 127.13Z" fill="#E3EDF9"/>
<path d="M248.583 127.13C248.584 127.265 248.64 127.393 248.738 127.488C248.837 127.583 248.97 127.637 249.11 127.638H249.898C250.037 127.638 250.171 127.584 250.27 127.489C250.369 127.394 250.424 127.265 250.424 127.13C250.425 127.058 250.41 126.986 250.378 126.92C250.335 126.832 250.268 126.758 250.184 126.705C250.099 126.653 250.001 126.624 249.901 126.623H249.113C249.043 126.622 248.975 126.635 248.911 126.661C248.847 126.686 248.788 126.723 248.739 126.771C248.691 126.818 248.652 126.874 248.625 126.936C248.599 126.997 248.586 127.064 248.586 127.13H248.583Z" fill="#E3EDF9"/>
<path d="M246.219 127.13C246.22 127.265 246.275 127.393 246.374 127.488C246.472 127.583 246.606 127.637 246.745 127.638H247.533C247.63 127.638 247.724 127.612 247.806 127.564C247.889 127.516 247.956 127.447 248 127.365C248.044 127.282 248.065 127.19 248.058 127.097C248.052 127.005 248.02 126.916 247.964 126.84L247.903 126.774C247.855 126.727 247.797 126.689 247.734 126.664C247.67 126.638 247.602 126.625 247.533 126.626H246.745C246.673 126.627 246.603 126.642 246.537 126.67C246.471 126.698 246.412 126.738 246.363 126.789C246.271 126.88 246.219 127.003 246.219 127.13Z" fill="#E3EDF9"/>
<path opacity="0.1" d="M253.06 127.009C253.049 127.048 253.044 127.089 253.044 127.13C253.045 127.265 253.101 127.393 253.199 127.488C253.298 127.583 253.431 127.637 253.571 127.638H254.359C254.498 127.638 254.632 127.584 254.731 127.489C254.83 127.394 254.885 127.265 254.885 127.13C254.888 127.111 254.888 127.091 254.885 127.071L253.06 127.009Z" fill="black"/>
<path opacity="0.1" d="M250.726 126.929C250.698 126.991 250.683 127.059 250.683 127.127C250.684 127.262 250.739 127.39 250.838 127.485C250.936 127.58 251.07 127.634 251.209 127.635H251.997C252.066 127.635 252.135 127.622 252.199 127.596C252.263 127.571 252.321 127.533 252.37 127.486C252.418 127.439 252.457 127.383 252.484 127.322C252.51 127.26 252.524 127.194 252.524 127.127C252.524 127.08 252.516 127.033 252.502 126.988L250.726 126.929Z" fill="black"/>
<path opacity="0.1" d="M248.66 126.86C248.608 126.94 248.581 127.033 248.58 127.127C248.581 127.262 248.637 127.39 248.735 127.485C248.834 127.58 248.967 127.634 249.107 127.635H249.895C250.034 127.635 250.168 127.581 250.267 127.486C250.366 127.391 250.421 127.262 250.421 127.127C250.422 127.055 250.407 126.983 250.375 126.917L248.66 126.86Z" fill="black"/>
<path opacity="0.1" d="M246.219 127.13C246.22 127.265 246.275 127.393 246.374 127.488C246.472 127.583 246.606 127.637 246.745 127.638H247.533C247.63 127.638 247.724 127.612 247.806 127.564C247.889 127.516 247.956 127.447 248 127.365C248.044 127.282 248.065 127.19 248.058 127.097C248.052 127.005 248.02 126.916 247.964 126.839L246.363 126.786C246.27 126.878 246.218 127.002 246.219 127.13Z" fill="black"/>
<path d="M241.496 129.155H256.72V128.487C256.72 128.19 256.601 127.905 256.387 127.692C256.174 127.479 255.882 127.354 255.575 127.344L243.365 126.937C243.122 126.929 242.88 126.969 242.654 127.053C242.427 127.137 242.22 127.264 242.046 127.426C241.871 127.589 241.732 127.783 241.637 127.999C241.542 128.214 241.493 128.446 241.493 128.68L241.496 129.155Z" fill="#D6D6E3"/>
<path d="M305.218 137.201C312.321 125.587 309.747 102.16 310.034 101.712C310.289 101.317 309.31 90.285 302.783 87.59C301.604 85.3373 300.443 82.7996 300.443 82.7996C300.329 82.903 300.203 82.9937 300.068 83.0697C300.017 82.9351 299.966 82.7986 299.917 82.6601C299.834 82.4256 299.757 82.1852 299.68 81.9448C299.863 82.0011 300.049 82.0467 300.237 82.0813C300.735 82.1985 301.259 82.1536 301.727 81.9537C301.887 81.8711 302.032 81.7638 302.155 81.6361C302.669 81.3067 302.953 80.7131 303.193 80.1521L305.092 75.7653C305.948 73.7857 306.81 71.7941 307.266 69.6957C307.944 66.5379 307.681 63.2595 306.508 60.2395C306.059 59.0879 305.437 57.9363 304.381 57.2477C302.266 55.8646 299.323 56.8203 296.906 56.01C296.112 55.7429 295.394 55.2918 294.6 55.0187C292.885 54.4251 290.949 54.7427 289.299 55.4817C287.648 56.2208 286.312 57.3961 284.868 58.4498C284.157 58.9751 283.021 59.5183 282.184 60.2306C281.371 60.842 280.746 61.581 280.866 62.5546C281.002 63.6676 282.218 64.3354 283.351 64.5966C283.538 64.6381 283.732 64.6708 283.923 64.7034C282.579 66.0167 281.61 67.6434 281.111 69.4249C280.612 71.2065 280.6 73.0823 281.077 74.8695C281.553 76.6568 282.502 78.2946 283.83 79.6234C285.158 80.9523 286.82 81.9269 288.655 82.4524C289.233 83.4982 289.733 84.5823 290.151 85.6964C290.207 85.8488 290.261 86.0021 290.315 86.1565C288.449 86.667 286.99 87.0914 286.697 87.3259C285.814 88.0323 287.664 94.2177 287.664 94.2177C287.193 94.7935 286.713 95.4494 286.226 96.1529C282.537 101.554 280.202 107.709 279.404 114.13C279.096 116.478 278.696 118.879 278.188 121.162L256.123 116.897L256.077 117.422L255.55 117.297L253.894 116.902L253.829 117.262L253.577 117.146C249.473 115.291 242.558 112.922 237.875 115.365C232.934 117.929 243.599 121.337 250.443 123.15C248.174 123.257 246.003 123.782 244.285 125.011C239.322 128.597 253.358 130.463 259.987 131.125L260.254 131.152V131.289L262.551 131.493L263.09 131.541L263.142 132.33C263.142 132.33 266.43 132.85 270.823 133.479C265.808 134.687 259.611 135.524 255.307 136.014C250.744 136.53 246.859 139.593 245.634 143.864C245.238 145.089 245.199 146.395 245.523 147.64C246.804 151.952 245.24 183.678 244.886 190.51L236.773 195.013C236.773 195.013 224.151 196.497 232.559 199.349C233.316 199.598 234.091 199.797 234.877 199.942C233.768 200.631 233.864 201.53 237.13 202.635C245.544 205.478 265.103 202.51 265.103 202.51C265.103 202.51 264.675 199.168 263.98 196.39L264.195 196.408C264.195 196.408 262.175 189.163 265.239 185.509C268.302 181.855 264.725 154.048 264.725 154.048C264.725 154.048 270.088 151.908 286.118 151.768C299.049 154.968 305.351 143.514 305.262 137.593C305.234 137.459 305.228 137.323 305.218 137.201Z" fill="url(#paint0_linear)"/>
<path d="M257.431 119.203L256.061 124.545C256.061 124.545 254.83 124.278 252.982 123.821C246.727 122.26 233.531 118.511 238.821 115.76C243.38 113.385 250.095 115.694 254.082 117.496C255.541 118.158 256.637 118.752 257.126 119.031C257.333 119.143 257.431 119.203 257.431 119.203Z" fill="#F8B9BF"/>
<path opacity="0.1" d="M257.047 120.71L256.061 124.569C256.061 124.569 254.83 124.302 252.983 123.845L254.094 117.52C255.553 118.182 256.649 118.775 257.139 119.054L257.047 120.71Z" fill="black"/>
<path d="M257.05 124.934L253.226 124.023L254.414 117.268L257.471 117.995L257.05 124.934Z" fill="#D9DFE8"/>
<path opacity="0.1" d="M257.049 124.934L255.399 124.542L256.021 117.65L257.471 117.995L257.049 124.934Z" fill="black"/>
<path d="M293.944 96.9542C293.944 96.9542 286.602 92.8642 283.338 104.597C280.075 116.33 279.767 121.734 279.767 121.734L256.578 117.265L255.843 125.43C255.843 125.43 280.635 133.147 283.754 132.586C286.873 132.025 296.992 115.668 296.992 115.668C296.992 115.668 306.191 102.991 293.944 96.9542Z" fill="#FBBF24"/>
<g opacity="0.1">
<path opacity="0.1" d="M257.431 119.203L256.061 124.545C256.061 124.545 254.83 124.278 252.982 123.821C246.727 122.26 233.531 118.511 238.821 115.76C243.38 113.385 250.095 115.694 254.082 117.496C255.541 118.158 256.637 118.752 257.126 119.031C257.333 119.143 257.431 119.203 257.431 119.203Z" fill="black"/>
<path opacity="0.1" d="M257.046 120.71L256.061 124.569C256.061 124.569 254.83 124.302 252.982 123.845L254.094 117.52C255.553 118.182 256.649 118.775 257.139 119.054L257.046 120.71Z" fill="black"/>
<path opacity="0.1" d="M257.049 124.934L253.226 124.023L254.414 117.268L257.471 117.995L257.049 124.934Z" fill="black"/>
<path opacity="0.1" d="M257.049 124.934L255.399 124.542L256.021 117.65L257.471 117.995L257.049 124.934Z" fill="black"/>
<path opacity="0.1" d="M293.944 97.251C293.944 97.251 286.602 93.1611 283.338 104.894C280.075 116.626 279.767 122.031 279.767 122.031L256.578 117.561L255.843 125.726C255.843 125.726 280.635 133.443 283.754 132.882C286.873 132.321 296.992 115.965 296.992 115.965C296.992 115.965 306.191 103.288 293.944 97.251Z" fill="black"/>
</g>
<path d="M247.241 187.866L237.774 193.122C237.774 193.122 225.509 194.57 233.679 197.331C241.85 200.091 260.846 197.209 260.846 197.209C260.846 197.209 259.79 188.982 258.318 187.833C256.846 186.684 247.241 187.866 247.241 187.866Z" fill="#68739D"/>
<path d="M284.139 128.89C284.139 128.89 279.428 131.265 271.061 133.316C266.156 134.503 260.017 135.346 255.775 135.827C253.603 136.055 251.551 136.899 249.878 138.254C248.205 139.608 246.987 141.411 246.379 143.434C245.991 144.628 245.954 145.901 246.271 147.114C247.666 151.813 245.584 190.005 245.584 190.005L259.962 191.288C259.962 191.288 258.001 184.25 260.978 180.704C263.955 177.157 260.479 150.159 260.479 150.159C260.479 150.159 265.688 148.082 281.254 147.945C295.675 151.507 301.616 136.29 299.39 132.025C297.165 127.76 284.139 128.89 284.139 128.89Z" fill="#6394E2"/>
<g opacity="0.1">
<path opacity="0.1" d="M247.241 187.866L237.774 193.122C237.774 193.122 225.509 194.57 233.679 197.331C241.85 200.091 260.846 197.209 260.846 197.209C260.846 197.209 259.79 188.982 258.318 187.833C256.846 186.684 247.241 187.866 247.241 187.866Z" fill="black"/>
<path opacity="0.1" d="M284.139 128.89C284.139 128.89 279.429 131.265 271.061 133.316C266.156 134.503 260.017 135.346 255.775 135.827C253.603 136.055 251.551 136.899 249.878 138.254C248.205 139.608 246.987 141.411 246.379 143.434C245.991 144.628 245.954 145.901 246.271 147.114C247.666 151.813 245.585 190.005 245.585 190.005L259.962 191.288C259.962 191.288 258.001 184.25 260.978 180.704C263.955 177.157 260.479 150.159 260.479 150.159C260.479 150.159 265.688 148.082 281.254 147.945C295.675 151.507 301.617 136.29 299.391 132.025C297.165 127.76 284.139 128.89 284.139 128.89Z" fill="black"/>
</g>
<path d="M251.68 191.056L242.213 196.313C242.213 196.313 229.954 197.749 238.119 200.521C246.283 203.293 265.285 200.4 265.285 200.4C265.285 200.4 264.229 192.172 262.757 191.024C261.286 189.875 251.68 191.056 251.68 191.056Z" fill="#68739D"/>
<path d="M285.678 151.136C270.112 151.272 264.903 153.35 264.903 153.35C264.903 153.35 268.379 180.359 265.402 183.894C262.425 187.429 264.386 194.478 264.386 194.478L250.009 193.196C250.009 193.196 250.033 192.745 250.073 191.938C250.418 185.301 251.936 154.493 250.689 150.305C250.374 149.096 250.412 147.826 250.797 146.636C251.402 144.611 252.618 142.805 254.291 141.447C255.963 140.089 258.016 139.242 260.19 139.011C264.429 138.534 270.568 137.703 275.472 136.501L275.712 136.441C283.933 134.405 288.551 132.075 288.551 132.075C288.551 132.075 301.576 130.947 303.802 135.212C304.116 135.889 304.272 136.623 304.258 137.364C304.369 143.119 298.242 154.244 285.678 151.136Z" fill="#6394E2"/>
<path d="M263.995 125.86L263.469 131.351C263.469 131.351 262.203 131.265 260.322 131.075C253.897 130.431 240.268 128.62 245.086 125.139C249.23 122.147 256.224 123.453 260.445 124.664C261.985 125.109 263.167 125.539 263.693 125.744C263.887 125.816 263.995 125.86 263.995 125.86Z" fill="#F8B9BF"/>
<path d="M302.235 89.9615C302.235 89.9615 300.308 91.4159 297.953 93.0127C295.37 93.5766 292.371 94.0426 290.21 94.3453C290.983 91.9709 290.518 89.2997 289.647 86.9579C288.699 84.5108 287.398 82.2048 285.783 80.1076L298.812 76.1868C297.79 78.683 298.252 81.5293 299.12 84.0047C299.886 86.112 300.934 88.1144 302.235 89.9615V89.9615Z" fill="#F8B9BF"/>
<path opacity="0.1" d="M263.847 127.406L263.469 131.351C263.469 131.351 262.203 131.265 260.322 131.075L260.445 124.661C261.985 125.106 263.167 125.537 263.693 125.741L263.847 127.406Z" fill="black"/>
<path d="M264.503 131.582L260.581 131.232L260.71 124.382L263.847 124.661L264.503 131.582Z" fill="#D9DFE8"/>
<path opacity="0.1" d="M302.235 89.9615C302.235 89.9615 300.308 91.4159 297.953 93.0127C295.37 93.5766 292.371 94.0426 290.21 94.3453C290.983 91.9709 290.518 89.2996 289.647 86.9579C292.83 86.0674 297.383 84.9158 299.123 83.9898C299.887 86.1022 300.933 88.1096 302.235 89.9615V89.9615Z" fill="black"/>
<path d="M299.631 84.1382C299.631 84.1382 301.81 88.9079 303.184 91.0627C304.557 93.2175 287.23 95.2179 287.23 95.2179C287.23 95.2179 285.432 89.2136 286.291 88.525C287.15 87.8364 298.181 85.5332 299.631 84.1382Z" fill="#D9DFE8"/>
<path opacity="0.1" d="M304.283 137.367C303.554 138.607 302.646 139.74 301.586 140.733C293.932 147.743 281.387 140.436 275.725 136.441C283.945 134.405 288.563 132.075 288.563 132.075C288.563 132.075 301.589 130.947 303.815 135.212C304.133 135.889 304.293 136.624 304.283 137.367Z" fill="black"/>
<path d="M301.635 140.231C292.935 148.198 277.929 137.649 273.884 134.542C273.228 134.037 272.862 133.725 272.862 133.725C274.459 132.283 275.863 129.226 276.975 125.486C278.011 121.908 278.759 118.258 279.213 114.57C279.987 108.333 282.256 102.355 285.838 97.1086C286.309 96.4259 286.762 95.7878 287.233 95.2298C290.518 91.2022 296.038 88.6437 296.038 88.6437C307.688 85.361 309.255 102.021 308.944 102.502C308.633 102.982 311.748 130.968 301.635 140.231Z" fill="#FBBF24"/>
<path opacity="0.1" d="M302.762 117.458C302.762 117.458 295.271 135.088 292.276 136.094C290.561 136.667 281.402 135.58 273.884 134.545C273.228 134.04 272.862 133.728 272.862 133.728C274.459 132.286 275.863 129.229 276.975 125.489L286.657 125.934C286.657 125.934 286.118 120.55 287.541 108.476C288.963 96.4022 296.848 99.394 296.848 99.394C309.892 103.606 302.762 117.458 302.762 117.458Z" fill="black"/>
<path opacity="0.1" d="M264.503 131.582L262.81 131.431L262.36 124.53L263.847 124.661L264.503 131.582Z" fill="black"/>
<path d="M296.66 98.6164C296.66 98.6164 288.775 95.6275 287.353 107.699C285.931 119.77 286.469 125.157 286.469 125.157L262.847 124.067L263.379 132.247C263.379 132.247 289.089 136.316 292.085 135.313C295.08 134.31 302.571 116.677 302.571 116.677C302.571 116.677 309.692 102.825 296.66 98.6164Z" fill="#FBBF24"/>
<path opacity="0.1" d="M297.189 80.7427C296.845 78.9382 298.8 78.9619 299.501 77.2642L286.473 81.185C287.377 82.3555 288.184 83.5931 288.886 84.8861C289.562 85.0796 290.256 85.2088 290.958 85.272C294.065 85.5569 295.034 82.6097 297.189 80.7427Z" fill="black"/>
<path d="M301.967 74.8118C302.514 69.1054 298.159 64.052 292.24 63.5246C286.321 62.9973 281.079 67.1957 280.532 72.9021C279.985 78.6084 284.34 83.6618 290.259 84.1892C296.178 84.7166 301.42 80.5181 301.967 74.8118Z" fill="#F8B9BF"/>
<path opacity="0.1" d="M280.629 64.4838C280.762 65.5642 281.944 66.2231 283.043 66.4664C284.142 66.7098 285.333 66.7217 286.297 67.2886C287.836 68.2028 288.252 70.2329 288.058 71.9781C287.95 72.9635 287.796 74.1715 288.634 74.7443C288.897 74.8996 289.19 75.0007 289.496 75.0411C290.369 75.2116 291.266 75.2417 292.15 75.1302C292.667 75.0649 293.199 74.9521 293.689 75.0916C294.496 75.3172 294.973 76.1363 295.13 76.9288C295.287 77.7213 295.201 78.5464 295.327 79.3448C295.503 80.3445 295.989 81.2693 296.721 81.9973C297.453 82.7254 298.397 83.2224 299.428 83.4229C299.911 83.5362 300.42 83.4924 300.875 83.2982C301.46 83.0014 301.758 82.3692 302.011 81.7786L303.858 77.5165C304.689 75.5962 305.527 73.658 305.97 71.6219C306.628 68.5553 306.373 65.3716 305.234 62.4388C304.797 61.3228 304.193 60.2039 303.168 59.5331C301.115 58.1886 298.242 59.1176 295.909 58.3459C295.136 58.0876 294.44 57.6484 293.671 57.3842C292.005 56.8114 290.124 57.1141 288.52 57.8354C286.916 58.5566 285.62 59.6934 284.21 60.7292C282.987 61.6463 280.398 62.6169 280.629 64.4838Z" fill="black"/>
<path d="M280.912 64.2553C281.045 65.3356 282.227 65.9945 283.326 66.2379C284.425 66.4813 285.617 66.4932 286.58 67.0601C288.119 67.9742 288.535 70.0044 288.341 71.7496C288.233 72.735 288.079 73.943 288.917 74.5158C289.18 74.6711 289.473 74.7721 289.779 74.8126C290.652 74.9831 291.549 75.0132 292.433 74.9017C292.95 74.8364 293.483 74.7236 293.972 74.8631C294.779 75.0886 295.256 75.9078 295.413 76.7003C295.57 77.4928 295.484 78.3179 295.61 79.1163C295.786 80.116 296.272 81.0408 297.004 81.7688C297.736 82.4968 298.68 82.9939 299.711 83.1944C300.194 83.3077 300.703 83.2639 301.158 83.0697C301.743 82.7729 302.041 82.1407 302.294 81.5501L304.141 77.288C304.972 75.3676 305.81 73.4295 306.253 71.3934C306.911 68.3268 306.656 65.1431 305.517 62.2103C305.08 61.0943 304.476 59.9753 303.451 59.3046C301.398 57.96 298.525 58.889 296.192 58.1174C295.419 57.8591 294.723 57.4199 293.954 57.1557C292.288 56.5829 290.407 56.8856 288.803 57.6068C287.199 58.3281 285.903 59.4648 284.493 60.5007C283.274 61.4178 280.684 62.3884 280.912 64.2553Z" fill="#B96B6B"/>
<path opacity="0.1" d="M289.828 105.247C289.828 105.247 285.718 120.639 281.627 122.064C277.535 123.489 279.342 123.892 279.342 123.892" fill="black"/>
<path d="M290.022 161.634H285.555V189.94H290.022V161.634Z" fill="#D6D6E3"/>
<path opacity="0.1" d="M290.022 161.634H285.555V163.732H290.022V161.634Z" fill="black"/>
<path d="M276.618 161.485V162.079C276.618 162.262 276.655 162.443 276.727 162.612C276.8 162.781 276.906 162.934 277.04 163.063C277.175 163.193 277.334 163.295 277.509 163.365C277.684 163.435 277.872 163.471 278.061 163.471H297.513C297.702 163.471 297.89 163.435 298.065 163.365C298.24 163.295 298.399 163.193 298.534 163.063C298.668 162.934 298.774 162.781 298.847 162.612C298.919 162.443 298.956 162.262 298.956 162.079V161.485C298.956 161.303 298.919 161.122 298.847 160.953C298.774 160.784 298.668 160.63 298.534 160.501C298.399 160.372 298.24 160.269 298.065 160.199C297.89 160.129 297.702 160.093 297.513 160.093H278.061C277.872 160.093 277.684 160.129 277.509 160.199C277.334 160.269 277.175 160.372 277.04 160.501C276.906 160.63 276.8 160.784 276.727 160.953C276.655 161.122 276.618 161.303 276.618 161.485V161.485Z" fill="#D6D6E3"/>
<path opacity="0.1" d="M276.95 160.601H298.627C298.492 160.442 298.322 160.314 298.129 160.226C297.936 160.138 297.726 160.093 297.513 160.093H278.062C277.849 160.094 277.639 160.139 277.447 160.227C277.255 160.315 277.085 160.442 276.95 160.601V160.601Z" fill="black"/>
<path d="M304.449 188.4H271.135C270.199 188.4 269.441 189.131 269.441 190.032V190.151C269.441 191.052 270.199 191.783 271.135 191.783H304.449C305.384 191.783 306.142 191.052 306.142 190.151V190.032C306.142 189.131 305.384 188.4 304.449 188.4Z" fill="#D6D6E3"/>
<path d="M304.067 196.093C305.302 196.093 306.302 195.128 306.302 193.938C306.302 192.748 305.302 191.783 304.067 191.783C302.833 191.783 301.832 192.748 301.832 193.938C301.832 195.128 302.833 196.093 304.067 196.093Z" fill="#535461"/>
<path d="M271.513 196.093C272.748 196.093 273.748 195.128 273.748 193.938C273.748 192.748 272.748 191.783 271.513 191.783C270.279 191.783 269.278 192.748 269.278 193.938C269.278 195.128 270.279 196.093 271.513 196.093Z" fill="#535461"/>
<path d="M287.79 196.093C289.024 196.093 290.025 195.128 290.025 193.938C290.025 192.748 289.024 191.783 287.79 191.783C286.556 191.783 285.555 192.748 285.555 193.938C285.555 195.128 286.556 196.093 287.79 196.093Z" fill="#535461"/>
<path d="M315.532 126.866H285.66C284.214 126.866 283.043 127.996 283.043 129.389V129.573C283.043 130.966 284.214 132.096 285.66 132.096H315.532C316.977 132.096 318.149 130.966 318.149 129.573V129.389C318.149 127.996 316.977 126.866 315.532 126.866Z" fill="#D6D6E3"/>
<path opacity="0.1" d="M290.022 188.4C290.022 188.4 288.267 190.071 285.555 188.4Z" fill="black"/>
<path opacity="0.1" d="M318.149 129.534V129.947C318.149 130.518 317.914 131.065 317.495 131.469C317.077 131.872 316.509 132.099 315.917 132.099H285.275C284.683 132.099 284.115 131.872 283.696 131.469C283.278 131.065 283.043 130.518 283.043 129.947V129.534H318.149Z" fill="black"/>
<path d="M259.74 134.343H253.703V208.502H259.74V134.343Z" fill="#D6D6E3"/>
<path opacity="0.1" d="M259.74 134.343H253.703V139.151H259.74V134.343Z" fill="black"/>
<path d="M76.6819 163.658H72.2147V191.964H76.6819V163.658Z" fill="#D6D6E3"/>
<path opacity="0.1" d="M76.6819 163.658H72.2147V165.757H76.6819V163.658Z" fill="black"/>
<path d="M85.6162 163.513V164.106C85.6162 164.475 85.4641 164.83 85.1933 165.091C84.9225 165.352 84.5553 165.498 84.1723 165.498H64.7212C64.3383 165.498 63.971 165.352 63.7003 165.091C63.4295 164.83 63.2773 164.475 63.2773 164.106V163.513C63.2806 163.146 63.4341 162.795 63.7046 162.536C63.975 162.278 64.3404 162.133 64.7212 162.133H84.1723C84.3619 162.133 84.5497 162.169 84.7249 162.238C84.9001 162.308 85.0592 162.411 85.1933 162.54C85.3274 162.67 85.4338 162.823 85.5063 162.992C85.5789 163.161 85.6162 163.342 85.6162 163.525V163.513Z" fill="#D6D6E3"/>
<path opacity="0.1" d="M85.2869 162.625H63.6068C63.7434 162.469 63.9142 162.344 64.1068 162.259C64.2995 162.173 64.5093 162.13 64.7213 162.133H84.1724C84.3843 162.13 84.5942 162.173 84.7868 162.259C84.9795 162.344 85.1503 162.469 85.2869 162.625V162.625Z" fill="black"/>
<path d="M91.1056 190.424H57.7912C56.856 190.424 56.0979 191.155 56.0979 192.056V192.175C56.0979 193.077 56.856 193.808 57.7912 193.808H91.1056C92.0407 193.808 92.7988 193.077 92.7988 192.175V192.056C92.7988 191.155 92.0407 190.424 91.1056 190.424Z" fill="#D6D6E3"/>
<path d="M58.1729 198.117C59.4073 198.117 60.408 197.152 60.408 195.962C60.408 194.772 59.4073 193.808 58.1729 193.808C56.9384 193.808 55.9377 194.772 55.9377 195.962C55.9377 197.152 56.9384 198.117 58.1729 198.117Z" fill="#535461"/>
<path d="M90.7238 198.117C91.9582 198.117 92.9589 197.152 92.9589 195.962C92.9589 194.772 91.9582 193.808 90.7238 193.808C89.4893 193.808 88.4886 194.772 88.4886 195.962C88.4886 197.152 89.4893 198.117 90.7238 198.117Z" fill="#535461"/>
<path d="M74.4468 198.117C75.6812 198.117 76.6819 197.152 76.6819 195.962C76.6819 194.772 75.6812 193.808 74.4468 193.808C73.2124 193.808 72.2117 194.772 72.2117 195.962C72.2117 197.152 73.2124 198.117 74.4468 198.117Z" fill="#535461"/>
<path opacity="0.1" d="M72.2148 190.424C72.2148 190.424 73.9697 192.095 76.682 190.424Z" fill="black"/>
<path d="M186.178 105.211C186.178 105.211 181.166 96.4289 182.998 88.7951C183.787 85.5979 183.479 82.2402 182.121 79.2261C181.468 77.8005 180.682 76.4354 179.772 75.148" stroke="#535461" stroke-width="2" stroke-miterlimit="10"/>
<path d="M180.883 70.3279C181.145 71.4795 179.744 75.2756 179.744 75.2756C179.744 75.2756 176.822 72.3966 176.557 71.245C176.469 70.9635 176.442 70.6674 176.477 70.3753C176.513 70.0832 176.611 69.8014 176.765 69.5475C176.919 69.2936 177.126 69.0732 177.373 68.9001C177.619 68.7269 177.901 68.6049 178.199 68.5415C178.496 68.4781 178.805 68.4747 179.104 68.5317C179.403 68.5886 179.687 68.7046 179.938 68.8724C180.189 69.0401 180.401 69.256 180.561 69.5065C180.721 69.757 180.825 70.0366 180.868 70.3279H180.883Z" fill="#FBBF24"/>
<path d="M185.91 75.9464C185.483 77.0505 182.167 79.508 182.167 79.508C182.167 79.508 181.336 75.5605 181.767 74.4624C181.859 74.1889 182.008 73.9363 182.204 73.7196C182.4 73.503 182.639 73.3268 182.908 73.2016C183.176 73.0764 183.468 73.0048 183.766 72.9912C184.064 72.9776 184.362 73.0221 184.642 73.1222C184.921 73.2223 185.177 73.3758 185.394 73.5735C185.61 73.7713 185.783 74.0092 185.902 74.273C186.021 74.5368 186.083 74.821 186.085 75.1085C186.087 75.3961 186.029 75.6811 185.914 75.9464H185.91Z" fill="#FBBF24"/>
<path d="M188.238 86.8747C187.29 87.6197 183.143 88.1213 183.143 88.1213C183.143 88.1213 184.494 84.3104 185.442 83.5654C185.668 83.3855 185.927 83.2505 186.207 83.1679C186.486 83.0854 186.78 83.0571 187.071 83.0845C187.362 83.112 187.644 83.1947 187.902 83.328C188.159 83.4612 188.387 83.6423 188.571 83.8608C188.756 84.0794 188.894 84.3309 188.977 84.6011C189.06 84.8712 189.087 85.1546 189.056 85.4348C189.025 85.715 188.937 85.9865 188.796 86.2337C188.656 86.4808 188.466 86.6987 188.238 86.8747V86.8747Z" fill="#FBBF24"/>
<path d="M188.069 95.5236C187.265 96.414 183.266 97.5835 183.266 97.5835C183.266 97.5835 183.928 93.6063 184.731 92.7188C184.919 92.4979 185.151 92.3156 185.414 92.1828C185.676 92.0499 185.964 91.9692 186.259 91.9455C186.554 91.9217 186.852 91.9554 187.133 92.0445C187.415 92.1336 187.675 92.2763 187.898 92.4642C188.122 92.652 188.303 92.8812 188.433 93.1381C188.563 93.395 188.638 93.6744 188.653 93.9598C188.669 94.2451 188.625 94.5305 188.524 94.7992C188.423 95.0678 188.267 95.3142 188.066 95.5236H188.069Z" fill="#FBBF24"/>
<path d="M177.678 80.6863C178.719 81.3067 182.896 81.28 182.896 81.28C182.896 81.28 181.049 77.6678 180.009 77.0475C179.761 76.8909 179.484 76.7836 179.193 76.7319C178.903 76.6803 178.604 76.6853 178.315 76.7468C178.026 76.8082 177.753 76.9248 177.512 77.0897C177.271 77.2546 177.066 77.4644 176.911 77.7068C176.755 77.9492 176.651 78.2192 176.605 78.5008C176.56 78.7825 176.573 79.0701 176.645 79.3468C176.716 79.6234 176.844 79.8834 177.022 80.1115C177.199 80.3395 177.423 80.5309 177.678 80.6745V80.6863Z" fill="#FBBF24"/>
<path d="M177.616 90.8074C178.802 91.1042 182.782 89.8814 182.782 89.8814C182.782 89.8814 179.898 86.9667 178.712 86.6759C178.153 86.5613 177.57 86.6595 177.085 86.95C176.599 87.2405 176.249 87.7007 176.107 88.2345C175.966 88.7682 176.044 89.334 176.325 89.8136C176.606 90.2931 177.069 90.6492 177.616 90.8074V90.8074Z" fill="#FBBF24"/>
<path d="M178.95 100.649C180.064 101.13 184.205 100.578 184.205 100.578C184.205 100.578 181.871 97.2362 180.757 96.7554C180.221 96.5243 179.611 96.5081 179.063 96.7101C178.514 96.9122 178.072 97.316 177.832 97.8328C177.592 98.3496 177.575 98.9369 177.785 99.4657C177.995 99.9945 178.413 100.421 178.95 100.652V100.649Z" fill="#FBBF24"/>
<path d="M180.883 70.3279C181.145 71.4795 179.744 75.2756 179.744 75.2756C179.744 75.2756 176.822 72.3966 176.557 71.245C176.469 70.9635 176.442 70.6674 176.477 70.3753C176.513 70.0832 176.611 69.8014 176.765 69.5475C176.919 69.2936 177.126 69.0732 177.373 68.9001C177.619 68.7269 177.901 68.6049 178.199 68.5415C178.496 68.4781 178.805 68.4747 179.104 68.5317C179.403 68.5886 179.687 68.7046 179.938 68.8724C180.189 69.0401 180.401 69.256 180.561 69.5065C180.721 69.757 180.825 70.0366 180.868 70.3279H180.883Z" fill="#FBBF24"/>
<path d="M185.91 75.9464C185.483 77.0505 182.167 79.508 182.167 79.508C182.167 79.508 181.336 75.5605 181.767 74.4624C181.859 74.1889 182.008 73.9363 182.204 73.7196C182.4 73.503 182.639 73.3268 182.908 73.2016C183.176 73.0764 183.468 73.0048 183.766 72.9912C184.064 72.9776 184.362 73.0221 184.642 73.1222C184.921 73.2223 185.177 73.3758 185.394 73.5735C185.61 73.7713 185.783 74.0092 185.902 74.273C186.021 74.5368 186.083 74.821 186.085 75.1085C186.087 75.3961 186.029 75.6811 185.914 75.9464H185.91Z" fill="#FBBF24"/>
<path d="M188.238 86.8747C187.29 87.6197 183.143 88.1213 183.143 88.1213C183.143 88.1213 184.494 84.3104 185.442 83.5654C185.668 83.3855 185.927 83.2505 186.207 83.1679C186.486 83.0854 186.78 83.0571 187.071 83.0845C187.362 83.112 187.644 83.1947 187.902 83.328C188.159 83.4612 188.387 83.6423 188.571 83.8608C188.756 84.0794 188.894 84.3309 188.977 84.6011C189.06 84.8712 189.087 85.1546 189.056 85.4348C189.025 85.715 188.937 85.9865 188.796 86.2337C188.656 86.4808 188.466 86.6987 188.238 86.8747V86.8747Z" fill="#FBBF24"/>
<path d="M188.069 95.5236C187.265 96.414 183.266 97.5835 183.266 97.5835C183.266 97.5835 183.928 93.6063 184.731 92.7188C184.919 92.4979 185.151 92.3156 185.414 92.1828C185.676 92.0499 185.964 91.9692 186.259 91.9455C186.554 91.9217 186.852 91.9554 187.133 92.0445C187.415 92.1336 187.675 92.2763 187.898 92.4642C188.122 92.652 188.303 92.8812 188.433 93.1381C188.563 93.395 188.638 93.6744 188.653 93.9598C188.669 94.2451 188.625 94.5305 188.524 94.7992C188.423 95.0678 188.267 95.3142 188.066 95.5236H188.069Z" fill="#FBBF24"/>
<path d="M177.678 80.6863C178.719 81.3067 182.896 81.28 182.896 81.28C182.896 81.28 181.049 77.6678 180.009 77.0475C179.761 76.8909 179.484 76.7836 179.193 76.7319C178.903 76.6803 178.604 76.6853 178.315 76.7468C178.026 76.8082 177.753 76.9248 177.512 77.0897C177.271 77.2546 177.066 77.4644 176.911 77.7068C176.755 77.9492 176.651 78.2192 176.605 78.5008C176.56 78.7825 176.573 79.0701 176.645 79.3468C176.716 79.6234 176.844 79.8834 177.022 80.1115C177.199 80.3395 177.423 80.5309 177.678 80.6745V80.6863Z" fill="#FBBF24"/>
<path d="M177.616 90.8074C178.802 91.1042 182.782 89.8814 182.782 89.8814C182.782 89.8814 179.898 86.9667 178.712 86.6759C178.153 86.5613 177.57 86.6595 177.085 86.95C176.599 87.2405 176.249 87.7007 176.107 88.2345C175.966 88.7682 176.044 89.334 176.325 89.8136C176.606 90.2931 177.069 90.6492 177.616 90.8074V90.8074Z" fill="#FBBF24"/>
<path d="M178.95 100.649C180.064 101.13 184.205 100.578 184.205 100.578C184.205 100.578 181.871 97.2362 180.757 96.7554C180.221 96.5243 179.611 96.5081 179.063 96.7101C178.514 96.9122 178.072 97.316 177.832 97.8328C177.592 98.3496 177.575 98.9369 177.785 99.4657C177.995 99.9945 178.413 100.421 178.95 100.652V100.649Z" fill="#FBBF24"/>
<path d="M184.14 129.57C183.419 129.57 182.706 129.428 182.044 129.152C181.382 128.876 180.786 128.472 180.292 127.965C179.799 127.459 179.418 126.86 179.174 126.206C178.93 125.551 178.827 124.856 178.873 124.162L180.347 101.635H187.933L189.408 124.162C189.453 124.856 189.351 125.551 189.107 126.206C188.862 126.86 188.482 127.459 187.988 127.965C187.495 128.472 186.898 128.876 186.237 129.152C185.575 129.428 184.861 129.57 184.14 129.57Z" fill="#FBBF24"/>
<path opacity="0.1" d="M30.5479 18.8233H26.2378V36.038H30.5479V18.8233Z" fill="#FBBF24"/>
<path opacity="0.1" d="M36.0896 18.8233H31.7794V36.038H36.0896V18.8233Z" fill="#FBBF24"/>
<path opacity="0.1" d="M41.6312 18.8233H37.321V36.038H41.6312V18.8233Z" fill="#FBBF24"/>
<path opacity="0.1" d="M47.1728 18.8233H42.8627V36.038H47.1728V18.8233Z" fill="#FBBF24"/>
<path opacity="0.1" d="M58.2561 18.8233H53.9459V36.038H58.2561V18.8233Z" fill="#FBBF24"/>
<path opacity="0.1" d="M63.7977 18.8233H59.4875V36.038H63.7977V18.8233Z" fill="#FBBF24"/>
<path opacity="0.1" d="M30.5479 22.0882H26.2378V22.9786H30.5479V22.0882Z" fill="#FBBF24"/>
<path opacity="0.1" d="M30.5479 32.7732H26.2378V33.6636H30.5479V32.7732Z" fill="#FBBF24"/>
<path opacity="0.1" d="M36.0896 22.0882H31.7794V22.9786H36.0896V22.0882Z" fill="#FBBF24"/>
<path opacity="0.1" d="M36.0896 32.7732H31.7794V33.6636H36.0896V32.7732Z" fill="#FBBF24"/>
<path opacity="0.1" d="M41.6312 22.0882H37.321V22.9786H41.6312V22.0882Z" fill="#FBBF24"/>
<path opacity="0.1" d="M41.6312 32.7732H37.321V33.6636H41.6312V32.7732Z" fill="#FBBF24"/>
<path opacity="0.1" d="M47.1728 22.0882H42.8627V22.9786H47.1728V22.0882Z" fill="#FBBF24"/>
<path opacity="0.1" d="M47.1728 32.7732H42.8627V33.6636H47.1728V32.7732Z" fill="#FBBF24"/>
<path opacity="0.1" d="M52.7145 22.0882H48.4043V22.9786H52.7145V22.0882Z" fill="#FBBF24"/>
<path opacity="0.1" d="M52.7145 32.7732H48.4043V33.6636H52.7145V32.7732Z" fill="#FBBF24"/>
<path opacity="0.1" d="M58.2561 22.0882H53.9459V22.9786H58.2561V22.0882Z" fill="#FBBF24"/>
<path opacity="0.1" d="M58.2561 32.7732H53.9459V33.6636H58.2561V32.7732Z" fill="#FBBF24"/>
<path opacity="0.1" d="M63.7977 22.0882H59.4875V22.9786H63.7977V22.0882Z" fill="#FBBF24"/>
<path opacity="0.1" d="M63.7977 32.7732H59.4875V33.6636H63.7977V32.7732Z" fill="#FBBF24"/>
<path opacity="0.1" d="M52.7145 18.8233H48.4043V36.038H52.7145V18.8233Z" fill="#FBBF24"/>
<path opacity="0.1" d="M67.851 18.7444L63.9396 20.4899L71.4408 36.112L75.3521 34.3664L67.851 18.7444Z" fill="#FBBF24"/>
<path opacity="0.1" d="M69.2748 21.71L65.3634 23.4556L65.7514 24.2636L69.6628 22.5181L69.2748 21.71Z" fill="#FBBF24"/>
<path opacity="0.1" d="M73.9284 31.4054L70.017 33.151L70.405 33.959L74.3164 32.2134L73.9284 31.4054Z" fill="#FBBF24"/>
<path d="M120.304 196.327L112.481 191.516C112.441 184.74 112.33 153.282 113.792 149.073C114.17 147.855 114.191 146.56 113.854 145.33C112.838 141.053 109.131 137.86 104.639 137.156C100.403 136.492 94.3074 135.402 89.3999 133.995C93.7747 133.559 97.0535 133.182 97.0535 133.182L97.1398 132.402L99.9567 132.271V132.155L100.225 132.14C106.804 131.763 120.775 130.508 116.027 126.75C114.399 125.462 112.275 124.854 110.033 124.649C116.886 123.141 127.597 120.221 122.822 117.475C118.284 114.869 111.336 116.917 107.189 118.582L106.933 118.686L106.887 118.327L105.231 118.648L104.704 118.749L104.679 118.226L81.4385 121.687C81.2563 119.12 80.9398 116.563 80.4902 114.026C81.0105 110.684 83.4304 105.811 82.5776 103.196C81.5863 100.16 77.5162 99.1654 75.8045 96.4229C75.355 95.7076 74.9086 95.0369 74.4714 94.4492C73.5147 93.1957 72.4148 92.0497 71.1926 91.033C71.2666 89.2695 71.6757 87.5342 72.3995 85.9131C72.8635 84.8286 73.4067 83.7773 74.025 82.767C76.734 82.1191 79.0845 80.4993 80.5971 78.238C82.1097 75.9767 82.6705 73.2442 82.165 70.598C83.6367 71.2064 85.4254 71.2687 86.3459 70.0815L85.9087 69.9183C85.9518 69.8738 85.9949 69.8292 86.0319 69.7788C85.136 69.4493 84.1847 69.0754 83.4827 68.4758C83.305 68.2833 83.1548 68.0687 83.0363 67.8377C82.6115 67.0066 82.6607 66.0094 82.2543 65.1664C82.0631 64.7826 81.7916 64.4411 81.457 64.1632C80.744 63.4605 79.8421 62.9631 78.8524 62.7267C77.741 62.4151 76.5711 62.2578 75.5059 61.8363C74.0541 60.2111 72.1376 59.0346 69.996 58.4539C67.8544 57.8733 65.5828 57.9141 63.4652 58.5714L63.0803 58.6991C63.3476 57.4568 63.0983 56.163 62.3861 55.0962C61.6738 54.0293 60.5557 53.2746 59.2721 52.9945C57.9886 52.7145 56.6423 52.9314 55.523 53.5986C54.4036 54.2658 53.6007 55.3299 53.287 56.5621C53.3846 55.4804 53.8575 54.4619 54.6293 53.6712C54.5493 53.7365 54.4662 53.7988 54.3892 53.8671C53.9085 54.3028 53.5215 54.8256 53.2503 55.4055C52.9792 55.9855 52.8291 56.6112 52.8088 57.2471C52.7886 57.8829 52.8984 58.5164 53.132 59.1113C53.3657 59.7062 53.7186 60.2509 54.1706 60.7144L54.2599 60.7975C54.6154 61.2168 55.0409 61.5759 55.5191 61.86C54.6391 61.5604 53.8631 61.0305 53.278 60.3296C52.6929 59.6287 52.3218 58.7845 52.2064 57.8918C52.2064 57.9927 52.2064 58.0936 52.2064 58.1886C52.2448 58.8264 52.4137 59.4506 52.7034 60.0252C52.9931 60.5998 53.3978 61.1135 53.8943 61.5367C54.3908 61.9599 54.9692 62.2843 55.5963 62.491C56.2233 62.6978 56.8866 62.7829 57.5479 62.7415L57.6865 62.7267L57.6126 62.8247C56.1808 64.8547 55.5022 67.2915 55.6866 69.7399C55.871 72.1884 56.9076 74.505 58.6285 76.3144C58.8329 76.7657 59.1046 77.1856 59.4352 77.561C59.5513 77.6891 59.6757 77.8101 59.8077 77.9231C60.6509 78.7808 61.8039 79.293 63.028 79.3537C63.2332 79.5892 63.4518 79.8157 63.6837 80.0334C63.4807 80.8661 63.2153 81.6834 62.8894 82.4791C62.2333 84.0635 61.4166 85.5816 60.4511 87.0113C53.8012 88.8336 53.2162 99.7204 53.4564 100.133C53.7427 100.626 52.465 117.722 57.3909 138.373C57.1877 144.277 60.759 154.039 73.437 151.465C89.2922 152.282 94.4921 154.623 94.4921 154.623C94.4921 154.623 92.9866 181.208 95.1355 185.079C96.4809 187.503 95.5265 191.065 94.5198 193.579C94.1466 194.201 93.8491 194.862 93.6331 195.55C93.3253 196.176 93.1005 196.556 93.1005 196.556H93.316C92.5033 199.278 91.9275 202.563 91.9275 202.563C91.9275 202.563 111.148 206.324 119.602 203.863C122.884 202.908 123.019 202.023 121.954 201.293C122.739 201.182 123.514 201.018 124.275 200.803C132.735 198.343 120.304 196.327 120.304 196.327Z" fill="url(#paint1_linear)"/>
<path d="M78.4829 70.1231C78.4829 72.2364 77.8329 74.3022 76.615 76.0593C75.3972 77.8165 73.6662 79.186 71.641 79.9947C69.6158 80.8034 67.3874 81.015 65.2374 80.6027C63.0875 80.1905 61.1126 79.1728 59.5626 77.6785C58.0126 76.1842 56.957 74.2803 56.5294 72.2076C56.1017 70.1349 56.3212 67.9865 57.1601 66.0341C57.9989 64.0817 59.4195 62.4129 61.2421 61.2389C63.0648 60.0648 65.2076 59.4381 67.3997 59.4381C68.8551 59.4381 70.2964 59.7145 71.641 60.2515C72.9857 60.7884 74.2075 61.5755 75.2367 62.5677C76.2659 63.5599 77.0823 64.7378 77.6393 66.0341C78.1962 67.3305 78.4829 68.7199 78.4829 70.1231V70.1231Z" fill="#FA595F"/>
<path d="M103.448 120.322L104.572 125.729C104.572 125.729 105.822 125.513 107.672 125.136C113.992 123.845 127.348 120.657 122.176 117.683C117.727 115.128 110.914 117.137 106.85 118.769C105.36 119.363 104.239 119.915 103.737 120.173C103.55 120.265 103.448 120.322 103.448 120.322Z" fill="#F8B9BF"/>
<path opacity="0.1" d="M103.765 121.847L104.572 125.729C104.572 125.729 105.822 125.513 107.672 125.136L106.85 118.769C105.36 119.363 104.239 119.915 103.737 120.173L103.765 121.847Z" fill="black"/>
<path d="M103.571 126.065L107.432 125.32L106.557 118.52L103.466 119.117L103.571 126.065Z" fill="#D9DFE8"/>
<path opacity="0.1" d="M103.571 126.065L105.237 125.741L104.932 118.835L103.466 119.117L103.571 126.065Z" fill="black"/>
<path d="M67.9878 96.5387C67.9878 96.5387 75.5029 92.7633 78.2337 104.627C80.9645 116.49 81.0045 121.898 81.0045 121.898L104.378 118.416L104.741 126.605C104.741 126.605 79.6191 133.262 76.5312 132.568C73.4432 131.873 64.0687 115.101 64.0687 115.101C64.0687 115.101 55.4791 102.056 67.9878 96.5387Z" fill="#FBBF24"/>
<g opacity="0.1">
<path opacity="0.1" d="M103.448 120.322L104.572 125.729C104.572 125.729 105.822 125.513 107.672 125.136C113.992 123.845 127.348 120.657 122.176 117.683C117.727 115.128 110.914 117.137 106.85 118.769C105.36 119.363 104.239 119.915 103.737 120.173C103.549 120.265 103.448 120.322 103.448 120.322Z" fill="black"/>
<path opacity="0.1" d="M103.765 121.847L104.572 125.729C104.572 125.729 105.822 125.513 107.672 125.136L106.85 118.769C105.36 119.363 104.239 119.915 103.737 120.173L103.765 121.847Z" fill="black"/>
<path opacity="0.1" d="M103.571 126.065L107.432 125.32L106.557 118.52L103.466 119.117L103.571 126.065Z" fill="black"/>
<path opacity="0.1" d="M103.571 126.065L105.237 125.741L104.932 118.835L103.466 119.117L103.571 126.065Z" fill="black"/>
<path opacity="0.1" d="M68.6034 97.1323C68.6034 97.1323 76.1185 93.357 78.8493 105.22C81.5801 117.084 81.6201 122.491 81.6201 122.491L104.993 119.01L105.357 127.199C105.357 127.199 80.2347 133.856 77.1468 133.161C74.0588 132.467 64.6843 115.694 64.6843 115.694C64.6843 115.694 56.0947 102.65 68.6034 97.1323Z" fill="black"/>
</g>
<path d="M110.501 189.352L119.719 194.992C119.719 194.992 131.907 196.96 123.616 199.373C115.326 201.786 96.484 198.096 96.484 198.096C96.484 198.096 97.9156 189.922 99.4395 188.839C100.963 187.756 110.501 189.352 110.501 189.352Z" fill="#F37291"/>
<path d="M76.3279 128.861C76.3279 128.861 80.9244 131.434 89.1906 133.838C94.0365 135.248 100.132 136.337 104.344 136.999C106.504 137.321 108.517 138.254 110.126 139.681C111.735 141.108 112.868 142.964 113.38 145.013C113.71 146.218 113.69 147.487 113.321 148.681C111.714 153.317 112.041 191.561 112.041 191.561L97.62 192.229C97.62 192.229 99.9013 185.28 97.0905 181.612C94.2797 177.943 98.987 151.121 98.987 151.121C98.987 151.121 93.8794 148.824 78.3321 148.025C63.7607 150.993 58.5239 135.515 60.9437 131.348C63.3636 127.181 76.3279 128.861 76.3279 128.861Z" fill="#96A2D0"/>
<g opacity="0.1">
<path opacity="0.1" d="M110.501 189.352L119.719 194.992C119.719 194.992 131.907 196.96 123.616 199.373C115.326 201.786 96.484 198.096 96.484 198.096C96.484 198.096 97.9156 189.922 99.4395 188.839C100.963 187.756 110.501 189.352 110.501 189.352Z" fill="black"/>
<path opacity="0.1" d="M76.3279 128.861C76.3279 128.861 80.9244 131.434 89.1906 133.838C94.0365 135.248 100.132 136.337 104.344 136.999C106.504 137.321 108.517 138.254 110.126 139.681C111.735 141.108 112.868 142.964 113.38 145.013C113.71 146.218 113.69 147.487 113.321 148.681C111.714 153.317 112.041 191.561 112.041 191.561L97.62 192.229C97.62 192.229 99.9013 185.28 97.0905 181.612C94.2797 177.943 98.987 151.121 98.987 151.121C98.987 151.121 93.8794 148.824 78.3321 148.025C63.7607 150.993 58.5239 135.515 60.9437 131.348C63.3636 127.181 76.3279 128.861 76.3279 128.861Z" fill="black"/>
</g>
<path d="M105.908 192.353L115.125 197.993C115.125 197.993 127.314 199.96 119.023 202.373C110.732 204.786 91.8906 201.097 91.8906 201.097C91.8906 201.097 93.3222 192.923 94.8462 191.84C96.3701 190.756 105.908 192.353 105.908 192.353Z" fill="#F37291"/>
<path d="M73.7542 151.023C89.3015 151.822 94.409 154.119 94.409 154.119C94.409 154.119 92.9343 180.184 95.0248 183.977C97.2568 188.002 93.0298 195.226 93.0298 195.226L107.45 194.558C107.45 194.558 107.45 194.107 107.45 193.3C107.407 186.657 107.303 155.814 108.734 151.679C109.103 150.485 109.123 149.215 108.793 148.011C108.28 145.962 107.147 144.106 105.538 142.679C103.93 141.252 101.917 140.319 99.7567 139.997C95.542 139.338 89.4493 138.249 84.6034 136.839L84.3664 136.768C76.2479 134.393 71.7438 131.861 71.7438 131.861C71.7438 131.861 62.1414 131.22 59.7369 135.387C59.4291 135.928 58.1021 136.99 58.0467 137.848C57.6865 143.588 61.0762 153.596 73.7542 151.023Z" fill="#96A2D0"/>
<path d="M96.5886 126.694L96.8626 132.203C96.8626 132.203 98.131 132.17 100.021 132.06C106.471 131.689 120.171 130.461 115.516 126.777C111.514 123.61 104.464 124.619 100.194 125.649C98.6267 126.029 97.4229 126.409 96.8996 126.59C96.6964 126.655 96.5886 126.694 96.5886 126.694Z" fill="#F8B9BF"/>
<path d="M60.0109 89.2046C60.0109 89.2046 61.8581 90.7391 64.1486 92.4368C66.7039 93.1076 69.6902 93.7042 71.8237 94.0989C71.1618 91.68 71.7499 89.0533 72.7258 86.7412C73.7849 84.3361 75.1903 82.087 76.9005 80.0601L64.0624 75.5872C64.9706 78.1249 64.3703 80.9594 63.3943 83.3843C62.5328 85.4575 61.3955 87.414 60.0109 89.2046V89.2046Z" fill="#F8B9BF"/>
<path opacity="0.1" d="M96.6656 128.246L96.8627 132.203C96.8627 132.203 98.1311 132.17 100.021 132.06L100.194 125.646C98.6268 126.026 97.423 126.406 96.8996 126.587L96.6656 128.246Z" fill="black"/>
<path d="M95.8221 132.39L99.7536 132.209L99.9384 125.358L96.7919 125.504L95.8221 132.39Z" fill="#D9DFE8"/>
<path d="M58.3269 139.451C66.6393 147.782 82.1405 137.881 86.309 134.948C86.9863 134.47 87.365 134.176 87.365 134.176C85.8257 132.666 83.3627 131.268 82.4176 127.484C81.5158 123.621 80.9047 119.701 80.5888 115.754C80.3333 112.623 83.6891 106.66 82.7193 103.686C81.7495 100.712 77.7564 99.7353 76.0786 97.0433C75.6383 96.3428 75.2011 95.6839 74.7701 95.1081C71.673 90.9528 66.2761 88.154 66.2761 88.154C54.7772 84.3697 53.8751 100.201 54.1614 100.694C54.4478 101.187 53.1332 118.639 58.3269 139.451Z" fill="#FBBF24"/>
<path opacity="0.1" d="M58.2406 116.65C58.2406 116.65 64.9183 134.583 67.8646 135.714C69.5517 136.361 78.7539 135.663 86.309 134.948C86.9863 134.47 87.365 134.177 87.365 134.177C85.8256 132.666 84.5726 129.552 83.6305 125.771L73.9358 125.804C73.9358 125.804 74.7208 120.461 73.8526 108.325C72.9844 96.1885 64.9706 98.8567 64.9706 98.8567C51.7539 102.51 58.2406 116.65 58.2406 116.65Z" fill="black"/>
<path opacity="0.1" d="M95.8221 132.39L97.5185 132.313L98.2851 125.436L96.7919 125.504L95.8221 132.39Z" fill="black"/>
<path d="M65.1985 98.085C65.1985 98.085 73.2031 95.4346 74.0805 107.553C74.9579 119.672 74.1728 125.032 74.1728 125.032L97.8233 124.949L96.9151 133.099C96.9151 133.099 71.0541 136.067 68.0986 134.942C65.1431 133.817 58.4716 115.881 58.4716 115.881C58.4716 115.881 51.9786 101.739 65.1985 98.085Z" fill="#FBBF24"/>
<path opacity="0.1" d="M65.4909 80.2144C65.9188 78.4336 63.9516 78.3772 63.3358 76.6528L76.1801 81.1048C75.2233 82.2356 74.3607 83.4374 73.6001 84.6991C72.9161 84.8635 72.2169 84.9629 71.5128 84.9959C68.391 85.1443 67.5567 82.1674 65.4909 80.2144Z" fill="black"/>
<path d="M72.2454 83.9563C78.1828 83.6814 82.7648 78.8182 82.4796 73.0941C82.1944 67.3701 77.15 62.9527 71.2126 63.2276C65.2752 63.5026 60.6931 68.3657 60.9783 74.0898C61.2635 79.8139 66.3079 84.2313 72.2454 83.9563Z" fill="#F8B9BF"/>
<path opacity="0.1" d="M66.1682 105.781C66.1682 105.781 69.5732 121.331 73.594 122.919C77.6147 124.507 75.7922 124.845 75.7922 124.845" fill="black"/>
<path opacity="0.1" d="M80.2009 114.564C80.2009 114.564 77.3562 115.421 74.0436 111.323Z" fill="black"/>
<path d="M58.7794 63.8902C61.4999 63.8902 63.7053 61.764 63.7053 59.1413C63.7053 56.5186 61.4999 54.3924 58.7794 54.3924C56.0589 54.3924 53.8535 56.5186 53.8535 59.1413C53.8535 61.764 56.0589 63.8902 58.7794 63.8902Z" fill="#FA595F"/>
<path d="M55.319 61.6493C54.4627 60.7691 53.9861 59.6076 53.9861 58.4008C53.9861 57.194 54.4627 56.0325 55.319 55.1523C55.2389 55.2146 55.1589 55.2769 55.085 55.3452C54.1329 56.2079 53.5754 57.3999 53.535 58.659C53.4945 59.9181 53.9746 61.1411 54.8695 62.0589C55.7644 62.9767 57.0008 63.5143 58.3068 63.5532C59.6128 63.5922 60.8814 63.1294 61.8335 62.2667C61.9104 62.1984 61.9782 62.1242 62.0459 62.053C61.0814 62.8224 59.8491 63.2089 58.5996 63.1339C57.3501 63.0589 56.1771 62.5281 55.319 61.6493Z" fill="#FA595F"/>
<path d="M58.1329 63.442C56.8827 63.5146 55.6508 63.1254 54.6877 62.3535C53.7246 61.5816 53.1027 60.485 52.9484 59.2868C52.9484 59.3847 52.9484 59.4826 52.9484 59.5836C53.03 60.8407 53.6263 62.015 54.6061 62.8483C55.0913 63.2609 55.6559 63.5773 56.2679 63.7795C56.8799 63.9817 57.5272 64.0657 58.1729 64.0267C58.8185 63.9877 59.4499 63.8265 60.031 63.5523C60.612 63.2781 61.1313 62.8963 61.5593 62.4285C61.9873 61.9608 62.3155 61.4164 62.5252 60.8265C62.735 60.2365 62.8221 59.6124 62.7817 58.99C62.7817 58.889 62.7601 58.7941 62.7478 58.6931C62.7503 59.9024 62.2742 61.067 61.4167 61.9494C60.5591 62.8319 59.3847 63.3657 58.1329 63.442V63.442Z" fill="#FA595F"/>
<path opacity="0.1" d="M75.6968 63.2699C76.8451 63.816 78.1597 63.9673 79.3912 64.3116C80.6227 64.6559 81.8788 65.2852 82.4206 66.4071C82.8178 67.2322 82.7716 68.2087 83.1872 69.0249C83.7845 70.2121 85.1637 70.7582 86.4321 71.2242C85.3423 72.634 83.0025 72.2512 81.4754 71.2925C79.9484 70.3338 78.6338 68.918 76.8574 68.547C75.981 68.3804 75.0726 68.4789 74.2564 68.829C73.4403 69.1791 72.7562 69.7638 72.2979 70.503C71.8115 71.3251 71.6391 72.2838 71.3989 73.198C70.7832 75.608 69.5517 78.0062 67.3966 79.3745C65.2416 80.7427 62.0305 80.7338 60.3403 78.861C59.3551 77.7688 59.0257 76.2818 58.7332 74.863C58.5667 74.2015 58.4871 73.5225 58.4962 72.8418C58.5947 71.1381 59.7708 69.6868 60.9591 68.4224C62.3599 66.9384 63.85 65.5137 65.3401 64.0979C66.627 62.8751 68.1109 60.8034 70.0505 60.658C72.2856 60.4858 73.865 62.4062 75.6968 63.2699Z" fill="black"/>
<path d="M75.3889 62.973C76.5373 63.5192 77.8519 63.6705 79.0833 64.0148C80.3148 64.3591 81.5709 64.9883 82.1127 66.1103C82.5099 66.9354 82.4637 67.9119 82.8793 68.7281C83.4766 69.9153 84.8558 70.4614 86.1243 70.9274C85.0344 72.3372 82.6946 71.9544 81.1676 70.9957C79.6406 70.037 78.326 68.6212 76.5496 68.2502C75.6731 68.0836 74.7647 68.1821 73.9485 68.5322C73.1324 68.8823 72.4484 69.467 71.99 70.2062C71.5036 71.0283 71.3312 71.987 71.0911 72.9012C70.4753 75.3112 69.2439 77.7094 67.0888 79.0777C64.9337 80.4459 61.7227 80.437 60.0325 78.5642C59.0473 77.472 58.7179 75.985 58.4254 74.5662C58.2588 73.9047 58.1792 73.2257 58.1883 72.545C58.2868 70.8413 59.4629 69.39 60.6513 68.1256C62.0521 66.6416 63.5421 65.2169 65.0322 63.8011C66.3191 62.5783 67.803 60.5066 69.7426 60.3612C71.9777 60.189 73.5571 62.1093 75.3889 62.973Z" fill="#FA595F"/>
<path d="M76.5772 128.89H46.7048C45.2595 128.89 44.0879 130.02 44.0879 131.413V131.597C44.0879 132.991 45.2595 134.12 46.7048 134.12H76.5772C78.0225 134.12 79.1941 132.991 79.1941 131.597V131.413C79.1941 130.02 78.0225 128.89 76.5772 128.89Z" fill="#D6D6E3"/>
<path opacity="0.1" d="M44.0879 131.562V131.974C44.0879 132.545 44.3231 133.092 44.7416 133.496C45.1602 133.899 45.728 134.126 46.3199 134.126H76.962C77.554 134.126 78.1217 133.899 78.5403 133.496C78.9589 133.092 79.1941 132.545 79.1941 131.974V131.562H44.0879Z" fill="black"/>
<path d="M111.948 134.343H105.911V208.493H111.948V134.343Z" fill="#D6D6E3"/>
<path opacity="0.1" d="M111.948 134.343H105.911V139.151H111.948V134.343Z" fill="black"/>
<path d="M262.628 129.027H103.023V138.643H262.628V129.027Z" fill="#D6D6E3"/>
</g>
<defs>
<linearGradient id="paint0_linear" x1="266.527" y1="205.978" x2="279.792" y2="53.0934" gradientUnits="userSpaceOnUse">
<stop stop-color="#808080" stop-opacity="0.25"/>
<stop offset="0.54" stop-color="#808080" stop-opacity="0.12"/>
<stop offset="1" stop-color="#808080" stop-opacity="0.1"/>
</linearGradient>
<linearGradient id="paint1_linear" x1="24770.6" y1="107601" x2="24770.6" y2="29962" gradientUnits="userSpaceOnUse">
<stop stop-color="#808080" stop-opacity="0.25"/>
<stop offset="0.54" stop-color="#808080" stop-opacity="0.12"/>
<stop offset="1" stop-color="#808080" stop-opacity="0.1"/>
</linearGradient>
<clipPath id="clip0">
<rect width="345" height="256" fill="white" transform="translate(0.5)"/>
</clipPath>
</defs>
</svg>
